<?xml version="1.0" encoding="UTF-8" standalone="no"?>
<svg
   xmlns:dc="http://purl.org/dc/elements/1.1/"
   xmlns:cc="http://creativecommons.org/ns#"
   xmlns:rdf="http://www.w3.org/1999/02/22-rdf-syntax-ns#"
   xmlns:svg="http://www.w3.org/2000/svg"
   xmlns="http://www.w3.org/2000/svg"
   xmlns:sodipodi="http://sodipodi.sourceforge.net/DTD/sodipodi-0.dtd"
   xmlns:inkscape="http://www.inkscape.org/namespaces/inkscape"
   viewBox="-0.2 -1 236.4545 334.1102"
   id="svg3894"
   version="1.1"
   inkscape:version="0.48.2 r9819"
   width="100%"
   height="100%"
   sodipodi:docname="garfield.svg">
  <metadata
     id="metadata3916">
    <rdf:RDF>
      <cc:Work
         rdf:about="">
        <dc:format>image/svg+xml</dc:format>
        <dc:type
           rdf:resource="http://purl.org/dc/dcmitype/StillImage" />
      </cc:Work>
    </rdf:RDF>
  </metadata>
  <defs
     id="defs3914" />
  <sodipodi:namedview
     pagecolor="#ffffff"
     bordercolor="#666666"
     borderopacity="1"
     objecttolerance="10"
     gridtolerance="10"
     guidetolerance="10"
     inkscape:pageopacity="0"
     inkscape:pageshadow="2"
     inkscape:window-width="1440"
     inkscape:window-height="781"
     id="namedview3912"
     showgrid="false"
     inkscape:zoom="1.6856287"
     inkscape:cx="124.1475"
     inkscape:cy="166.606"
     inkscape:window-x="0"
     inkscape:window-y="0"
     inkscape:window-maximized="0"
     inkscape:current-layer="svg3894"
     fit-margin-top="0"
     fit-margin-left="0"
     fit-margin-right="0"
     fit-margin-bottom="0" />
  <path
     id="puddle"
     d="m 231.5875,295.9342 c 0,20.533 -47.56,37.176 -106.22,37.176 -58.669997,0 -106.229997,-16.643 -106.229997,-37.176 0,-20.533 47.558,-37.18 106.229997,-37.18 58.66,0 106.22,16.65 106.22,37.18 z"
     inkscape:connector-curvature="0"
     style="fill:#9cdaf1" />
  <g
     id="shadow-legs"
     style="fill:#7dbbe6"
     transform="translate(-65.352497,0.50420226)">
    <path
       d="m 161.85,331.22 v -26.5 c 0,-3.422 -0.619,-6.284 -1.653,-8.701 6.853,5.322 7.316,18.695 7.316,18.695 v 17.004 c 6.166,0.481 12.534,0.773 19.053,0.861 l -0.172,-16.92 c -0.944,-23.13 -20.769,-25.961 -20.769,-25.961 -7.245,-1.645 -7.137,1.991 -6.409,4.34 -7.108,-12.122 -26.158,-10.556 -26.158,-10.556 -6.611,2.357 -0.475,6.607 -0.475,6.607 10.387,3.775 11.33,15.105 11.33,15.105 v 23.622 c 5.72,0.98 11.71,1.79 17.94,2.4 z"
       id="path3898"
       inkscape:connector-curvature="0" />
    <path
       d="m 245.4,283.48 c 0,0 -19.053,-1.566 -26.16,10.559 0.728,-2.35 0.839,-5.989 -6.408,-4.343 0,0 -19.824,2.832 -20.768,25.961 l -0.174,16.946 c 6.509,-0.025 12.876,-0.254 19.054,-0.671 v -17.219 c 0,0 0.465,-13.373 7.316,-18.695 -1.034,2.417 -1.653,5.278 -1.653,8.701 v 26.775 c 6.214,-0.544 12.211,-1.279 17.937,-2.188 v -24.113 c 0,0 0.944,-11.33 11.33,-15.105 0,-0.01 6.13,-4.26 -0.48,-6.62 z"
       id="path3900"
       inkscape:connector-curvature="0" />
  </g>
  <path
     id="cat"
     d="m 234.7545,95.625202 c 0,-21.073 -7.917,-37.931 -20.77,-50.759 2.246,-7.25 5.246,-23.351 -2.996,-43.96299974 0,0 -14.541,-4.61699996 -47.431,17.39599974 -12.884,-3.22 -26.596,-4.81 -40.328,-4.81 -15.109,0 -30.375997,1.924 -44.614997,5.83 -33.94,-23.1539997 -48.923,-18.41099974 -48.923,-18.41099974 -9.78,24.45699974 -3.733,42.56599974 -1.896,47.06299974 -11.495,12.406 -18.5129997,28.243 -18.5129997,47.659 0,14.657998 2.9546667,39.859098 11.5789997,54.278418 13.480302,22.53817 32.5,29.82158 72.688,34.15358 -5.704,3.833 -11.523,10.349 -13.881,21.374 -7.773,3.718 -32.379,12.793 -47.142,-12.599 0,0 -8.264,-15.109 -24.0819997,-16.292 0,0 -15.344,-0.235 -1.059,9.562 0,0 10.2669997,4.838 17.3509997,23.019 0,0 9.241,31.01 53.835,21.061 l 0,32.032 c 0,0 -0.943,11.33 -11.33,15.105 0,0 -6.137,4.249 0.475,6.606 0,0 31.68919,2.18248 28.792,-21.238 0,0 -3.06092,-10.21238 -3.55951,-19.80112 -0.36815,-7.08042 0.63776,-17.20013 7.442757,-22.01513 -9.955197,12.71857 -9.417027,33.06379 1.77975,45.59125 0,0 -0.47,13.688 -7.550997,18.881 0,0 -4.723,8.494 5.662997,6.137 0,0 19.824,-2.832 20.769,-25.961 l 0.449,-12.06 4.765,0 0.453,12.06 c 0.943,23.129 20.768,25.961 20.768,25.961 10.383,2.357 5.663,-6.137 5.663,-6.137 -7.08,-5.193 -7.551,-18.881 -7.551,-18.881 11.84046,-21.45233 9.55307,-34.91568 -1.1865,-47.46925 6.801,5.296 9.83462,15.02185 9.81575,22.11239 -0.0265,9.93875 -2.96625,21.58086 -2.96625,21.58086 -2.93609,23.41665 28.793,21.238 28.793,21.238 6.606,-2.357 0.474,-6.606 0.474,-6.606 -10.386,-3.775 -11.33,-15.105 -11.33,-15.105 l 0,-45.786 c 0,-17.854 -7.518,-27.309 -14.87,-32.3 42.859,-4.25 60.12975,-14.6852 71.4475,-39.3635 6.94172,-15.13639 8.9775,-34.4505 8.9775,-49.143498 z"
     style="fill:#f88423;fill-opacity:1;stroke:#000000;stroke-width:3;stroke-miterlimit:4;stroke-opacity:1;stroke-dasharray:none"
     inkscape:connector-curvature="0"
     sodipodi:nodetypes="scccscccssccccccccccssccccccccccccsscccscss" />
  <path
     id="octo"
     d="m 15.288503,180.3242 c 0,1.174 -1.376,2.122 -3.07,2.122 -1.693,0 -3.0699997,-0.948 -3.0699997,-2.122 0,-1.175 1.3769997,-2.127 3.0699997,-2.127 1.694,0 3.07,0.95 3.07,2.13 z m 8.5,4.72 c 0,1.174 -1.376,2.122 -3.07,2.122 -1.693,0 -3.07,-0.948 -3.07,-2.122 0,-1.175 1.377,-2.127 3.07,-2.127 1.694,0 3.07,0.95 3.07,2.13 z m 5.193,6.14 c 0,1.174 -1.376,2.122 -3.07,2.122 -1.693,0 -3.07,-0.948 -3.07,-2.122 0,-1.175 1.377,-2.127 3.07,-2.127 1.694,0 3.07,0.95 3.07,2.13 z m 4.72,7.08 c 0,1.174 -1.376,2.122 -3.07,2.122 -1.693,0 -3.07,-0.948 -3.07,-2.122 0,-1.175 1.377,-2.127 3.07,-2.127 1.694,0 3.07,0.95 3.07,2.13 z m 5.188,6.61 c 0,1.174 -1.376,2.122 -3.07,2.122 -1.693,0 -3.07,-0.948 -3.07,-2.122 0,-1.175 1.377,-2.127 3.07,-2.127 1.694,0 3.07,0.95 3.07,2.13 z m 7.09,5.66 c 0,1.174 -1.376,2.122 -3.07,2.122 -1.693,0 -3.07,-0.948 -3.07,-2.122 0,-1.175 1.377,-2.127 3.07,-2.127 1.694,0 3.07,0.95 3.07,2.13 z m 9.91,3.78 c 0,1.174 -1.376,2.122 -3.07,2.122 -1.693,0 -3.07,-0.948 -3.07,-2.122 0,-1.175 1.377,-2.127 3.07,-2.127 1.694,0 3.07,0.95 3.07,2.13 z m 9.87,0 c 0,1.174 -1.376,2.122 -3.07,2.122 -1.693,0 -3.07,-0.948 -3.07,-2.122 0,-1.175 1.377,-2.127 3.07,-2.127 1.694,0 3.07,0.95 3.07,2.13 z m 10.01,-1.64 c 0,1.174 -1.376,2.122 -3.07,2.122 -1.693,0 -3.07,-0.948 -3.07,-2.122 0,-1.175 1.377,-2.127 3.07,-2.127 1.694,0 3.07,0.95 3.07,2.13 z"
     style="fill:#000000;fill-opacity:1"
     inkscape:connector-curvature="0" />
  <path
     id="drop"
     d="m 4.0165033,186.6242 -3.06599997,10.683 c 0,0 -0.8,3.861 2.83999997,4.546 3.8,-0.074 3.486,-3.627 3.223,-4.781 z"
     inkscape:connector-curvature="0"
     style="fill:#9cdaf1" />
  <path
     style="fill:none;stroke:#000000;stroke-width:5;stroke-linecap:round;stroke-linejoin:round;stroke-miterlimit:4;stroke-opacity:1;stroke-dasharray:none"
     d="m 51.256713,118.84226 -2.32462,12.59167 -5.81155,-18.79066 -2.32461,23.24619 -7.167584,-31.38237 -4.261806,33.707 -9.87963,-37.0002 -0.19372,41.26199"
     id="path4625"
     inkscape:connector-curvature="0" />
  <path
     inkscape:connector-curvature="0"
     id="path4627"
     d="m 193.29319,118.84226 2.32462,12.59167 5.81155,-18.79066 2.32461,23.24619 7.16758,-31.38237 4.26181,33.707 9.87963,-37.0002 0.19372,41.26199"
     style="fill:none;stroke:#000000;stroke-width:5;stroke-linecap:round;stroke-linejoin:round;stroke-miterlimit:4;stroke-opacity:1;stroke-dasharray:none" />
  <path
     style="fill:#f9d649;fill-opacity:1;stroke:#000000;stroke-width:3;stroke-linejoin:bevel;stroke-miterlimit:4;stroke-opacity:1;stroke-dasharray:none"
     d="m 194.135,120.09795 c -3.30063,0.16985 -7.13237,1.41415 -11.4375,3.75 -15.30713,8.30525 -36.456,22.96875 -59.8125,22.96875 -0.57492,0 -1.1464,-0.0138 -1.71875,-0.0312 -22.176207,-1.1586 -42.188097,-14.95448 -56.843747,-22.90625 -4.30513,-2.33585 -8.13687,-3.58015 -11.4375,-3.75 -8.43494,-0.43406 -13.34375,6.10239 -13.34375,18.90625 0,5.46104 10.37915,10.76322 17,9.15625 l 6.875,-14.03125 c -10.95753,24.87405 22.97643,30.39061 29.15625,29.6875 11.237877,-1.27858 22.170577,-4.17592 28.999997,-7.6875 0.68172,-0.35053 1.34176,-0.70058 1.9375,-1.0625 0.37867,0.23635 0.83829,0.47955 1.28125,0.71875 0.44924,0.24259 0.92696,0.47496 1.4375,0.71875 0.93223,0.44515 1.94881,0.90281 3.0625,1.34375 0.11181,0.045 0.23063,0.0803 0.34375,0.125 0.37464,0.14577 0.73293,0.29309 1.125,0.4375 0.11648,0.0434 0.22607,0.082 0.34375,0.125 0.7826,0.28623 1.60515,0.57251 2.4375,0.84375 6.09345,1.98567 13.4302,3.55567 20.90625,4.40625 6.17982,0.70311 40.11378,-4.81345 29.15625,-29.6875 l 6.875,14.03125 c 6.62085,1.60697 17,-3.69521 17,-9.15625 0,-12.80386 -4.90881,-19.34031 -13.34375,-18.90625 z"
     id="path4613"
     inkscape:connector-curvature="0" />
  <g
     id="g4575"
     transform="matrix(1.4960017,0,0,1.4960017,-748.63946,-21.287289)">
    <g
       id="g4562">
      <path
         sodipodi:nodetypes="cssssssc"
         inkscape:connector-curvature="0"
         style="fill:#f88423;fill-opacity:1;stroke:#000000;stroke-width:2.81517196;stroke-miterlimit:4;stroke-opacity:1;stroke-dasharray:none"
         d="m 583.04711,82.452307 c -0.0869,7.543047 -0.16481,11.658232 0.051,19.449423 0.18613,6.721 -10.20047,9.63328 -14.19181,9.48073 -12.87562,-0.49211 -22.03897,-13.148476 -22.03897,-30.884426 0,-17.733418 9.13204,-30.228662 20.8778,-30.876836 6.6461,-0.366757 14.50217,3.378776 14.88017,9.417733 0.24206,3.867122 0.598,8.130147 0.42186,23.413376 z"
         id="path4550" />
      <path
         style="fill:#ffffff;fill-opacity:1;stroke:#000000;stroke-width:2.81517196;stroke-miterlimit:4;stroke-opacity:1;stroke-dasharray:none"
         d="M 582.93997,94.882893 551.377,99.477 c 3.91288,6.97093 10.07102,11.27939 17.46922,11.56215 3.99134,0.15255 14.37363,-2.74775 14.1875,-9.46875 -0.0706,-2.548127 -0.076,-4.677162 -0.0937,-6.6874 z"
         id="path4552"
         inkscape:connector-curvature="0"
         sodipodi:nodetypes="ccsccc" />
      <path
         style="fill:none;stroke:#000000;stroke-width:2.5999999;stroke-linecap:butt;stroke-linejoin:miter;stroke-miterlimit:4;stroke-opacity:1;stroke-dasharray:none"
         d="m 557.89037,99.560306 c 3.14121,-0.620224 7.34752,1.607234 13.95052,0.505354 5.7867,-0.965651 6.68974,-1.764331 9.86669,-3.773394"
         id="path4558"
         inkscape:connector-curvature="0"
         transform="translate(-0.2,-1)"
         sodipodi:nodetypes="csc" />
    </g>
    <g
       transform="matrix(-1,0,0,1,1165.9679,0)"
       id="g4567">
      <path
         id="path4569"
         d="m 583.04711,82.452307 c -0.0869,7.543047 -0.16481,11.658232 0.051,19.449423 0.18613,6.721 -10.20047,9.63328 -14.19181,9.48073 -12.87562,-0.49211 -22.03897,-13.148476 -22.03897,-30.884426 0,-17.733418 9.13204,-30.228662 20.8778,-30.876836 6.6461,-0.366757 14.50217,3.378776 14.88017,9.417733 0.24206,3.867122 0.598,8.130147 0.42186,23.413376 z"
         style="fill:#f88423;fill-opacity:1;stroke:#000000;stroke-width:2.81517196;stroke-miterlimit:4;stroke-opacity:1;stroke-dasharray:none"
         inkscape:connector-curvature="0"
         sodipodi:nodetypes="cssssssc" />
      <path
         sodipodi:nodetypes="ccsccc"
         inkscape:connector-curvature="0"
         id="path4571"
         d="M 582.93997,94.882893 551.377,99.477 c 3.91288,6.97093 10.07102,11.27939 17.46922,11.56215 3.99134,0.15255 14.37363,-2.74775 14.1875,-9.46875 -0.0706,-2.548127 -0.076,-4.677162 -0.0937,-6.6874 z"
         style="fill:#ffffff;fill-opacity:1;stroke:#000000;stroke-width:2.81517196;stroke-miterlimit:4;stroke-opacity:1;stroke-dasharray:none" />
      <path
         sodipodi:nodetypes="csc"
         transform="translate(-0.2,-1)"
         inkscape:connector-curvature="0"
         id="path4573"
         d="m 557.89037,99.560306 c 3.14121,-0.620224 7.34752,1.607234 13.95052,0.505354 5.7867,-0.965651 6.68974,-1.764331 9.86669,-3.773394"
         style="fill:none;stroke:#000000;stroke-width:2.5999999;stroke-linecap:butt;stroke-linejoin:miter;stroke-miterlimit:4;stroke-opacity:1;stroke-dasharray:none" />
    </g>
  </g>
  <circle
     sodipodi:ry="4.401"
     sodipodi:rx="4.401"
     sodipodi:cy="148.56"
     sodipodi:cx="188.5"
     style="fill:#fd9cd4;fill-opacity:1;stroke:#000000;stroke-width:1.38471997;stroke-miterlimit:4;stroke-opacity:1;stroke-dasharray:none"
     r="4.401"
     cy="148.56"
     cx="188.5"
     id="nose"
     transform="matrix(2.8674794,0,0,1.6368855,-417.37237,-97.308574)" />
  <g
     id="g4600"
     transform="translate(-65.352497,0.50420226)">
    <path
       style="fill:#000000;fill-opacity:1"
       d="m 261.55472,134.98926 c 1.08057,-0.45895 2.49105,0.43695 3.15328,1.99614 0.66184,1.55828 0.32759,3.1963 -0.75299,3.65525 -1.08149,0.45934 -2.49604,-0.43592 -3.15788,-1.9942 -0.66223,-1.55919 -0.32575,-3.19707 0.76035,-3.65836 z"
       id="path4595"
       inkscape:connector-curvature="0" />
    <path
       style="fill:#000000;fill-opacity:1"
       d="m 263.69626,127.9047 c 1.08058,-0.45895 2.49105,0.43695 3.15329,1.99614 0.66184,1.55828 0.32758,3.1963 -0.75299,3.65525 -1.0815,0.45934 -2.49604,-0.43592 -3.15788,-1.9942 -0.66224,-1.55919 -0.32575,-3.19707 0.76035,-3.65837 z"
       id="path4585"
       inkscape:connector-curvature="0" />
    <path
       style="fill:#000000;fill-opacity:1"
       d="m 254.82891,125.87755 c 1.08058,-0.45895 2.49105,0.43695 3.15329,1.99614 0.66184,1.55828 0.32758,3.1963 -0.75299,3.65525 -1.0815,0.45934 -2.49604,-0.43592 -3.15788,-1.9942 -0.66224,-1.55919 -0.32575,-3.19707 0.76035,-3.65837 z"
       id="path4587"
       inkscape:connector-curvature="0"
       sodipodi:nodetypes="cssscc" />
  </g>
  <g
     id="g4605"
     transform="matrix(-1,0,0,1,312.25367,5.713912)"
     inkscape:transform-center-x="-6.7284236"
     inkscape:transform-center-y="-3.7888798">
    <path
       inkscape:connector-curvature="0"
       id="path4607"
       d="m 261.55472,134.98926 c 1.08057,-0.45895 2.49105,0.43695 3.15328,1.99614 0.66184,1.55828 0.32759,3.1963 -0.75299,3.65525 -1.08149,0.45934 -2.49604,-0.43592 -3.15788,-1.9942 -0.66223,-1.55919 -0.32575,-3.19707 0.76035,-3.65836 z"
       style="fill:#000000;fill-opacity:1" />
    <path
       inkscape:connector-curvature="0"
       id="path4609"
       d="m 263.69626,127.9047 c 1.08058,-0.45895 2.49105,0.43695 3.15329,1.99614 0.66184,1.55828 0.32758,3.1963 -0.75299,3.65525 -1.0815,0.45934 -2.49604,-0.43592 -3.15788,-1.9942 -0.66224,-1.55919 -0.32575,-3.19707 0.76035,-3.65837 z"
       style="fill:#000000;fill-opacity:1" />
    <path
       sodipodi:nodetypes="cssscc"
       inkscape:connector-curvature="0"
       id="path4611"
       d="m 254.82891,125.87755 c 1.08058,-0.45895 2.49105,0.43695 3.15329,1.99614 0.66184,1.55828 0.32758,3.1963 -0.75299,3.65525 -1.0815,0.45934 -2.49604,-0.43592 -3.15788,-1.9942 -0.66224,-1.55919 -0.32575,-3.19707 0.76035,-3.65837 z"
       style="fill:#000000;fill-opacity:1" />
  </g>
  <path
     inkscape:connector-curvature="0"
     id="path4629"
     d="M 40.681913,2.8792089 65.317233,18.259838 36.380563,3.4202035 51.486943,24.226054 32.466283,3.650901 38.663073,21.205179 28.783444,6.5166525 31.030063,24.304903"
     style="fill:none;stroke:#000000;stroke-width:5;stroke-linecap:round;stroke-linejoin:round;stroke-miterlimit:4;stroke-opacity:1;stroke-dasharray:none"
     sodipodi:nodetypes="cccccccc" />
  <path
     sodipodi:nodetypes="cccccccc"
     style="fill:none;stroke:#000000;stroke-width:5;stroke-linecap:round;stroke-linejoin:round;stroke-miterlimit:4;stroke-opacity:1;stroke-dasharray:none"
     d="M 199.98201,2.5037106 175.34669,17.88434 204.28336,3.0447052 189.17698,23.850556 208.19764,3.2754027 202.00085,20.829681 211.88048,6.1411542 209.63386,23.929405"
     id="path4631"
     inkscape:connector-curvature="0" />
</svg>
