<?xml version="1.0" encoding="UTF-8" standalone="no"?>
<svg
   xmlns:dc="http://purl.org/dc/elements/1.1/"
   xmlns:cc="http://creativecommons.org/ns#"
   xmlns:rdf="http://www.w3.org/1999/02/22-rdf-syntax-ns#"
   xmlns:svg="http://www.w3.org/2000/svg"
   xmlns="http://www.w3.org/2000/svg"
   xmlns:sodipodi="http://sodipodi.sourceforge.net/DTD/sodipodi-0.dtd"
   xmlns:inkscape="http://www.inkscape.org/namespaces/inkscape"
   viewBox="-0.2 -1 263.7986 316.28778"
   id="svg2"
   version="1.1"
   inkscape:version="0.48.2 r9819"
   width="100%"
   height="100%"
   sodipodi:docname="hello-kitty.svg">
  <metadata
     id="metadata24">
    <rdf:RDF>
      <cc:Work
         rdf:about="">
        <dc:format>image/svg+xml</dc:format>
        <dc:type
           rdf:resource="http://purl.org/dc/dcmitype/StillImage" />
      </cc:Work>
    </rdf:RDF>
  </metadata>
  <defs
     id="defs22" />
  <sodipodi:namedview
     pagecolor="#ffffff"
     bordercolor="#666666"
     borderopacity="1"
     objecttolerance="10"
     gridtolerance="10"
     guidetolerance="10"
     inkscape:pageopacity="0"
     inkscape:pageshadow="2"
     inkscape:window-width="1440"
     inkscape:window-height="781"
     id="namedview20"
     showgrid="false"
     inkscape:zoom="1.7800245"
     inkscape:cx="132.89929"
     inkscape:cy="158.14389"
     inkscape:window-x="0"
     inkscape:window-y="0"
     inkscape:window-maximized="0"
     inkscape:current-layer="svg2"
     fit-margin-top="0"
     fit-margin-left="0"
     fit-margin-right="0"
     fit-margin-bottom="0" />
  <path
     style="fill:#f5358f;fill-opacity:1;stroke:#000000;stroke-width:6.25;stroke-linecap:butt;stroke-linejoin:bevel;stroke-miterlimit:4;stroke-opacity:1;stroke-dasharray:none"
     d="m 162.18246,204.26297 c 6.70247,5.89377 10.40657,11.3078 12.55151,18.28099 2.20962,7.18347 2.18133,16.02625 1.78716,28.48514 -12.9151,-1.63298 -18.63987,-23.82257 -19.01026,-45.73758 z"
     id="path3828"
     inkscape:connector-curvature="0"
     sodipodi:nodetypes="csccc" />
  <path
     id="cat"
     d="m 242.14083,115.88951 c 0,-21.073 -7.917,-37.931 -20.77,-50.759 2.246,-7.25 5.246,-23.351 -2.996,-43.963 0,0 -14.541,-4.617 -47.431,17.396 -12.884,-3.22 -26.596,-4.81 -40.328,-4.81 -15.109,0 -30.376,1.924 -44.615002,5.83 -33.94,-23.154 -48.923,-18.411 -48.923,-18.411 -9.78,24.457 -3.733,42.566 -1.896,47.063 -11.495,12.406 -18.513,28.243 -18.513,47.659 0.257874,46.71943 8.795806,79.39988 84.267002,88.432 -5.704002,3.833 -11.523002,10.349 -13.881002,21.374 -7.773,3.718 -32.379,12.793 -47.142,-12.599 0,0 -8.264,-15.109 -24.082,-16.292 0,0 -15.34399994,-0.235 -1.059,9.562 0,0 10.267,4.838 17.351,23.019 0,0 9.241,31.01 53.835,21.061 l 0,32.032 c 0,0 -0.943,11.33 -11.33,15.105 0,0 -6.137,4.249 0.475,6.606 0,0 34.454992,2.361 34.454992,-21.238 l 0,-34.929 c 0,0 -0.076,-13.852 0,-18.667 l 0,57.371 c 0,0 -0.47,13.688 -7.55099,18.881 0,0 -4.723002,8.494 5.663,6.137 0,0 21.8795,-2.832 22.8245,-25.961 l 0.33675,-52.06 -0.11225,52.06 c 0.943,23.129 24.155,25.961 24.155,25.961 10.383,2.357 5.663,-6.137 5.663,-6.137 -7.08001,-5.193 -7.551,-18.881 -7.551,-18.881 l 0,-56.876 c -0.30187,6.04367 0,18.171 0,18.171 l 0,34.929 c 0,23.6 34.456,21.238 34.456,21.238 6.606,-2.357 0.474,-6.606 0.474,-6.606 -10.386,-3.775 -11.33,-15.105 -11.33,-15.105 l 0,-45.786 c 0,-17.854 -7.518,-27.309 -14.87,-32.3 74.02422,-8.92659 80.8488,-38.24697 80.425,-88.507 z"
     style="fill:none;stroke:#000000;stroke-width:6.25;stroke-miterlimit:4;stroke-opacity:1;stroke-dasharray:none"
     inkscape:connector-curvature="0"
     sodipodi:nodetypes="ccccsccccccccccccccscccccccccccccscccscc" />
  <path
     style="fill:#000000;fill-opacity:1;stroke-width:6.25;stroke-miterlimit:4;stroke-dasharray:none"
     inkscape:connector-curvature="0"
     d="m 96.493828,151.39339 c 0,6.98322 -5.26,12.64212 -11.734,12.64212 -6.474,0 -11.733,-5.6589 -11.733,-12.64212 0,-6.98546 5.255,-12.64735 11.733,-12.64735 6.47,0 11.73,5.65964 11.73,12.64436 z m 94.419992,0 c 0,6.98322 -5.25999,12.64212 -11.734,12.64212 -6.474,0 -11.733,-5.6589 -11.733,-12.64212 0,-6.98546 5.255,-12.64735 11.733,-12.64735 6.47,0 11.73,5.65964 11.73,12.64436 z"
     id="pupils" />
  <circle
     style="fill:#f3b80b;fill-opacity:1;stroke:#000000;stroke-width:2.48583494;stroke-miterlimit:4;stroke-opacity:1;stroke-dasharray:none"
     sodipodi:ry="4.401"
     sodipodi:rx="4.401"
     sodipodi:cy="148.56"
     sodipodi:cx="188.5"
     r="4.401"
     cy="148.56"
     cx="188.5"
     id="nose"
     transform="matrix(3.0039069,0,0,2.1044034,-435.70261,-145.18577)" />
  <path
     style="fill:none;stroke:#000000;stroke-width:6.25;stroke-linecap:round;stroke-linejoin:miter;stroke-miterlimit:4;stroke-opacity:1;stroke-dasharray:none"
     d="m 226.03457,142.73195 c 17.88003,-3.28806 34.43902,1.5618 34.43902,1.5618"
     id="path3802"
     inkscape:connector-curvature="0"
     sodipodi:nodetypes="cc" />
  <path
     sodipodi:nodetypes="cc"
     inkscape:connector-curvature="0"
     id="path3804"
     d="m 228.09072,152.53102 c 14.81887,-0.98451 28.01803,5.95772 28.01803,5.95772"
     style="fill:none;stroke:#000000;stroke-width:6.25;stroke-linecap:round;stroke-linejoin:miter;stroke-miterlimit:4;stroke-opacity:1;stroke-dasharray:none" />
  <path
     style="fill:none;stroke:#000000;stroke-width:6.25;stroke-linecap:round;stroke-linejoin:miter;stroke-miterlimit:4;stroke-opacity:1;stroke-dasharray:none"
     d="m 225.02926,162.7702 c 18.1303,3.05861 33.16036,13.47784 33.16036,13.47784"
     id="path3806"
     inkscape:connector-curvature="0"
     sodipodi:nodetypes="cc" />
  <path
     sodipodi:nodetypes="cc"
     inkscape:connector-curvature="0"
     id="path3808"
     d="m 37.364013,148.66445 c -17.88003,-3.28806 -34.4390199,1.5618 -34.4390199,1.5618"
     style="fill:none;stroke:#000000;stroke-width:6.25;stroke-linecap:round;stroke-linejoin:miter;stroke-miterlimit:4;stroke-opacity:1;stroke-dasharray:none" />
  <path
     style="fill:none;stroke:#000000;stroke-width:6.25;stroke-linecap:round;stroke-linejoin:miter;stroke-miterlimit:4;stroke-opacity:1;stroke-dasharray:none"
     d="m 35.307873,158.46352 c -14.81888,-0.98451 -28.0180399,5.95772 -28.0180399,5.95772"
     id="path3810"
     inkscape:connector-curvature="0"
     sodipodi:nodetypes="cc" />
  <path
     sodipodi:nodetypes="cc"
     inkscape:connector-curvature="0"
     id="path3812"
     d="m 38.369323,168.7027 c -18.1303,3.05861 -33.1603599,13.47784 -33.1603599,13.47784"
     style="fill:none;stroke:#000000;stroke-width:6.25;stroke-linecap:round;stroke-linejoin:miter;stroke-miterlimit:4;stroke-opacity:1;stroke-dasharray:none" />
  <path
     style="fill:#f86faf;fill-opacity:1;stroke:#000000;stroke-width:6.25;stroke-linecap:round;stroke-miterlimit:4;stroke-opacity:1;stroke-dasharray:none"
     inkscape:transform-center-x="1.2100763"
     inkscape:transform-center-y="-3.2881967"
     d="m 184.56005,77.802932 c -9.84388,13.286818 -30.15492,-7.335349 -30.15492,-7.335349 0,0 -6.01356,27.254254 -23.10176,20.722797 -17.0882,-6.531457 -2.34205,-30.945773 -2.34205,-30.945773 0,0 -27.5491,1.172904 -26.84739,-15.567391 0.70172,-16.740294 28.70744,-11.79019 28.70744,-11.79019 0,0 -8.87293,-26.217169 6.50917,-30.343973 15.3821,-4.126804 20.08423,23.659034 20.08423,23.659034 0,0 21.09192,-18.902802 30.87028,-3.186216 9.77836,15.716586 -16.29472,26.412277 -16.29472,26.412277 0,0 22.4136,15.087966 12.56972,28.374784 z"
     id="path3816"
     inkscape:connector-curvature="0"
     sodipodi:nodetypes="zczczczczcz" />
  <circle
     transform="matrix(2.0783673,0,0,2.0784454,-243.92514,-261.32945)"
     id="circle3814"
     cx="188.5"
     cy="148.56"
     r="4.401"
     sodipodi:cx="188.5"
     sodipodi:cy="148.56"
     sodipodi:rx="4.401"
     sodipodi:ry="4.401"
     style="fill:#f3b80b;fill-opacity:1;stroke:#000000;stroke-width:3.00711179;stroke-miterlimit:4;stroke-opacity:1;stroke-dasharray:none" />
  <path
     style="fill:none;stroke:#000000;stroke-width:6.25;stroke-linecap:butt;stroke-linejoin:miter;stroke-miterlimit:4;stroke-opacity:1;stroke-dasharray:none"
     d="m 100.93583,204.32651 c 16.03831,1.66173 46.35371,1.63243 60.77999,0.07"
     id="path3819"
     inkscape:connector-curvature="0"
     sodipodi:nodetypes="cc" />
  <path
     style="fill:#fcb9d8;fill-opacity:1;stroke:#000000;stroke-width:6.25;stroke-linecap:butt;stroke-linejoin:miter;stroke-miterlimit:4;stroke-opacity:1;stroke-dasharray:none"
     d="m 104.74285,205.26031 c -0.0554,19.93003 -9.218842,45.56964 -18.926122,45.92392 l 0.10585,18.83219 c 0,0 15.089172,7.24298 45.092072,7.13067 30.00291,-0.11231 46.63867,-6.41728 45.31334,-6.41728 l 0.18788,-19.86247 c -13.11264,-0.2583 -19.56409,-26.85035 -18.81056,-46.00469 z"
     id="path3824"
     inkscape:connector-curvature="0"
     sodipodi:nodetypes="ccczcccc" />
  <path
     style="fill:#f5358f;fill-opacity:1;stroke:#000000;stroke-width:6.25;stroke-linecap:butt;stroke-linejoin:miter;stroke-miterlimit:4;stroke-opacity:1;stroke-dasharray:none"
     d="m 115.97361,205.21484 c 0,0 -0.86722,15.2163 14.64663,15.97123 15.51385,0.75493 16.76689,-15.72898 16.76689,-15.72898 z"
     id="path3822"
     inkscape:connector-curvature="0"
     sodipodi:nodetypes="czcc" />
  <path
     sodipodi:nodetypes="csccc"
     inkscape:connector-curvature="0"
     id="path3830"
     d="m 100.055,204.26297 c -6.702472,5.89377 -10.406572,11.3078 -12.551512,18.28099 -2.20962,7.18347 -2.18133,16.02625 -1.78716,28.48514 12.9151,-1.63298 18.639872,-23.82257 19.010252,-45.73758 z"
     style="fill:#f5358f;fill-opacity:1;stroke:#000000;stroke-width:6.25;stroke-linecap:butt;stroke-linejoin:bevel;stroke-miterlimit:4;stroke-opacity:1;stroke-dasharray:none" />
</svg>
