<?xml version="1.0" encoding="UTF-8" standalone="no"?>
<!-- Generator: Adobe Illustrator 15.0.2, SVG Export Plug-In . SVG Version: 6.00 Build 0)  -->

<svg
   xmlns:dc="http://purl.org/dc/elements/1.1/"
   xmlns:cc="http://creativecommons.org/ns#"
   xmlns:rdf="http://www.w3.org/1999/02/22-rdf-syntax-ns#"
   xmlns:svg="http://www.w3.org/2000/svg"
   xmlns="http://www.w3.org/2000/svg"
   xmlns:sodipodi="http://sodipodi.sourceforge.net/DTD/sodipodi-0.dtd"
   xmlns:inkscape="http://www.inkscape.org/namespaces/inkscape"
   version="1.1"
   id="Original"
   x="0px"
   y="0px"
   width="472.51364"
   height="404.17059"
   viewBox="0 0 472.51364 404.17059"
   enable-background="new 0 0 512 512"
   xml:space="preserve"
   inkscape:version="0.48.3.1 r9886"
   sodipodi:docname="i-can-haz-pull-request.svg"><defs
   id="defs63">
</defs><path
   inkscape:connector-curvature="0"
   id="path19"
   d="m 471.66856,276.17286 0.84509,-1.61518 c -36.2909,-18.92164 -75.8118,-30.51083 -100.02447,-36.47967 8.05142,-13.01543 13.9752,-28.96543 19.26356,-47.13341 7.58541,-26.05946 3.86545,-49.75434 -7.41377,-70.24313 5.38848,-8.15707 14.89439,-26.988761 12.12095,-55.441711 0,0 -16.31964,-10.94415 -64.91274,4.43689 -14.77373,-8.61947 -31.15598,-15.51998 -48.13721,-20.46289 -18.68358,-5.43844 -38.25587,-8.55367 -57.26919,-8.84828 C 192.5032,-0.47173102 172.26273,2.3897757e-4 172.26273,2.3897757e-4 151.36555,26.722729 152.32446,51.290729 152.97934,57.513739 c -18.68087,11.20453 -33.05943,28.25961 -40.04871,52.271071 -5.27577,18.12477 -7.94475,34.98677 -7.01956,50.58596 C 82.040794,152.47065 43.839102,141.71644 4.517789,138.33303 l -0.15762,1.81528 c 39.558285,3.40657 77.975335,14.30471 101.690441,22.19402 0.25876,3.25086 0.67176,6.44768 1.26002,9.59344 C 65.850189,164.48311 42.00265,157.03147 0.010938,156.68578 L 0,158.50523 c 42.759982,1.6707 60.694148,6.23279 107.49616,15.52421 8.52411,58.91027 51.41001,82.50135 90.64277,92.58726 -7.347,4.938 -10.8505,12.00054 -13.8855,26.20054 -10.012,4.786 -41.7,16.476 -60.714,-16.228 0,0 -10.643,-19.458 -31.015,-20.982 0,0 -19.762004,-0.304 -1.365,12.315 0,0 13.225,6.229 22.348,29.644 0,0 11.901,39.939 69.334,27.124 l 0,41.256 c 0,0 -1.215,14.591 -14.593,19.454 0,0 -7.904,5.472 0.611,8.508 0,0 37.081,3.042 37.081,-27.352 l 0,-44.985 c 0,0 -1.47,-17.841 7.294,-24.041 l 0,73.888 c 0,0 -0.605,17.629 -9.725,24.316 0,0 -6.084,10.94 7.292,7.904 0,0 25.533,-3.646 26.749,-33.436 l 0.579,-74.775 6.136,0 0.584,74.775 c 1.214,29.789 26.747,33.436 26.747,33.436 13.371,3.036 7.292,-7.904 7.292,-7.904 -9.117,-6.688 -9.724,-24.316 -9.724,-24.316 l 0,-73.251 c 8.758,6.82 7.293,23.404 7.293,23.404 l 0,44.985 c 0,30.394 37.082,27.352 37.082,27.352 8.51,-3.036 0.61,-8.508 0.61,-8.508 -13.375,-4.863 -14.591,-19.454 -14.591,-19.454 l 0,-58.967 c 0,-14.67102 1.13177,-21.69618 -2.74811,-23.62475 17.58528,0.60533 48.56607,-11.46256 68.02468,-34.64191 23.03088,7.39541 63.98274,22.38398 100.66351,45.29038 l 0.96245,-1.54248 C 429.99354,269.687 389.33448,254.70867 366.08563,247.19982 c 1.89192,-2.36342 3.67193,-4.8719 5.37175,-7.4985 24.05627,5.90146 63.77588,17.47349 100.21118,36.47154 z"
   sodipodi:nodetypes="cccscccscccsccccccccccccccccccsccccccccccccccscccsccccccc" /><path
   style="fill:#f4cbb2"
   inkscape:connector-curvature="0"
   id="path21"
   d="m 340.27152,174.62419 c 8.40658,13.66606 11.44881,28.09634 7.53187,41.55286 -18.28648,62.82268 -65.61337,54.89331 -123.37797,38.07914 -57.77517,-16.81725 -102.0684,-43.14722 -85.81878,-98.97232 3.89039,-13.3653 14.08672,-23.85981 28.35882,-30.87767 23.80209,-11.69165 52.98372,6.66455 89.09404,17.17558 35.95958,10.46714 70.34345,10.5147 84.21202,33.04241 z"
   sodipodi:nodetypes="cssscsc" /><path
   style="fill:#ffffff"
   inkscape:connector-curvature="0"
   id="path23"
   d="m 207.49196,178.80848 c -5.03654,17.30289 -18.8653,28.49395 -30.88351,24.99568 -12.02205,-3.49939 -17.68368,-20.36269 -12.64686,-37.66654 5.03626,-17.30192 18.86086,-28.48586 30.88387,-24.98619 12.01821,3.49827 17.68248,20.35609 12.6465,37.65705 z"
   sodipodi:nodetypes="csssc" /><path
   style="fill:#ad5c51"
   inkscape:connector-curvature="0"
   id="path25"
   d="m 200.39515,177.16976 c -3.35769,11.53525 -12.58059,18.98967 -20.58921,16.65851 -8.0163,-2.33339 -11.78809,-13.57031 -8.43039,-25.10557 3.35909,-11.54005 12.57418,-18.99987 20.58952,-16.66676 8.00766,2.33088 11.78917,13.57376 8.43008,25.11382 z"
   sodipodi:nodetypes="csssc" /><path
   style="fill:#ffffff"
   inkscape:connector-curvature="0"
   id="path27"
   d="m 324.25208,212.79513 c -5.03653,17.30288 -18.86241,28.49478 -30.88639,24.99484 -12.01821,-3.49828 -17.67887,-20.3613 -12.64205,-37.66514 5.03626,-17.30192 18.86086,-28.48587 30.87907,-24.9876 12.02301,3.49967 17.68535,20.35693 12.64937,37.6579 z"
   sodipodi:nodetypes="csssc" /><path
   style="fill:#ad5c51"
   inkscape:connector-curvature="0"
   id="path29"
   d="m 317.15048,211.155 c -3.3577,11.53526 -12.57675,18.99079 -20.58921,16.65852 -8.00958,-2.33144 -11.78809,-13.57032 -8.4304,-25.10557 3.35909,-11.54006 12.58091,-18.99792 20.58953,-16.66676 8.01246,2.33227 11.78917,13.57376 8.43008,25.11381 z"
   sodipodi:nodetypes="csssc" /><path
   style="fill:#ad5c51"
   inkscape:connector-curvature="0"
   id="path31"
   d="m 239.92247,218.43114 c -0.87533,3.00719 -4.02,4.73309 -7.02623,3.85803 -3.0072,-0.87533 -4.73337,-4.01904 -3.85804,-7.02623 0.87534,-3.0072 4.01961,-4.7353 7.0268,-3.85996 3.00623,0.87506 4.73281,4.02097 3.85747,7.02816 z"
   sodipodi:nodetypes="csssc" /><path
   style="fill:#ad5c51"
   inkscape:connector-curvature="0"
   id="path33"
   d="m 203.1177,216.86574 c -0.12404,-2.25948 1.60734,-4.18721 3.85232,-4.31777 2.25734,-0.12472 4.19215,1.60641 4.32056,3.85079 0.56043,9.8056 7.24743,18.23029 16.6567,20.96915 9.40065,2.73635 19.56876,-0.78214 25.30421,-8.75513 1.32006,-1.84148 3.87879,-2.24581 5.71225,-0.93043 1.84149,1.32007 2.25265,3.87142 0.93755,5.71199 -7.74951,10.77565 -21.51887,15.53013 -34.24004,11.82722 -12.72487,-3.7063 -21.77918,-15.10198 -22.54355,-28.35582 z"
   sodipodi:nodetypes="cccsccccc" /><path
   style="fill:#c3e4d8"
   inkscape:connector-curvature="0"
   id="path35"
   d="m 101.34743,260.47424 c 0,1.514 -1.772,2.733 -3.956,2.733 -2.181,0 -3.953,-1.22 -3.953,-2.733 0,-1.513 1.772,-2.739 3.953,-2.739 2.183,0 3.956,1.225 3.956,2.739 z"
   sodipodi:nodetypes="cssscc" /><path
   style="fill:#c3e4d8"
   inkscape:connector-curvature="0"
   id="path37"
   d="m 112.29243,266.55124 c 0,1.514 -1.773,2.739 -3.954,2.739 -2.182,0 -3.953,-1.226 -3.953,-2.739 0,-1.508 1.771,-2.732 3.953,-2.732 2.18,0 3.954,1.224 3.954,2.732 z"
   sodipodi:nodetypes="cssscc" /><path
   style="fill:#c3e4d8"
   inkscape:connector-curvature="0"
   id="path39"
   d="m 118.98043,274.46124 c 0,1.508 -1.773,2.734 -3.955,2.734 -2.181,0 -3.95,-1.227 -3.95,-2.734 0,-1.515 1.77,-2.738 3.95,-2.738 2.182,0 3.955,1.224 3.955,2.738 z"
   sodipodi:nodetypes="cssscc" /><path
   style="fill:#c3e4d8"
   inkscape:connector-curvature="0"
   id="path41"
   d="m 125.05843,283.58024 c 0,1.512 -1.768,2.739 -3.949,2.739 -2.187,0 -3.955,-1.228 -3.955,-2.739 0,-1.513 1.769,-2.74 3.955,-2.74 2.181,0 3.949,1.228 3.949,2.74 z"
   sodipodi:nodetypes="cssscc" /><path
   style="fill:#c3e4d8"
   inkscape:connector-curvature="0"
   id="path43"
   d="m 131.74743,292.09424 c 0,1.508 -1.769,2.732 -3.95,2.732 -2.181,0 -3.954,-1.225 -3.954,-2.732 0,-1.514 1.773,-2.74 3.954,-2.74 2.181,0 3.95,1.226 3.95,2.74 l 0,0 z m 0,0" /><path
   style="fill:#c3e4d8"
   inkscape:connector-curvature="0"
   id="path45"
   d="m 140.87143,299.38724 c 0,1.513 -1.773,2.738 -3.955,2.738 -2.182,0 -3.949,-1.226 -3.949,-2.738 0,-1.508 1.768,-2.734 3.949,-2.734 2.181,0 3.955,1.226 3.955,2.734 l 0,0 z m 0,0" /><path
   style="fill:#c3e4d8"
   inkscape:connector-curvature="0"
   id="path47"
   d="m 153.63843,304.25424 c 0,1.507 -1.77,2.733 -3.95,2.733 -2.188,0 -3.955,-1.227 -3.955,-2.733 0,-1.511 1.768,-2.738 3.955,-2.738 2.18,0 3.95,1.227 3.95,2.738 l 0,0 z m 0,0" /><path
   style="fill:#c3e4d8"
   inkscape:connector-curvature="0"
   id="path49"
   d="m 166.34343,304.25424 c 0,1.507 -1.765,2.733 -3.949,2.733 -2.186,0 -3.954,-1.227 -3.954,-2.733 0,-1.511 1.769,-2.738 3.954,-2.738 2.184,0 3.949,1.227 3.949,2.738 l 0,0 z m 0,0" /><path
   style="fill:#c3e4d8"
   inkscape:connector-curvature="0"
   id="path51"
   d="m 179.24343,302.13624 c 0,1.515 -1.77,2.74 -3.949,2.74 -2.188,0 -3.954,-1.226 -3.954,-2.74 0,-1.512 1.767,-2.738 3.954,-2.738 2.18,0 3.949,1.226 3.949,2.738 l 0,0 z m 0,0" />
<g
   style="font-size:48px;font-style:normal;font-variant:normal;font-weight:bold;font-stretch:normal;text-align:center;line-height:125%;letter-spacing:0px;word-spacing:0px;writing-mode:lr-tb;text-anchor:middle;fill:#000000;fill-opacity:1;stroke:none;font-family:Impact;-inkscape-font-specification:Impact Bold"
   id="flowRoot3073"
   transform="translate(-1.629574,136.38524)"><g
     id="g3896"
     transform="matrix(1.1339297,0,0,1.1339297,136.30098,-186.45461)"><path
       id="path3090"
       style="fill:#ffffff;fill-opacity:1;stroke:#000000;stroke-width:2;stroke-miterlimit:4;stroke-opacity:1;stroke-dasharray:none"
       d="m 14.960938,49.990886 0,37.945313 -9.867188,0 0,-37.945313 9.867188,0"
       inkscape:connector-curvature="0" /><path
       id="path3092"
       style="fill:#ffffff;fill-opacity:1;stroke:#000000;stroke-width:2;stroke-miterlimit:4;stroke-opacity:1;stroke-dasharray:none"
       d="m 50.445312,66.537761 -9.867187,0 0,-6.609375 C 40.57811,58.006541 40.468735,56.81123 40.25,56.342449 c -0.20314,-0.484343 -0.664077,-0.72653 -1.382813,-0.726563 -0.812512,3.3e-5 -1.328137,0.289095 -1.546875,0.867188 -0.218761,0.578156 -0.328136,1.828155 -0.328125,3.75 l 0,17.625 c -1.1e-5,1.843758 0.109364,3.046882 0.328125,3.609375 0.218738,0.562506 0.710925,0.843756 1.476563,0.84375 0.734361,6e-6 1.210923,-0.281244 1.429687,-0.84375 0.23436,-0.562493 0.351548,-1.882804 0.351563,-3.960938 l 0,-4.757812 9.867187,0 0,1.476562 c -2.5e-5,3.921885 -0.281274,6.703132 -0.84375,8.34375 -0.546898,1.640629 -1.773459,3.078128 -3.679687,4.3125 -1.890644,1.234375 -4.226579,1.851562 -7.007813,1.851563 -2.890635,-10e-7 -5.273445,-0.523438 -7.148437,-1.570313 C 29.890621,86.115888 28.648434,84.670577 28.039062,82.826824 27.429686,80.967456 27.124998,78.178396 27.125,74.459636 l 0,-11.085937 c -2e-6,-2.734348 0.09375,-4.781221 0.28125,-6.140625 0.187498,-1.374968 0.742185,-2.695279 1.664062,-3.960938 0.937496,-1.265589 2.226557,-2.257775 3.867188,-2.976562 1.656241,-0.734337 3.554676,-1.101524 5.695312,-1.101563 2.906234,3.9e-5 5.30467,0.562539 7.195313,1.6875 1.890603,1.125036 3.132789,2.531285 3.726562,4.21875 0.593726,1.671907 0.8906,4.281279 0.890625,7.828125 l 0,3.609375"
       inkscape:connector-curvature="0" /><path
       id="path3094"
       style="fill:#ffffff;fill-opacity:1;stroke:#000000;stroke-width:2;stroke-miterlimit:4;stroke-opacity:1;stroke-dasharray:none"
       d="m 71.070312,49.990886 5.648438,37.945313 -10.101563,0 -0.492187,-6.820313 -3.539063,0 L 62,87.936199 l -10.21875,0 5.015625,-37.945313 14.273437,0 M 65.84375,74.389324 c -0.500013,-4.296857 -1.000013,-9.601539 -1.5,-15.914063 -1.000011,7.250023 -1.625011,12.554705 -1.875,15.914063 l 3.375,0"
       inkscape:connector-curvature="0" /><path
       id="path3096"
       style="fill:#ffffff;fill-opacity:1;stroke:#000000;stroke-width:2;stroke-miterlimit:4;stroke-opacity:1;stroke-dasharray:none"
       d="m 100.4375,49.990886 0,37.945313 -8.648438,0 -5.132812,-17.25 0,17.25 -8.25,0 0,-37.945313 8.25,0 5.53125,17.085938 0,-17.085938 8.25,0"
       inkscape:connector-curvature="0" /><path
       id="path3098"
       style="fill:#ffffff;fill-opacity:1;stroke:#000000;stroke-width:2;stroke-miterlimit:4;stroke-opacity:1;stroke-dasharray:none"
       d="m 135.5,49.990886 0,37.945313 -9.86719,0 0,-15.9375 -2.95312,0 0,15.9375 -9.86719,0 0,-37.945313 9.86719,0 0,13.570313 2.95312,0 0,-13.570313 9.86719,0"
       inkscape:connector-curvature="0" /><path
       id="path3100"
       style="fill:#ffffff;fill-opacity:1;stroke:#000000;stroke-width:2;stroke-miterlimit:4;stroke-opacity:1;stroke-dasharray:none"
       d="m 156.47656,49.990886 5.64844,37.945313 -10.10156,0 -0.49219,-6.820313 -3.53906,0 -0.58594,6.820313 -10.21875,0 5.01562,-37.945313 14.27344,0 M 151.25,74.389324 c -0.50001,-4.296857 -1.00001,-9.601539 -1.5,-15.914063 -1.00001,7.250023 -1.62501,12.554705 -1.875,15.914063 l 3.375,0"
       inkscape:connector-curvature="0" /><path
       id="path3102"
       style="fill:#ffffff;fill-opacity:1;stroke:#000000;stroke-width:2;stroke-miterlimit:4;stroke-opacity:1;stroke-dasharray:none"
       d="m 184.71875,61.475261 -9.16406,0 0,-2.8125 c -2e-5,-1.312469 -0.1172,-2.148406 -0.35157,-2.507812 -0.23438,-0.359343 -0.62501,-0.53903 -1.17187,-0.539063 -0.59376,3.3e-5 -1.04689,0.24222 -1.35938,0.726563 -0.29688,0.484406 -0.44532,1.21878 -0.44531,2.203125 -1e-5,1.265653 0.17187,2.218777 0.51563,2.859375 0.32811,0.640651 1.2578,1.414088 2.78906,2.320312 4.39061,2.609397 7.15623,4.75002 8.29687,6.421875 1.14061,1.671892 1.71092,4.367201 1.71094,8.085938 -2e-5,2.703132 -0.32033,4.695317 -0.96094,5.976562 -0.62502,1.281253 -1.84377,2.359377 -3.65625,3.234375 -1.81251,0.859375 -3.92189,1.289062 -6.32812,1.289063 -2.64064,-10e-7 -4.89845,-0.5 -6.77344,-1.5 -1.85938,-0.999998 -3.07813,-2.273435 -3.65625,-3.820313 -0.57812,-1.546868 -0.86719,-3.742179 -0.86719,-6.585937 l 0,-2.484375 9.16407,0 0,4.617187 c -1e-5,1.421883 0.12499,2.335945 0.375,2.742188 0.26561,0.406256 0.72655,0.609381 1.38281,0.609375 0.65624,6e-6 1.14061,-0.257807 1.45312,-0.773438 0.32812,-0.515618 0.49218,-1.281242 0.49219,-2.296875 -1e-5,-2.234364 -0.3047,-3.6953 -0.91406,-4.382812 -0.62501,-0.687486 -2.16407,-1.835923 -4.61719,-3.445313 -2.45313,-1.624981 -4.07813,-2.804668 -4.875,-3.539062 -0.79688,-0.734354 -1.46094,-1.749978 -1.99219,-3.046875 -0.51562,-1.296851 -0.77343,-2.953099 -0.77343,-4.96875 0,-2.906219 0.36718,-5.031217 1.10156,-6.375 0.75,-1.343714 1.95312,-2.390588 3.60937,-3.140625 1.65625,-0.765587 3.65625,-1.148399 6,-1.148438 2.56249,3.9e-5 4.74218,0.414101 6.53907,1.242188 1.81248,0.828162 3.00779,1.875036 3.58593,3.140625 0.59373,1.250033 0.89061,3.382843 0.89063,6.398437 l 0,1.5"
       inkscape:connector-curvature="0" /><path
       id="path3104"
       style="fill:#ffffff;fill-opacity:1;stroke:#000000;stroke-width:2;stroke-miterlimit:4;stroke-opacity:1;stroke-dasharray:none"
       d="m -46.046875,109.99089 9.9375,0 c 2.687485,3e-5 4.749983,0.21097 6.1875,0.63281 1.453105,0.42191 2.539042,1.03129 3.257813,1.82812 0.734352,0.79691 1.226539,1.76566 1.476562,2.90625 0.265602,1.12504 0.398414,2.87503 0.398438,5.25 l 0,3.30469 c -2.4e-5,2.4219 -0.250023,4.18752 -0.75,5.29688 -0.500022,1.10939 -1.421897,1.96095 -2.765625,2.55468 -1.328144,0.59377 -3.07033,0.89064 -5.226563,0.89063 l -2.648437,0 0,15.28125 -9.867188,0 0,-37.94531 m 9.867188,6.49218 0,9.65625 c 0.281237,0.0157 0.523425,0.0235 0.726562,0.0234 0.906237,2e-5 1.531236,-0.21873 1.875,-0.65625 0.35936,-0.4531 0.539048,-1.38279 0.539063,-2.78906 l 0,-3.11719 c -1.5e-5,-1.29684 -0.20314,-2.14059 -0.609375,-2.53125 -0.406264,-0.39059 -1.250014,-0.5859 -2.53125,-0.58594"
       inkscape:connector-curvature="0" /><path
       id="path3106"
       style="fill:#ffffff;fill-opacity:1;stroke:#000000;stroke-width:2;stroke-miterlimit:4;stroke-opacity:1;stroke-dasharray:none"
       d="m 0.4765625,109.99089 0,25.35937 c -2.44e-5,2.87501 -0.0937743,4.89845 -0.28125,6.07031 -0.18752393,1.15626 -0.74221088,2.35157 -1.6640625,3.58594 -0.9218965,1.21875 -2.1406453,2.14844 -3.65625,2.78906 -1.5000173,0.625 -3.273453,0.9375 -5.320313,0.9375 -2.265636,0 -4.265634,-0.375 -5.999999,-1.125 -1.734381,-0.74999 -3.031255,-1.72656 -3.890625,-2.92968 -0.859378,-1.20312 -1.36719,-2.46875 -1.523438,-3.79688 -0.156252,-1.34374 -0.234377,-4.15624 -0.234375,-8.4375 l 0,-22.45312 9.867187,0 0,28.45312 c -1.1e-5,1.65626 0.08593,2.71876 0.257813,3.1875 0.187488,0.45313 0.554675,0.67969 1.101562,0.67969 0.624987,0 1.0234239,-0.25 1.195313,-0.75 0.1874856,-0.51562 0.2812355,-1.71874 0.28125,-3.60938 l 0,-27.96093 9.8671875,0"
       inkscape:connector-curvature="0" /><path
       id="path3108"
       style="fill:#ffffff;fill-opacity:1;stroke:#000000;stroke-width:2;stroke-miterlimit:4;stroke-opacity:1;stroke-dasharray:none"
       d="m 14.164063,109.99089 0,30.35156 5.999999,0 0,7.59375 -15.867187,0 0,-37.94531 9.867188,0"
       inkscape:connector-curvature="0" /><path
       id="path3110"
       style="fill:#ffffff;fill-opacity:1;stroke:#000000;stroke-width:2;stroke-miterlimit:4;stroke-opacity:1;stroke-dasharray:none"
       d="m 32.445312,109.99089 0,30.35156 6,0 0,7.59375 -15.867187,0 0,-37.94531 9.867187,0"
       inkscape:connector-curvature="0" /><path
       id="path3112"
       style="fill:#ffffff;fill-opacity:1;stroke:#000000;stroke-width:2;stroke-miterlimit:4;stroke-opacity:1;stroke-dasharray:none"
       d="m 49.296875,109.99089 6.984375,0 c 4.656236,3e-5 7.804671,0.17972 9.445312,0.53906 1.65623,0.35941 2.999979,1.28129 4.03125,2.76562 1.046852,1.46879 1.570289,3.82035 1.570313,7.05469 -2.4e-5,2.95315 -0.367211,4.93752 -1.101563,5.95313 -0.734397,1.01564 -2.179708,1.62502 -4.335937,1.82812 1.953104,0.4844 3.265603,1.13283 3.9375,1.94531 0.671852,0.81252 1.085914,1.56252 1.242187,2.25 0.171852,0.67189 0.257789,2.53908 0.257813,5.60157 l 0,10.00781 -9.164063,0 0,-12.60938 c -1.4e-5,-2.03123 -0.164077,-3.28904 -0.492187,-3.77343 -0.312514,-0.48436 -1.148451,-0.72655 -2.507813,-0.72657 l 0,17.10938 -9.867187,0 0,-37.94531 m 9.867187,6.49218 0,8.4375 c 1.109363,3e-5 1.882799,-0.14841 2.320313,-0.44531 0.45311,-0.31247 0.679673,-1.30466 0.679687,-2.97656 l 0,-2.08594 c -1.4e-5,-1.20309 -0.218764,-1.99216 -0.65625,-2.36719 -0.421888,-0.37496 -1.203137,-0.56246 -2.34375,-0.5625"
       inkscape:connector-curvature="0" /><path
       id="path3114"
       style="fill:#ffffff;fill-opacity:1;stroke:#000000;stroke-width:2;stroke-miterlimit:4;stroke-opacity:1;stroke-dasharray:none"
       d="m 75.171875,109.99089 16.453125,0 0,7.59375 -6.585938,0 0,7.19531 6.164063,0 0,7.21875 -6.164063,0 0,8.34375 7.242188,0 0,7.59375 -17.109375,0 0,-37.94531"
       inkscape:connector-curvature="0" /><path
       id="path3116"
       style="fill:#ffffff;fill-opacity:1;stroke:#000000;stroke-width:2;stroke-miterlimit:4;stroke-opacity:1;stroke-dasharray:none"
       d="m 117.71094,147.9362 0,4.59375 -7.45313,0 c -1.79689,-1e-5 -3.06251,-0.14063 -3.79687,-0.42188 -0.73439,-0.26562 -1.23439,-0.67187 -1.5,-1.21875 -0.25001,-0.54687 -0.37501,-1.53125 -0.375,-2.95312 -2.23439,-0.0625 -4.15626,-0.64844 -5.765628,-1.75781 -1.609379,-1.10938 -2.671877,-2.51562 -3.1875,-4.21875 -0.515626,-1.71875 -0.773439,-4.28124 -0.773437,-7.6875 l 0,-11.74219 c -2e-6,-2.5781 0.148436,-4.53903 0.445312,-5.88281 0.312498,-1.35935 0.94531,-2.63278 1.898438,-3.82032 0.95312,-1.20308 2.179681,-2.10933 3.679685,-2.71875 1.49999,-0.60933 3.16405,-0.91402 4.99219,-0.91406 2.20311,4e-5 4.16405,0.37504 5.88281,1.125 1.73436,0.75004 3.02342,1.70316 3.86719,2.85938 0.85935,1.15628 1.41404,2.3594 1.66406,3.60937 0.2656,1.23441 0.39842,3.07815 0.39844,5.53125 l 0,12.32813 c -2e-5,3.37501 -0.16409,5.66407 -0.49219,6.86718 -0.32815,1.20313 -0.96096,2.16407 -1.89843,2.88282 -0.9219,0.70312 -2.15627,1.24219 -3.70313,1.61718 0.0469,0.84376 0.21873,1.375 0.51563,1.59375 0.31248,0.21875 1.03904,0.32813 2.17968,0.32813 l 3.42188,0 m -9.89063,-28.19531 c -1e-5,-1.7656 -0.10157,-2.8906 -0.30468,-3.375 -0.18752,-0.49997 -0.58596,-0.74997 -1.19532,-0.75 -0.51564,3e-5 -0.91407,0.20315 -1.19531,0.60937 -0.26564,0.39066 -0.39845,1.56253 -0.39844,3.51563 l 0,17.71875 c -1e-5,2.20313 0.0859,3.5625 0.25782,4.07812 0.18748,0.51563 0.60936,0.77344 1.26562,0.77344 0.67186,0 1.10155,-0.29687 1.28906,-0.89063 0.18749,-0.59374 0.28124,-2.0078 0.28125,-4.24218 l 0,-17.4375"
       inkscape:connector-curvature="0" /><path
       id="path3118"
       style="fill:#ffffff;fill-opacity:1;stroke:#000000;stroke-width:2;stroke-miterlimit:4;stroke-opacity:1;stroke-dasharray:none"
       d="m 143.82031,109.99089 0,25.35937 c -2e-5,2.87501 -0.0938,4.89845 -0.28125,6.07031 -0.18752,1.15626 -0.74221,2.35157 -1.66406,3.58594 -0.9219,1.21875 -2.14065,2.14844 -3.65625,2.78906 -1.50002,0.625 -3.27345,0.9375 -5.32031,0.9375 -2.26564,0 -4.26564,-0.375 -6,-1.125 -1.73438,-0.74999 -3.03126,-1.72656 -3.89063,-2.92968 -0.85938,-1.20312 -1.36719,-2.46875 -1.52343,-3.79688 -0.15626,-1.34374 -0.23438,-4.15624 -0.23438,-8.4375 l 0,-22.45312 9.86719,0 0,28.45312 c -1e-5,1.65626 0.0859,2.71876 0.25781,3.1875 0.18749,0.45313 0.55467,0.67969 1.10156,0.67969 0.62499,0 1.02343,-0.25 1.19531,-0.75 0.18749,-0.51562 0.28124,-1.71874 0.28125,-3.60938 l 0,-27.96093 9.86719,0"
       inkscape:connector-curvature="0" /><path
       id="path3120"
       style="fill:#ffffff;fill-opacity:1;stroke:#000000;stroke-width:2;stroke-miterlimit:4;stroke-opacity:1;stroke-dasharray:none"
       d="m 147.64062,109.99089 16.45313,0 0,7.59375 -6.58594,0 0,7.19531 6.16406,0 0,7.21875 -6.16406,0 0,8.34375 7.24219,0 0,7.59375 -17.10938,0 0,-37.94531"
       inkscape:connector-curvature="0" /><path
       id="path3122"
       style="fill:#ffffff;fill-opacity:1;stroke:#000000;stroke-width:2;stroke-miterlimit:4;stroke-opacity:1;stroke-dasharray:none"
       d="m 188.51562,121.47526 -9.16406,0 0,-2.8125 c -1e-5,-1.31247 -0.1172,-2.1484 -0.35156,-2.50781 -0.23439,-0.35934 -0.62501,-0.53903 -1.17188,-0.53906 -0.59376,3e-5 -1.04688,0.24222 -1.35937,0.72656 -0.29689,0.48441 -0.44532,1.21878 -0.44531,2.20312 -1e-5,1.26566 0.17186,2.21878 0.51562,2.85938 0.32812,0.64065 1.2578,1.41409 2.78906,2.32031 4.39061,2.6094 7.15623,4.75002 8.29688,6.42188 1.1406,1.67189 1.71091,4.3672 1.71094,8.08593 -3e-5,2.70314 -0.32034,4.69532 -0.96094,5.97657 -0.62502,1.28125 -1.84377,2.35937 -3.65625,3.23437 -1.81252,0.85938 -3.92189,1.28906 -6.32813,1.28906 -2.64063,0 -4.89844,-0.5 -6.77343,-1.5 -1.85938,-0.99999 -3.07813,-2.27343 -3.65625,-3.82031 -0.57813,-1.54687 -0.86719,-3.74218 -0.86719,-6.58594 l 0,-2.48437 9.16406,0 0,4.61719 c -1e-5,1.42188 0.12499,2.33594 0.375,2.74218 0.26562,0.40626 0.72655,0.60938 1.38281,0.60938 0.65624,0 1.14062,-0.25781 1.45313,-0.77344 0.32811,-0.51562 0.49217,-1.28124 0.49219,-2.29687 -2e-5,-2.23437 -0.3047,-3.6953 -0.91407,-4.38282 -0.62501,-0.68748 -2.16407,-1.83592 -4.61718,-3.44531 -2.45313,-1.62498 -4.07813,-2.80467 -4.875,-3.53906 -0.79688,-0.73436 -1.46094,-1.74998 -1.99219,-3.04688 -0.51563,-1.29685 -0.77344,-2.95309 -0.77344,-4.96875 0,-2.90622 0.36719,-5.03121 1.10156,-6.375 0.75,-1.34371 1.95313,-2.39058 3.60938,-3.14062 1.65624,-0.76559 3.65624,-1.1484 6,-1.14844 2.56249,4e-5 4.74217,0.4141 6.53906,1.24219 1.81248,0.82816 3.00779,1.87503 3.58594,3.14062 0.59373,1.25004 0.8906,3.38285 0.89062,6.39844 l 0,1.5"
       inkscape:connector-curvature="0" /><path
       id="path3124"
       style="fill:#ffffff;fill-opacity:1;stroke:#000000;stroke-width:2;stroke-miterlimit:4;stroke-opacity:1;stroke-dasharray:none"
       d="m 212.32812,109.99089 0,7.59375 -5.85937,0 0,30.35156 -9.86719,0 0,-30.35156 -5.83594,0 0,-7.59375 21.5625,0"
       inkscape:connector-curvature="0" /><path
       id="path3126"
       style="fill:#ffffff;fill-opacity:1;stroke:#000000;stroke-width:2;stroke-miterlimit:4;stroke-opacity:1;stroke-dasharray:none"
       d="m 224.04687,122.22526 -9.46875,0 c 0.0312,-3.32809 0.3125,-5.75778 0.84375,-7.28906 0.53125,-1.53122 1.67969,-2.86715 3.44532,-4.00781 1.78124,-1.15622 4.04686,-1.73434 6.79687,-1.73438 1.98436,4e-5 3.71874,0.31254 5.20313,0.9375 1.48435,0.62504 2.66404,1.50004 3.53906,2.625 0.87498,1.10941 1.5156,2.31253 1.92187,3.60938 0.40623,1.2969 0.60936,3.32815 0.60938,6.09375 l 0,4.64062 c -2e-5,2.1094 -0.19534,3.80471 -0.58594,5.08594 -0.39065,1.28126 -1.24221,2.40626 -2.55469,3.375 -1.31251,0.96876 -2.85158,1.45313 -4.61718,1.45312 -2.29689,1e-5 -4.00783,-0.89842 -5.13282,-2.69531 l 0,4.07813 -8.83593,0 0,-10.42969 8.625,0 c 0.0312,1.43752 0.54686,2.15627 1.54687,2.15625 0.78124,2e-5 1.27343,-0.31248 1.47656,-0.9375 0.21874,-0.64061 0.32812,-2.19529 0.32813,-4.66406 l 0,-6.30469 c -1e-5,-1.39059 -0.10158,-2.32028 -0.30469,-2.78906 -0.18751,-0.48435 -0.57032,-0.72653 -1.14844,-0.72657 -0.71876,4e-5 -1.17969,0.32035 -1.38281,0.96094 -0.20313,0.62503 -0.3047,2.04691 -0.30469,4.26563 l 0,2.29687 m 0,18.11719 0,7.59375 -8.83593,0 0,-7.59375 8.83593,0"
       inkscape:connector-curvature="0" /></g></g></svg>
