<?xml version="1.0" encoding="UTF-8" standalone="no"?>
<svg
   xmlns:dc="http://purl.org/dc/elements/1.1/"
   xmlns:cc="http://creativecommons.org/ns#"
   xmlns:rdf="http://www.w3.org/1999/02/22-rdf-syntax-ns#"
   xmlns:svg="http://www.w3.org/2000/svg"
   xmlns="http://www.w3.org/2000/svg"
   xmlns:xlink="http://www.w3.org/1999/xlink"
   xmlns:sodipodi="http://sodipodi.sourceforge.net/DTD/sodipodi-0.dtd"
   xmlns:inkscape="http://www.inkscape.org/namespaces/inkscape"
   viewBox="-0.2 -1 379 334"
   id="svg5051"
   version="1.1"
   inkscape:version="0.48.2 r9819"
   width="100%"
   height="100%"
   sodipodi:docname="octocat-e-neuman-try2.svg">
  <metadata
     id="metadata5073">
    <rdf:RDF>
      <cc:Work
         rdf:about="">
        <dc:format>image/svg+xml</dc:format>
        <dc:type
           rdf:resource="http://purl.org/dc/dcmitype/StillImage" />
        <dc:title></dc:title>
      </cc:Work>
    </rdf:RDF>
  </metadata>
  <defs
     id="defs5071">
    <inkscape:path-effect
       effect="spiro"
       id="path-effect7585"
       is_visible="true" />
    <inkscape:path-effect
       effect="spiro"
       id="path-effect7581"
       is_visible="true" />
    <inkscape:path-effect
       effect="spiro"
       id="path-effect7577"
       is_visible="true" />
    <inkscape:path-effect
       effect="spiro"
       id="path-effect7573"
       is_visible="true" />
    <inkscape:path-effect
       effect="spiro"
       id="path-effect7569"
       is_visible="true" />
    <linearGradient
       id="linearGradient7545">
      <stop
         style="stop-color:#ffffff;stop-opacity:1;"
         offset="0"
         id="stop7547" />
      <stop
         style="stop-color:#b2cbc0;stop-opacity:0;"
         offset="1"
         id="stop7549" />
    </linearGradient>
    <linearGradient
       id="linearGradient7519">
      <stop
         style="stop-color:#ffffff;stop-opacity:1;"
         offset="0"
         id="stop7521" />
      <stop
         style="stop-color:#f4cbb2;stop-opacity:0;"
         offset="1"
         id="stop7523" />
    </linearGradient>
    <linearGradient
       id="linearGradient7486">
      <stop
         style="stop-color:#ffffff;stop-opacity:1;"
         offset="0"
         id="stop7488" />
      <stop
         style="stop-color:#f4cbb2;stop-opacity:0;"
         offset="1"
         id="stop7490" />
    </linearGradient>
    <radialGradient
       inkscape:collect="always"
       xlink:href="#linearGradient7486"
       id="radialGradient7492"
       cx="188.86917"
       cy="147.4547"
       fx="188.86917"
       fy="147.4547"
       r="4.401"
       gradientUnits="userSpaceOnUse"
       gradientTransform="matrix(1.1989266,0.18419797,-0.14285188,1.0669396,-16.323974,-44.604121)" />
    <radialGradient
       inkscape:collect="always"
       xlink:href="#linearGradient7486"
       id="radialGradient7496"
       gradientUnits="userSpaceOnUse"
       gradientTransform="matrix(1.258284,-0.05373145,0.06185306,1.2484019,-57.719477,-26.42405)"
       cx="188.86917"
       cy="147.4547"
       fx="188.86917"
       fy="147.4547"
       r="4.401" />
    <radialGradient
       inkscape:collect="always"
       xlink:href="#linearGradient7545"
       id="radialGradient7561"
       cx="201.32912"
       cy="98.437668"
       fx="201.32912"
       fy="98.437668"
       r="9.7740965"
       gradientTransform="matrix(1.3917837,0.15951554,-0.49011184,1.5811972,-28.134721,-91.947767)"
       gradientUnits="userSpaceOnUse" />
    <radialGradient
       inkscape:collect="always"
       xlink:href="#linearGradient7486"
       id="radialGradient7852"
       gradientUnits="userSpaceOnUse"
       gradientTransform="matrix(1.5538283,0.24641301,-0.19623199,1.057664,-75.482817,-54.986889)"
       cx="188.86917"
       cy="147.4547"
       fx="188.86917"
       fy="147.4547"
       r="4.401" />
  </defs>
  <sodipodi:namedview
     pagecolor="#ffffff"
     bordercolor="#666666"
     borderopacity="1"
     objecttolerance="10"
     gridtolerance="10"
     guidetolerance="10"
     inkscape:pageopacity="0"
     inkscape:pageshadow="2"
     inkscape:window-width="1440"
     inkscape:window-height="779"
     id="namedview5069"
     showgrid="false"
     inkscape:zoom="1.5629183"
     inkscape:cx="238.16927"
     inkscape:cy="173.0623"
     inkscape:window-x="0"
     inkscape:window-y="0"
     inkscape:window-maximized="0"
     inkscape:current-layer="svg5051" />
  <g
     id="g8177"
     transform="translate(-0.21409,0.5398672)">
    <path
       d="m 296.94,295.43 c 0,20.533 -47.56,37.176 -106.22,37.176 -58.67,0 -106.23,-16.643 -106.23,-37.176 0,-20.533 47.558,-37.18 106.23,-37.18 58.66,0 106.22,16.65 106.22,37.18 z"
       id="puddle"
       inkscape:connector-curvature="0"
       style="fill:#9cdaf1" />
    <path
       style="fill:#7dbbe6"
       id="path8140"
       d="m 161.85,331.22 v -26.5 c 0,-3.422 -0.619,-6.284 -1.653,-8.701 6.853,5.322 7.316,18.695 7.316,18.695 v 17.004 c 6.166,0.481 12.534,0.773 19.053,0.861 l -0.172,-16.92 c -0.944,-23.13 -20.769,-25.961 -20.769,-25.961 -7.245,-1.645 -7.137,1.991 -6.409,4.34 -7.108,-12.122 -26.158,-10.556 -26.158,-10.556 -6.611,2.357 -0.475,6.607 -0.475,6.607 10.387,3.775 11.33,15.105 11.33,15.105 v 23.622 c 5.72,0.98 11.71,1.79 17.94,2.4 z"
       inkscape:connector-curvature="0" />
    <path
       style="fill:#7dbbe6"
       id="path8142"
       d="m 245.4,283.48 c 0,0 -19.053,-1.566 -26.16,10.559 0.728,-2.35 0.839,-5.989 -6.408,-4.343 0,0 -19.824,2.832 -20.768,25.961 l -0.174,16.946 c 6.509,-0.025 12.876,-0.254 19.054,-0.671 v -17.219 c 0,0 0.465,-13.373 7.316,-18.695 -1.034,2.417 -1.653,5.278 -1.653,8.701 v 26.775 c 6.214,-0.544 12.211,-1.279 17.937,-2.188 v -24.113 c 0,0 0.944,-11.33 11.33,-15.105 0,-0.01 6.13,-4.26 -0.48,-6.62 z"
       inkscape:connector-curvature="0" />
    <path
       d="m 69.369,186.12 -3.066,10.683 c 0,0 -0.8,3.861 2.84,4.546 3.8,-0.074 3.486,-3.627 3.223,-4.781 z"
       id="drop"
       inkscape:connector-curvature="0"
       style="fill:#9cdaf1" />
  </g>
  <path
     id="cat"
     d="m 380.54162,152.23747 0.35943,-1.3706 c -30.75198,-8.01319 -76.67441,-9.91558 -96.03462,-10.22574 3.83142,-11.24923 5.54375,-8.34842 6.38892,-23.01709 1.21217,-21.038112 -2.5157,-5.8598 -2.38209,-22.579526 3.77895,-6.582287 19.606,-18.416145 28.23396,-51.209726 0,0 -26.52924,-15.381884 -61.60405,7.804957 -11.8663,-5.962941 -43.15426,-17.779168 -56.86352,-18.569062 -15.08398,-0.869102 -54.36311,0.556435 -67.20742,7.83858 -20.0306,-21.15123 -56.342041,-13.790866 -56.342041,-13.790866 -3.476488,26.109525 22.204542,48.53007 25.089341,52.438461 -8.097534,14.848362 -4.34697,0.676293 -8.023134,11.102542 -4.874128,13.82389 0.06666,25.85796 3.478492,37.5025 -19.437854,-1.83114 -62.21454,-3.33096 -92.5604344,0.93955 l 0.1956448,1.40257 c 30.5287236,-4.29704 73.4954646,-2.72316 92.8131346,-0.8749 0.760415,2.41373 1.627745,4.76251 2.620303,7.04138 -19.180796,-0.48612 -64.012162,0.0703 -95.8504457,7.10351 l 0.3081291,1.38001 c 32.0896116,-7.08387 77.2009986,-7.56303 96.1939746,-7.05066 10.210476,21.98172 19.969606,37.05231 59.841876,43.68883 -5.91503,3.49855 -11.81807,12.11481 -14.17607,23.13981 -7.773,3.718 -32.379,12.793 -47.142,-12.599 0,0 -8.264,-15.109 -24.082,-16.292 0,0 -15.344,-0.235 -1.059,9.562 0,0 10.267,4.838 17.351,23.019 0,0 9.241,31.01 53.835,21.061 l 0,32.032 c 0,0 -0.943,11.33 -11.33,15.105 0,0 -6.137,4.249 0.475,6.606 0,0 28.792,2.361 28.792,-21.238 l 0,-34.929 c 0,0 -1.142,-13.852 5.663,-18.667 l 0,57.371 c 0,0 -0.47,13.688 -7.551,18.881 0,0 -4.723,8.494 5.663,6.137 0,0 19.824,-2.832 20.769,-25.961 l 0.449,-58.06 4.765,0 0.453,58.06 c 0.943,23.129 20.768,25.961 20.768,25.961 10.383,2.357 5.663,-6.137 5.663,-6.137 -7.08,-5.193 -7.551,-18.881 -7.551,-18.881 l 0,-56.876 c 6.801,5.296 5.663,18.171 5.663,18.171 l 0,34.929 c 0,23.6 28.793,21.238 28.793,21.238 6.606,-2.357 0.474,-6.606 0.474,-6.606 -10.386,-3.775 -11.33,-15.105 -11.33,-15.105 l 0,-45.786 c 0,-17.854 -7.62686,-25.16409 -14.67959,-30.56973 43.0325,-1.77762 52.85651,-22.92915 61.05965,-35.33191 18.71223,1.59501 66.30874,5.82155 98.04686,16.78134 l 0.46159,-1.33566 c -31.55647,-10.89624 -78.92701,-15.16785 -97.82686,-16.80973 1.02145,-2.11675 1.93409,-4.32691 2.76262,-6.60703 19.26415,0.30863 65.34037,2.1668 96.20907,10.20574 z"
     inkscape:connector-curvature="0"
     sodipodi:nodetypes="cccscccscccsccccccccccccccccccsccccccccccccccscccscccccccc" />
  <path
     style="fill:#ad5c51;fill-opacity:1;stroke:none"
     d="m 208.81781,102.39537 c -1.5494,-1.21662 0.90206,-5.709165 2.26921,-6.011026 2.34843,-0.518563 11.94018,-0.679021 17.6467,-0.1266 5.70654,0.552438 5.77965,1.521968 8.27158,2.407409 2.49192,0.885446 6.84252,6.462447 5.83677,7.129947 -1.00571,0.6675 -0.76371,-0.25681 -2.89001,-1.88979 -2.12626,-1.63297 -4.11433,-2.61874 -7.74019,-3.2681 -2.56387,-0.45916 -7.06204,-0.32563 -10.79477,0.57109 -3.76095,0.90352 -11.04991,2.40368 -12.59929,1.18707 z"
     id="path6748"
     inkscape:connector-curvature="0"
     sodipodi:nodetypes="zsssssssz" />
  <path
     style="fill:#ad5c51;fill-opacity:1;stroke:none"
     d="m 171.06744,104.14185 c 2.59706,-0.16113 -0.46958,-6.602257 -3.50158,-11.921651 -4.90103,-8.598445 -19.31645,-6.110566 -27.34488,-3.371513 -8.02844,2.739052 -14.98941,13.003254 -12.99098,14.402244 1.99844,1.39899 9.26528,-9.655968 13.56189,-10.95015 5.75899,-1.734653 12.52032,-4.798671 19.48531,-1.592222 6.96499,3.206451 8.19318,13.594432 10.79024,13.433292 z"
     id="path6746"
     inkscape:connector-curvature="0"
     sodipodi:nodetypes="zszzszz" />
  <path
     sodipodi:nodetypes="cssscccc"
     style="fill:#f4cbb2"
     inkscape:connector-curvature="0"
     d="m 269.46465,98.225519 c 8.73466,8.880141 7.5448,19.273041 6.9189,30.136021 -2.92235,50.71988 -40.81085,55.91612 -87.44651,53.22909 -46.64364,-2.68749 -84.04427,-17.88909 -81.44738,-62.96034 0.62176,-10.7911 6.51424,-20.504235 16.09524,-28.295015 24.12498,-22.031764 41.25388,-16.164885 70.40653,-14.485182 29.0221,1.668175 55.05673,-0.269089 69.46851,14.370147 z"
     id="path7528" />
  <path
     style="fill:url(#radialGradient7561);fill-opacity:1;stroke:none"
     d="m 188.8561,87.9375 c -0.88318,1.712672 -1.61895,3.510959 -2.13996,5.40625 -3.06576,11.15232 1.98199,20.70402 11.23479,21.3125 9.25281,0.60848 19.2255,-7.94143 22.29126,-19.09375 0.71215,-2.590646 0.94402,-5.081854 0.83221,-7.40625 -10.40719,0.06663 -21.18476,0.04182 -32.2183,-0.21875 z"
     id="face"
     inkscape:connector-curvature="0" />
  <circle
     style="opacity:0.96728976000000000;fill:url(#radialGradient7492);fill-opacity:1"
     sodipodi:ry="4.401"
     sodipodi:rx="4.401"
     sodipodi:cy="148.56"
     sodipodi:cx="188.5"
     r="4.401"
     cy="148.56"
     cx="188.5"
     id="circle7484"
     transform="matrix(2.6254587,3.3694361,-3.2928953,1.8102262,221.50807,-746.42958)" />
  <g
     id="g7433"
     transform="matrix(0.85205082,0,0,0.59221576,29.07053,44.111233)">
    <path
       style="fill:#f7fafa;fill-opacity:1"
       id="path7400"
       d="m 164.07465,124.06823 c -0.59643,13.97083 -8.94679,24.68229 -18.65069,23.92769 -9.70391,-0.75461 -17.08746,-12.68958 -16.49103,-26.66041 0.59634,-13.96883 8.94653,-24.676305 18.65043,-23.921702 9.70348,0.764587 17.08754,12.687582 16.49129,26.654422 z"
       inkscape:connector-curvature="0"
       sodipodi:nodetypes="ssscs" />
    <path
       id="path7396"
       d="m 158.43035,123.94984 c -0.39757,9.31256 -5.97103,16.45069 -12.43431,15.94808 -6.46328,-0.5026 -11.3914,-8.45736 -10.99384,-17.76992 0.39769,-9.31555 5.96633,-16.45806 12.4336,-15.95514 6.45929,0.50229 11.38837,8.45813 10.99072,17.77268 z"
       style="fill:#ad5c51"
       inkscape:connector-curvature="0"
       sodipodi:nodetypes="cssscc" />
  </g>
  <g
     id="g7429"
     transform="matrix(0.85199038,0,0,0.59224716,25.221862,47.385921)">
    <path
       style="fill:#f7fafa;fill-opacity:1"
       id="eyes"
       d="m 246.12152,134.22596 c -0.60741,13.97083 -8.96666,24.69335 -18.67056,23.95238 -9.70391,-0.74096 -17.07856,-12.66489 -16.47116,-26.63572 0.60732,-13.96883 8.96639,-24.68735 18.6703,-23.94639 9.70347,0.75096 17.07865,12.6629 16.47142,26.62973 z"
       inkscape:connector-curvature="0"
       sodipodi:nodetypes="ssscs" />
    <path
       id="pupils"
       d="m 240.46698,134.11473 c -0.40488,9.31255 -5.98426,16.45806 -12.44754,15.96454 -6.46328,-0.49352 -11.38548,-8.44091 -10.9806,-17.75346 0.40501,-9.31555 5.97958,-16.46543 12.44685,-15.97161 6.45929,0.49322 11.38244,8.44168 10.97747,17.75623 z"
       style="fill:#ad5c51"
       inkscape:connector-curvature="0"
       sodipodi:nodetypes="cssscc" />
  </g>
  <path
     id="octo"
     d="m 80.641,179.82 c 0,1.174 -1.376,2.122 -3.07,2.122 -1.693,0 -3.07,-0.948 -3.07,-2.122 0,-1.175 1.377,-2.127 3.07,-2.127 1.694,0 3.07,0.95 3.07,2.13 z m 8.5,4.72 c 0,1.174 -1.376,2.122 -3.07,2.122 -1.693,0 -3.07,-0.948 -3.07,-2.122 0,-1.175 1.377,-2.127 3.07,-2.127 1.694,0 3.07,0.95 3.07,2.13 z m 5.193,6.14 c 0,1.174 -1.376,2.122 -3.07,2.122 -1.693,0 -3.07,-0.948 -3.07,-2.122 0,-1.175 1.377,-2.127 3.07,-2.127 1.694,0 3.07,0.95 3.07,2.13 z m 4.72,7.08 c 0,1.174 -1.376,2.122 -3.07,2.122 -1.693,0 -3.07,-0.948 -3.07,-2.122 0,-1.175 1.377,-2.127 3.07,-2.127 1.694,0 3.07,0.95 3.07,2.13 z m 5.188,6.61 c 0,1.174 -1.376,2.122 -3.07,2.122 -1.693,0 -3.07,-0.948 -3.07,-2.122 0,-1.175 1.377,-2.127 3.07,-2.127 1.694,0 3.07,0.95 3.07,2.13 z m 7.09,5.66 c 0,1.174 -1.376,2.122 -3.07,2.122 -1.693,0 -3.07,-0.948 -3.07,-2.122 0,-1.175 1.377,-2.127 3.07,-2.127 1.694,0 3.07,0.95 3.07,2.13 z m 9.91,3.78 c 0,1.174 -1.376,2.122 -3.07,2.122 -1.693,0 -3.07,-0.948 -3.07,-2.122 0,-1.175 1.377,-2.127 3.07,-2.127 1.694,0 3.07,0.95 3.07,2.13 z m 9.87,0 c 0,1.174 -1.376,2.122 -3.07,2.122 -1.693,0 -3.07,-0.948 -3.07,-2.122 0,-1.175 1.377,-2.127 3.07,-2.127 1.694,0 3.07,0.95 3.07,2.13 z m 10.01,-1.64 c 0,1.174 -1.376,2.122 -3.07,2.122 -1.693,0 -3.07,-0.948 -3.07,-2.122 0,-1.175 1.377,-2.127 3.07,-2.127 1.694,0 3.07,0.95 3.07,2.13 z"
     inkscape:connector-curvature="0"
     style="fill:#c3e4d8"
     sodipodi:nodetypes="cssscccssscccssscccssscccssscccssscccssscccssscccssssc" />
  <path
     id="path7409"
     d="m 203.93198,162.07741 c -4.69815,3.32593 -11.79932,5.00995 -19.18977,4.27322 -7.24427,-0.72217 -13.46933,-3.64627 -16.88369,-7.65026 6.2858,0.70788 7.99194,1.1799 17.86439,2.16404 9.91017,0.98791 11.77245,0.83378 18.20907,1.213 z"
     style="fill:#ffffff;fill-opacity:1"
     inkscape:connector-curvature="0"
     sodipodi:nodetypes="cscsc" />
  <path
     style="fill:#000000;fill-opacity:1;stroke:none"
     d="m 188.37009,161.4706 -0.67188,5.28546 c 0,0 0.59168,0.27115 2.86276,-0.0626 2.28561,-0.33587 3.16659,-0.57385 3.16659,-0.57385 l -0.91001,-4.29882 z"
     id="path7411"
     inkscape:connector-curvature="0"
     sodipodi:nodetypes="ccsccc" />
  <path
     inkscape:connector-curvature="0"
     style="fill:#ad5c51"
     d="m 208.69642,159.77607 c -8.75455,1.34049 -13.69117,-1.65411 -22.52018,-2.80324 -8.50527,-1.10703 -14.35889,0.98418 -21.83274,-2.43333 -0.55458,-0.37799 -1.26683,-0.70578 -2.00151,-0.87974 -1.10502,-0.26015 -2.01885,-0.0951 -2.6937,0.26006 -0.3018,0.1589 -0.55205,0.33696 -0.70092,0.59389 -0.0659,0.11199 -0.1234,0.23283 -0.15378,0.36164 -0.008,0.0297 -0.0511,0.0515 -0.0567,0.0819 -0.008,0.0513 -0.009,0.10369 -0.013,0.15674 -0.008,0.0829 -0.002,0.18762 0.005,0.27293 -0.17045,7.27578 12.79005,13.37096 24.59253,14.90714 11.94683,1.55497 26.51727,-0.71328 29.53394,-7.89773 0.22728,-0.54639 0.0698,-1.05463 -0.29105,-1.47879 -0.0366,-0.0638 -0.0619,-0.12139 -0.1079,-0.18131 -0.0608,-0.0574 -0.11808,-0.11754 -0.18881,-0.17034 -0.70251,-0.69081 -2.05827,-1.02362 -3.57163,-0.7901 z m -6.11638,3.16782 c -4.53285,2.77539 -11.32404,4.01302 -18.34713,3.09891 -6.88415,-0.89602 -12.75835,-3.70377 -15.93709,-7.36702 5.97187,0.84938 7.58779,1.32749 16.96949,2.5486 9.41752,1.22575 11.19336,1.15551 17.31473,1.71951 z"
     id="mouth"
     sodipodi:nodetypes="csccccccccscccccccscsc" />
  <circle
     transform="matrix(2.7287466,-2.3853347,2.2527875,2.4482581,-704.23375,236.85431)"
     id="circle7494"
     cx="188.5"
     cy="148.56"
     r="4.401"
     sodipodi:cx="188.5"
     sodipodi:cy="148.56"
     sodipodi:rx="4.401"
     sodipodi:ry="4.401"
     style="opacity:0.96728976000000000;fill:url(#radialGradient7496);fill-opacity:1" />
  <path
     style="fill:#adaeb3;fill-opacity:1;stroke:none"
     d="m 159.91594,149.67493 c -2.57783,-1.60567 -6.22043,-0.4985 -8.1311,2.46186 -1.91071,2.9604 -1.37645,6.66924 1.20137,8.27491 0.33301,0.20743 0.68564,0.36797 1.04804,0.48702 -1.78046,-1.82857 -1.96985,-4.97345 -0.306,-7.55141 1.66386,-2.57794 4.64013,-3.751 7.08306,-2.94886 -0.26413,-0.27128 -0.56236,-0.51609 -0.89537,-0.72352 z"
     id="path7422"
     inkscape:connector-curvature="0"
     inkscape:transform-center-x="-33.702753"
     inkscape:transform-center-y="21.011925"
     sodipodi:nodetypes="csscscc" />
  <path
     inkscape:connector-curvature="0"
     id="path7427"
     d="m 213.92012,157.18993 c 2.89277,-0.98948 6.17202,0.89737 7.32228,4.20255 1.15029,3.30517 -0.25762,6.79526 -3.15039,7.78471 -0.37369,0.12783 -0.75526,0.20566 -1.13637,0.24097 2.17026,-1.38357 3.1076,-4.40153 2.10592,-7.27973 -1.0017,-2.8782 -3.61679,-4.68104 -6.18593,-4.44348 0.32193,-0.20529 0.67073,-0.37723 1.04449,-0.50499 z"
     style="fill:#adaeb3;fill-opacity:1;stroke:none"
     sodipodi:nodetypes="csccsccc" />
  <circle
     transform="matrix(0.33831172,0.0315282,-0.019127,0.33288035,63.941077,82.660011)"
     id="circle7454"
     cx="188.5"
     cy="148.56"
     r="4.401"
     sodipodi:cx="188.5"
     sodipodi:cy="148.56"
     sodipodi:rx="4.401"
     sodipodi:ry="4.401"
     style="opacity:0.63084112;fill:#ad5c51" />
  <circle
     style="opacity:0.35981308;fill:#ad5c51"
     sodipodi:ry="4.401"
     sodipodi:rx="4.401"
     sodipodi:cy="148.56"
     sodipodi:cx="188.5"
     r="4.401"
     cy="148.56"
     cx="188.5"
     id="circle7456"
     transform="matrix(0.33831172,0.0315282,-0.019127,0.33288035,120.24292,62.453522)" />
  <circle
     transform="matrix(0.33831172,0.0315282,-0.019127,0.33288035,119.12034,71.175126)"
     id="circle7458"
     cx="188.5"
     cy="148.56"
     r="4.401"
     sodipodi:cx="188.5"
     sodipodi:cy="148.56"
     sodipodi:rx="4.401"
     sodipodi:ry="4.401"
     style="opacity:0.74299065;fill:#ad5c51" />
  <circle
     style="opacity:0.74299065;fill:#ad5c51"
     sodipodi:ry="4.401"
     sodipodi:rx="4.401"
     sodipodi:cy="148.56"
     sodipodi:cx="188.5"
     r="4.401"
     cy="148.56"
     cx="188.5"
     id="circle7460"
     transform="matrix(0.33831172,0.0315282,-0.019127,0.33288035,135.95908,74.370169)" />
  <circle
     transform="matrix(0.33831172,0.0315282,-0.019127,0.33288035,134.92285,67.721025)"
     id="circle7462"
     cx="188.5"
     cy="148.56"
     r="4.401"
     sodipodi:cx="188.5"
     sodipodi:cy="148.56"
     sodipodi:rx="4.401"
     sodipodi:ry="4.401"
     style="opacity:0.30841121;fill:#ad5c51" />
  <circle
     style="opacity:0.4953271;fill:#ad5c51"
     sodipodi:ry="4.401"
     sodipodi:rx="4.401"
     sodipodi:cy="148.56"
     sodipodi:cx="188.5"
     r="4.401"
     cy="148.56"
     cx="188.5"
     id="circle7464"
     transform="matrix(0.33831172,0.0315282,-0.019127,0.33288035,140.33227,62.539874)" />
  <circle
     transform="matrix(0.33831172,0.0315282,-0.019127,0.33288035,116.96152,65.389508)"
     id="circle7466"
     cx="188.5"
     cy="148.56"
     r="4.401"
     sodipodi:cx="188.5"
     sodipodi:cy="148.56"
     sodipodi:rx="4.401"
     sodipodi:ry="4.401"
     style="opacity:0.70093458;fill:#ad5c51" />
  <circle
     style="opacity:0.52336449;fill:#ad5c51"
     sodipodi:ry="4.401"
     sodipodi:rx="4.401"
     sodipodi:cy="148.56"
     sodipodi:cx="188.5"
     r="4.401"
     cy="148.56"
     cx="188.5"
     id="circle7468"
     transform="matrix(0.33831172,0.0315282,-0.019127,0.33288035,112.96152,69.389508)" />
  <circle
     transform="matrix(0.33831172,0.0315282,-0.019127,0.33288035,114.51587,57.990976)"
     id="circle7470"
     cx="188.5"
     cy="148.56"
     r="4.401"
     sodipodi:cx="188.5"
     sodipodi:cy="148.56"
     sodipodi:rx="4.401"
     sodipodi:ry="4.401"
     style="opacity:0.29906542;fill:#ad5c51" />
  <circle
     style="opacity:0.34579439;fill:#ad5c51"
     sodipodi:ry="4.401"
     sodipodi:rx="4.401"
     sodipodi:cy="148.56"
     sodipodi:cx="188.5"
     r="4.401"
     cy="148.56"
     cx="188.5"
     id="circle7472"
     transform="matrix(0.33831172,0.0315282,-0.019127,0.33288035,120.21514,55.05499)" />
  <circle
     transform="matrix(0.33831172,0.0315282,-0.019127,0.33288035,114.34317,74.743364)"
     id="circle7474"
     cx="188.5"
     cy="148.56"
     r="4.401"
     sodipodi:cx="188.5"
     sodipodi:cy="148.56"
     sodipodi:rx="4.401"
     sodipodi:ry="4.401"
     style="opacity:0.20560748;fill:#ad5c51" />
  <circle
     transform="matrix(0.33831172,0.0315282,-0.019127,0.33288035,147.0122,87.150342)"
     id="circle7476"
     cx="188.5"
     cy="148.56"
     r="4.401"
     sodipodi:cx="188.5"
     sodipodi:cy="148.56"
     sodipodi:rx="4.401"
     sodipodi:ry="4.401"
     style="opacity:0.64953271;fill:#ad5c51" />
  <circle
     style="opacity:0.68224299;fill:#ad5c51"
     sodipodi:ry="4.401"
     sodipodi:rx="4.401"
     sodipodi:cy="148.56"
     sodipodi:cx="188.5"
     r="4.401"
     cy="148.56"
     cx="188.5"
     id="circle7478"
     transform="matrix(0.33831172,0.0315282,-0.019127,0.33288035,142.86728,78.51509)" />
  <circle
     transform="matrix(0.33831172,0.0315282,-0.019127,0.33288035,102.79971,79.20591)"
     id="circle7480"
     cx="188.5"
     cy="148.56"
     r="4.401"
     sodipodi:cx="188.5"
     sodipodi:cy="148.56"
     sodipodi:rx="4.401"
     sodipodi:ry="4.401"
     style="opacity:0.68224302;fill:#ad5c51" />
  <circle
     transform="matrix(0.33831172,0.0315282,-0.019127,0.33288035,187.59788,88.359278)"
     id="circle7482"
     cx="188.5"
     cy="148.56"
     r="4.401"
     sodipodi:cx="188.5"
     sodipodi:cy="148.56"
     sodipodi:rx="4.401"
     sodipodi:ry="4.401"
     style="opacity:0.35981314;fill:#ad5c51" />
  <g
     id="g7854"
     transform="matrix(0.91591497,0,0,0.91591497,15.788259,13.979659)">
    <path
       sodipodi:nodetypes="cczcczcscsscssscscccssscscsscssscscscsccsccsccc"
       inkscape:connector-curvature="0"
       id="path6236"
       d="m 90.690854,150.7961 -3.171695,-14.76757 c 0,0 -9.539007,-5.22934 -12.931747,-10.04761 -3.39274,-4.81827 -7.370791,-12.34068 -6.889109,-18.52536 1.965654,0.005 8.280043,-2.7915 8.280043,-2.7915 0,0 -1.021178,-14.705367 1.979737,-21.2869 3.000915,-6.581533 15.216806,-15.918583 15.216806,-15.918583 0,0 -5.129572,-2.869225 0.598583,-18.227273 5.728156,-15.358046 26.188388,-21.098521 26.188388,-21.098521 0,0 4.91394,-2.879887 -6.92991,-2.439174 -11.84385,0.440713 -0.1817,-6.269037 6.88391,-5.909557 7.06559,0.35948 17.42652,4.538165 17.42652,4.538165 0,0 6.43081,-8.019206 13.73388,-11.299189 7.30308,-3.2799832 11.22113,0.04926 27.84322,-1.191652 16.62211,-1.240906 21.26465,0.03859 29.22438,-4.2512784 7.95973,-4.2898734 2.19764,11.5880954 2.19764,11.5880954 0,0 2.74045,3.269324 18.04925,4.048198 15.3088,0.778875 18.77376,1.998462 18.77376,1.998462 l -5.60453,4.409698 9.04762,6.198464 c 0,0 11.74208,1.119058 16.90557,3.468361 5.16351,2.349304 14.88224,15.766455 23.88636,26.776094 14.28693,17.469099 15.48135,25.295288 16.43291,37.87317 0.87286,11.5376 -6.33692,44.76664 -6.33692,44.76664 0,0 -7.61248,-3.2865 -13.39463,6.09995 -3.27331,5.31372 -8.69417,14.24324 -8.69417,14.24324 0,0 0.33712,-21.97151 -0.19589,-31.90996 -0.53302,-9.93846 -1.24015,-22.72122 -0.86698,-28.44038 0.37318,-5.71916 1.57263,-15.047825 1.57263,-15.047825 0,0 -10.14529,1.57043 -15.4445,1.300819 -5.2992,-0.26961 -19.0233,-7.227649 -26.60985,-8.656928 -7.58654,-1.429289 -7.83609,-6.658473 -13.79195,-5.918198 -5.95585,0.740283 -11.39075,2.550365 -11.39075,2.550365 0,0 -8.5606,-4.608736 -15.10525,-3.898416 -6.54465,0.710327 -16.169,3.350555 -16.169,3.350555 0,0 -15.4905,-7.04791 -22.42039,-9.487083 -6.92991,-2.439173 -10.78011,-6.808256 -10.78011,-6.808256 0,0 -3.31716,5.569375 -4.14343,9.178883 -0.8263,3.609499 -6.46475,8.539125 -6.46475,8.539125 l -1.74454,-9.478447 c 0,0 -4.22338,1.350073 -4.393,3.949688 -0.16963,2.599622 -1.61863,6.699095 -1.61863,6.699095 l -2.95607,-9.018442 c 0,0 -9.0114,20.407501 -9.73592,22.457236 -0.72449,2.049739 -7.35884,13.188499 -7.35884,13.188499 l -12.793762,14.99855 z"
       style="fill:#b94016;fill-opacity:1;stroke:none" />
    <g
       transform="matrix(0.85367827,0.52080074,-0.52080074,0.85367827,248.09181,-32.13958)"
       id="g7610">
      <path
         style="opacity:0.96728976;fill:#e55625;fill-opacity:1;stroke:none"
         d="m -38.03125,78.8125 c -6.773794,2.97121 -13.717995,6.091885 -19.072267,11.339906 -4.516684,5.038192 -6.299792,12.056144 -5.877144,18.708064 0.362201,1.76065 0.574734,1.72705 2.890326,1.17238 1.186363,-0.6047 2.372726,-1.2094 3.559089,-1.8141 -0.127339,-6.67791 0.811593,-13.804629 4.954343,-19.275652 3.671813,-4.617513 9.099062,-7.215293 13.984974,-10.299496 -0.148255,0.05169 -0.294572,0.108091 -0.439321,0.168898 z"
         id="path7563"
         inkscape:connector-curvature="0"
         sodipodi:nodetypes="cccccccc" />
      <path
         style="opacity:0.96728976;fill:#f5c0ae;fill-opacity:1;stroke:none"
         d="m -49.630339,85.762803 c -9.004451,3.31506 -13.149427,18.193897 -12.426336,23.694177 0.71962,-0.3302 1.323007,-1.4155 1.567987,-3.78542 0.24257,-2.34662 0.46251,-4.3134 3.573579,-11.439764 2.345,-5.37157 7.084041,-7.717396 7.28477,-8.468993 z"
         id="path7606"
         inkscape:connector-curvature="0"
         sodipodi:nodetypes="ccssc" />
    </g>
    <g
       id="g7614"
       transform="matrix(-0.62832945,0.52080074,0.38332292,0.85367827,57.57075,-24.13958)">
      <path
         sodipodi:nodetypes="cccccccc"
         inkscape:connector-curvature="0"
         id="path7616"
         d="m -38.03125,78.8125 c -6.773794,2.97121 -13.717995,6.091885 -19.072267,11.339906 -4.516684,5.038192 -6.299792,12.056144 -5.877144,18.708064 0.362201,1.76065 0.574734,1.72705 2.890326,1.17238 1.186363,-0.6047 2.372726,-1.2094 3.559089,-1.8141 -0.127339,-6.67791 0.811593,-13.804629 4.954343,-19.275652 3.671813,-4.617513 9.099062,-7.215293 13.984974,-10.299496 -0.148255,0.05169 -0.294572,0.108091 -0.439321,0.168898 z"
         style="opacity:0.96728976;fill:#e55625;fill-opacity:1;stroke:none" />
      <path
         sodipodi:nodetypes="ccssc"
         inkscape:connector-curvature="0"
         id="path7618"
         d="m -49.630339,85.762803 c -9.004451,3.31506 -13.149427,18.193897 -12.426336,23.694177 0.71962,-0.3302 1.323007,-1.4155 1.567987,-3.78542 0.24257,-2.34662 0.46251,-4.3134 3.573579,-11.439764 2.345,-5.37157 7.084041,-7.717396 7.28477,-8.468993 z"
         style="opacity:0.96728976;fill:#f5c0ae;fill-opacity:1;stroke:none" />
    </g>
    <g
       id="g7700"
       transform="matrix(0.85367827,-0.52080074,-0.52080074,-0.85367827,305.55007,124.60183)">
      <path
         sodipodi:nodetypes="cccccccc"
         inkscape:connector-curvature="0"
         id="path7702"
         d="m -38.03125,78.8125 c -6.773794,2.97121 -13.717995,6.091885 -19.072267,11.339906 -4.516684,5.038192 -6.299792,12.056144 -5.877144,18.708064 0.362201,1.76065 0.574734,1.72705 2.890326,1.17238 1.186363,-0.6047 2.372726,-1.2094 3.559089,-1.8141 -0.127339,-6.67791 0.811593,-13.804629 4.954343,-19.275652 3.671813,-4.617513 9.099062,-7.215293 13.984974,-10.299496 -0.148255,0.05169 -0.294572,0.108091 -0.439321,0.168898 z"
         style="opacity:0.96728976;fill:#e55625;fill-opacity:1;stroke:none" />
      <path
         sodipodi:nodetypes="ccssc"
         inkscape:connector-curvature="0"
         id="path7704"
         d="m -49.630339,85.762803 c -9.004451,3.31506 -13.149427,18.193897 -12.426336,23.694177 0.71962,-0.3302 1.323007,-1.4155 1.567987,-3.78542 0.24257,-2.34662 0.46251,-4.3134 3.573579,-11.439764 2.345,-5.37157 7.084041,-7.717396 7.28477,-8.468993 z"
         style="opacity:0.96728976;fill:#f5c0ae;fill-opacity:1;stroke:none" />
    </g>
    <g
       transform="matrix(0.94287907,-0.33313519,-0.33313519,-0.94287907,282.27861,142.4154)"
       id="g7706">
      <path
         style="opacity:0.96728976;fill:#e55625;fill-opacity:1;stroke:none"
         d="m -38.03125,78.8125 c -6.773794,2.97121 -13.717995,6.091885 -19.072267,11.339906 -4.516684,5.038192 -6.299792,12.056144 -5.877144,18.708064 0.362201,1.76065 0.574734,1.72705 2.890326,1.17238 1.186363,-0.6047 2.372726,-1.2094 3.559089,-1.8141 -0.127339,-6.67791 0.811593,-13.804629 4.954343,-19.275652 3.671813,-4.617513 9.099062,-7.215293 13.984974,-10.299496 -0.148255,0.05169 -0.294572,0.108091 -0.439321,0.168898 z"
         id="path7708"
         inkscape:connector-curvature="0"
         sodipodi:nodetypes="cccccccc" />
      <path
         style="opacity:0.96728976;fill:#f5c0ae;fill-opacity:1;stroke:none"
         d="m -49.630339,85.762803 c -9.004451,3.31506 -13.149427,18.193897 -12.426336,23.694177 0.71962,-0.3302 1.323007,-1.4155 1.567987,-3.78542 0.24257,-2.34662 0.46251,-4.3134 3.573579,-11.439764 2.345,-5.37157 7.084041,-7.717396 7.28477,-8.468993 z"
         id="path7710"
         inkscape:connector-curvature="0"
         sodipodi:nodetypes="ccssc" />
    </g>
    <g
       id="g7712"
       transform="matrix(0.97600559,-0.21774548,-0.21774548,-0.97600559,265.00219,151.32086)">
      <path
         sodipodi:nodetypes="cccccccc"
         inkscape:connector-curvature="0"
         id="path7714"
         d="m -38.03125,78.8125 c -6.773794,2.97121 -13.717995,6.091885 -19.072267,11.339906 -4.516684,5.038192 -6.299792,12.056144 -5.877144,18.708064 0.362201,1.76065 0.574734,1.72705 2.890326,1.17238 1.186363,-0.6047 2.372726,-1.2094 3.559089,-1.8141 -0.127339,-6.67791 0.811593,-13.804629 4.954343,-19.275652 3.671813,-4.617513 9.099062,-7.215293 13.984974,-10.299496 -0.148255,0.05169 -0.294572,0.108091 -0.439321,0.168898 z"
         style="opacity:0.96728976;fill:#e55625;fill-opacity:1;stroke:none" />
      <path
         sodipodi:nodetypes="ccssc"
         inkscape:connector-curvature="0"
         id="path7716"
         d="m -49.630339,85.762803 c -9.004451,3.31506 -13.149427,18.193897 -12.426336,23.694177 0.71962,-0.3302 1.323007,-1.4155 1.567987,-3.78542 0.24257,-2.34662 0.46251,-4.3134 3.573579,-11.439764 2.345,-5.37157 7.084041,-7.717396 7.28477,-8.468993 z"
         style="opacity:0.96728976;fill:#f5c0ae;fill-opacity:1;stroke:none" />
    </g>
    <g
       transform="matrix(0.14227302,-0.98982746,-0.98982746,-0.14227302,294.29343,-18.244706)"
       id="g7718">
      <path
         style="opacity:0.96728976;fill:#e55625;fill-opacity:1;stroke:none"
         d="m -38.03125,78.8125 c -6.773794,2.97121 -13.717995,6.091885 -19.072267,11.339906 -4.516684,5.038192 -6.299792,12.056144 -5.877144,18.708064 0.362201,1.76065 0.574734,1.72705 2.890326,1.17238 1.186363,-0.6047 2.372726,-1.2094 3.559089,-1.8141 -0.127339,-6.67791 0.811593,-13.804629 4.954343,-19.275652 3.671813,-4.617513 9.099062,-7.215293 13.984974,-10.299496 -0.148255,0.05169 -0.294572,0.108091 -0.439321,0.168898 z"
         id="path7720"
         inkscape:connector-curvature="0"
         sodipodi:nodetypes="cccccccc" />
      <path
         style="opacity:0.96728976;fill:#f5c0ae;fill-opacity:1;stroke:none"
         d="m -49.630339,85.762803 c -9.004451,3.31506 -13.149427,18.193897 -12.426336,23.694177 0.71962,-0.3302 1.323007,-1.4155 1.567987,-3.78542 0.24257,-2.34662 0.46251,-4.3134 3.573579,-11.439764 2.345,-5.37157 7.084041,-7.717396 7.28477,-8.468993 z"
         id="path7722"
         inkscape:connector-curvature="0"
         sodipodi:nodetypes="ccssc" />
    </g>
    <g
       id="g7724"
       transform="matrix(0.43293498,-0.90142516,-0.90142516,-0.43293498,330.68511,25.668946)">
      <path
         sodipodi:nodetypes="cccccccc"
         inkscape:connector-curvature="0"
         id="path7726"
         d="m -38.03125,78.8125 c -6.773794,2.97121 -13.717995,6.091885 -19.072267,11.339906 -4.516684,5.038192 -6.299792,12.056144 -5.877144,18.708064 0.362201,1.76065 0.574734,1.72705 2.890326,1.17238 1.186363,-0.6047 2.372726,-1.2094 3.559089,-1.8141 -0.127339,-6.67791 0.811593,-13.804629 4.954343,-19.275652 3.671813,-4.617513 9.099062,-7.215293 13.984974,-10.299496 -0.148255,0.05169 -0.294572,0.108091 -0.439321,0.168898 z"
         style="opacity:0.96728976;fill:#e55625;fill-opacity:1;stroke:none" />
      <path
         sodipodi:nodetypes="ccssc"
         inkscape:connector-curvature="0"
         id="path7728"
         d="m -49.630339,85.762803 c -9.004451,3.31506 -13.149427,18.193897 -12.426336,23.694177 0.71962,-0.3302 1.323007,-1.4155 1.567987,-3.78542 0.24257,-2.34662 0.46251,-4.3134 3.573579,-11.439764 2.345,-5.37157 7.084041,-7.717396 7.28477,-8.468993 z"
         style="opacity:0.96728976;fill:#f5c0ae;fill-opacity:1;stroke:none" />
    </g>
    <g
       transform="matrix(0.9968615,-0.07916538,-0.07916538,-0.9968615,242.67209,156.61682)"
       id="g7730">
      <path
         style="opacity:0.96728976;fill:#e55625;fill-opacity:1;stroke:none"
         d="m -38.03125,78.8125 c -6.773794,2.97121 -13.717995,6.091885 -19.072267,11.339906 -4.516684,5.038192 -6.299792,12.056144 -5.877144,18.708064 0.362201,1.76065 0.574734,1.72705 2.890326,1.17238 1.186363,-0.6047 2.372726,-1.2094 3.559089,-1.8141 -0.127339,-6.67791 0.811593,-13.804629 4.954343,-19.275652 3.671813,-4.617513 9.099062,-7.215293 13.984974,-10.299496 -0.148255,0.05169 -0.294572,0.108091 -0.439321,0.168898 z"
         id="path7732"
         inkscape:connector-curvature="0"
         sodipodi:nodetypes="cccccccc" />
      <path
         style="opacity:0.96728976;fill:#f5c0ae;fill-opacity:1;stroke:none"
         d="m -49.630339,85.762803 c -9.004451,3.31506 -13.149427,18.193897 -12.426336,23.694177 0.71962,-0.3302 1.323007,-1.4155 1.567987,-3.78542 0.24257,-2.34662 0.46251,-4.3134 3.573579,-11.439764 2.345,-5.37157 7.084041,-7.717396 7.28477,-8.468993 z"
         id="path7734"
         inkscape:connector-curvature="0"
         sodipodi:nodetypes="ccssc" />
    </g>
    <g
       id="g7736"
       transform="matrix(0.99886332,0.05416501,0.04766634,-1.1350449,222.78097,174.13008)">
      <path
         sodipodi:nodetypes="cccccccc"
         inkscape:connector-curvature="0"
         id="path7738"
         d="m -38.03125,78.8125 c -6.773794,2.97121 -13.717995,6.091885 -19.072267,11.339906 -4.516684,5.038192 -6.299792,12.056144 -5.877144,18.708064 0.362201,1.76065 0.574734,1.72705 2.890326,1.17238 1.186363,-0.6047 2.372726,-1.2094 3.559089,-1.8141 -0.127339,-6.67791 0.811593,-13.804629 4.954343,-19.275652 3.671813,-4.617513 9.099062,-7.215293 13.984974,-10.299496 -0.148255,0.05169 -0.294572,0.108091 -0.439321,0.168898 z"
         style="opacity:0.96728976;fill:#e55625;fill-opacity:1;stroke:none" />
      <path
         sodipodi:nodetypes="ccssc"
         inkscape:connector-curvature="0"
         id="path7740"
         d="m -49.630339,85.762803 c -9.004451,3.31506 -13.149427,18.193897 -12.426336,23.694177 0.71962,-0.3302 1.323007,-1.4155 1.567987,-3.78542 0.24257,-2.34662 0.46251,-4.3134 3.573579,-11.439764 2.345,-5.37157 7.084041,-7.717396 7.28477,-8.468993 z"
         style="opacity:0.96728976;fill:#f5c0ae;fill-opacity:1;stroke:none" />
    </g>
    <g
       id="g7742"
       transform="matrix(0.92535369,0.37910492,-0.37910492,0.92535369,242.28756,-41.998269)">
      <path
         sodipodi:nodetypes="cccccccc"
         inkscape:connector-curvature="0"
         id="path7744"
         d="m -38.03125,78.8125 c -6.773794,2.97121 -13.717995,6.091885 -19.072267,11.339906 -4.516684,5.038192 -6.299792,12.056144 -5.877144,18.708064 0.362201,1.76065 0.574734,1.72705 2.890326,1.17238 1.186363,-0.6047 2.372726,-1.2094 3.559089,-1.8141 -0.127339,-6.67791 0.811593,-13.804629 4.954343,-19.275652 3.671813,-4.617513 9.099062,-7.215293 13.984974,-10.299496 -0.148255,0.05169 -0.294572,0.108091 -0.439321,0.168898 z"
         style="opacity:0.96728976;fill:#e55625;fill-opacity:1;stroke:none" />
      <path
         sodipodi:nodetypes="ccssc"
         inkscape:connector-curvature="0"
         id="path7746"
         d="m -49.630339,85.762803 c -9.004451,3.31506 -13.149427,18.193897 -12.426336,23.694177 0.71962,-0.3302 1.323007,-1.4155 1.567987,-3.78542 0.24257,-2.34662 0.46251,-4.3134 3.573579,-11.439764 2.345,-5.37157 7.084041,-7.717396 7.28477,-8.468993 z"
         style="opacity:0.96728976;fill:#f5c0ae;fill-opacity:1;stroke:none" />
    </g>
    <g
       transform="matrix(0.95337488,0.30178856,-0.30178856,0.95337488,248.35871,-50.514684)"
       id="g7748">
      <path
         style="opacity:0.96728976;fill:#e55625;fill-opacity:1;stroke:none"
         d="m -38.03125,78.8125 c -6.773794,2.97121 -13.717995,6.091885 -19.072267,11.339906 -4.516684,5.038192 -6.299792,12.056144 -5.877144,18.708064 0.362201,1.76065 0.574734,1.72705 2.890326,1.17238 1.186363,-0.6047 2.372726,-1.2094 3.559089,-1.8141 -0.127339,-6.67791 0.811593,-13.804629 4.954343,-19.275652 3.671813,-4.617513 9.099062,-7.215293 13.984974,-10.299496 -0.148255,0.05169 -0.294572,0.108091 -0.439321,0.168898 z"
         id="path7750"
         inkscape:connector-curvature="0"
         sodipodi:nodetypes="cccccccc" />
      <path
         style="opacity:0.96728976;fill:#f5c0ae;fill-opacity:1;stroke:none"
         d="m -49.630339,85.762803 c -9.004451,3.31506 -13.149427,18.193897 -12.426336,23.694177 0.71962,-0.3302 1.323007,-1.4155 1.567987,-3.78542 0.24257,-2.34662 0.46251,-4.3134 3.573579,-11.439764 2.345,-5.37157 7.084041,-7.717396 7.28477,-8.468993 z"
         id="path7752"
         inkscape:connector-curvature="0"
         sodipodi:nodetypes="ccssc" />
    </g>
    <g
       transform="matrix(-0.6015425,0.79884079,-0.79884079,-0.6015425,341.84022,191.63588)"
       id="g7754">
      <path
         style="opacity:0.96728976;fill:#e55625;fill-opacity:1;stroke:none"
         d="m -38.03125,78.8125 c -6.773794,2.97121 -13.717995,6.091885 -19.072267,11.339906 -4.516684,5.038192 -6.299792,12.056144 -5.877144,18.708064 0.362201,1.76065 0.574734,1.72705 2.890326,1.17238 1.186363,-0.6047 2.372726,-1.2094 3.559089,-1.8141 -0.127339,-6.67791 0.811593,-13.804629 4.954343,-19.275652 3.671813,-4.617513 9.099062,-7.215293 13.984974,-10.299496 -0.148255,0.05169 -0.294572,0.108091 -0.439321,0.168898 z"
         id="path7756"
         inkscape:connector-curvature="0"
         sodipodi:nodetypes="cccccccc" />
      <path
         style="opacity:0.96728976;fill:#f5c0ae;fill-opacity:1;stroke:none"
         d="m -49.630339,85.762803 c -9.004451,3.31506 -13.149427,18.193897 -12.426336,23.694177 0.71962,-0.3302 1.323007,-1.4155 1.567987,-3.78542 0.24257,-2.34662 0.46251,-4.3134 3.573579,-11.439764 2.345,-5.37157 7.084041,-7.717396 7.28477,-8.468993 z"
         id="path7758"
         inkscape:connector-curvature="0"
         sodipodi:nodetypes="ccssc" />
    </g>
    <g
       transform="matrix(-0.92139383,0.38863016,-0.38863016,-0.92139383,287.21483,238.63737)"
       id="g7766">
      <path
         style="opacity:0.96728976;fill:#e55625;fill-opacity:1;stroke:none"
         d="m -38.03125,78.8125 c -6.773794,2.97121 -13.717995,6.091885 -19.072267,11.339906 -4.516684,5.038192 -6.299792,12.056144 -5.877144,18.708064 0.362201,1.76065 0.574734,1.72705 2.890326,1.17238 1.186363,-0.6047 2.372726,-1.2094 3.559089,-1.8141 -0.127339,-6.67791 0.811593,-13.804629 4.954343,-19.275652 3.671813,-4.617513 9.099062,-7.215293 13.984974,-10.299496 -0.148255,0.05169 -0.294572,0.108091 -0.439321,0.168898 z"
         id="path7768"
         inkscape:connector-curvature="0"
         sodipodi:nodetypes="cccccccc" />
      <path
         style="opacity:0.96728976;fill:#f5c0ae;fill-opacity:1;stroke:none"
         d="m -49.630339,85.762803 c -9.004451,3.31506 -13.149427,18.193897 -12.426336,23.694177 0.71962,-0.3302 1.323007,-1.4155 1.567987,-3.78542 0.24257,-2.34662 0.46251,-4.3134 3.573579,-11.439764 2.345,-5.37157 7.084041,-7.717396 7.28477,-8.468993 z"
         id="path7770"
         inkscape:connector-curvature="0"
         sodipodi:nodetypes="ccssc" />
    </g>
    <g
       transform="matrix(-0.98650625,0.16372358,-0.16372358,-0.98650625,254.72492,245.02758)"
       id="g7772">
      <path
         style="opacity:0.96728976;fill:#e55625;fill-opacity:1;stroke:none"
         d="m -38.03125,78.8125 c -6.773794,2.97121 -13.717995,6.091885 -19.072267,11.339906 -4.516684,5.038192 -6.299792,12.056144 -5.877144,18.708064 0.362201,1.76065 0.574734,1.72705 2.890326,1.17238 1.186363,-0.6047 2.372726,-1.2094 3.559089,-1.8141 -0.127339,-6.67791 0.811593,-13.804629 4.954343,-19.275652 3.671813,-4.617513 9.099062,-7.215293 13.984974,-10.299496 -0.148255,0.05169 -0.294572,0.108091 -0.439321,0.168898 z"
         id="path7774"
         inkscape:connector-curvature="0"
         sodipodi:nodetypes="cccccccc" />
      <path
         style="opacity:0.96728976;fill:#f5c0ae;fill-opacity:1;stroke:none"
         d="m -49.630339,85.762803 c -9.004451,3.31506 -13.149427,18.193897 -12.426336,23.694177 0.71962,-0.3302 1.323007,-1.4155 1.567987,-3.78542 0.24257,-2.34662 0.46251,-4.3134 3.573579,-11.439764 2.345,-5.37157 7.084041,-7.717396 7.28477,-8.468993 z"
         id="path7776"
         inkscape:connector-curvature="0"
         sodipodi:nodetypes="ccssc" />
    </g>
    <g
       id="g7760"
       transform="matrix(-0.73720732,0.6756666,-0.6756666,-0.73720732,323.42823,214.20641)">
      <path
         sodipodi:nodetypes="cccccccc"
         inkscape:connector-curvature="0"
         id="path7762"
         d="m -38.03125,78.8125 c -6.773794,2.97121 -13.717995,6.091885 -19.072267,11.339906 -4.516684,5.038192 -6.299792,12.056144 -5.877144,18.708064 0.362201,1.76065 0.574734,1.72705 2.890326,1.17238 1.186363,-0.6047 2.372726,-1.2094 3.559089,-1.8141 -0.127339,-6.67791 0.811593,-13.804629 4.954343,-19.275652 3.671813,-4.617513 9.099062,-7.215293 13.984974,-10.299496 -0.148255,0.05169 -0.294572,0.108091 -0.439321,0.168898 z"
         style="opacity:0.96728976;fill:#e55625;fill-opacity:1;stroke:none" />
      <path
         sodipodi:nodetypes="ccssc"
         inkscape:connector-curvature="0"
         id="path7764"
         d="m -49.630339,85.762803 c -9.004451,3.31506 -13.149427,18.193897 -12.426336,23.694177 0.71962,-0.3302 1.323007,-1.4155 1.567987,-3.78542 0.24257,-2.34662 0.46251,-4.3134 3.573579,-11.439764 2.345,-5.37157 7.084041,-7.717396 7.28477,-8.468993 z"
         style="opacity:0.96728976;fill:#f5c0ae;fill-opacity:1;stroke:none" />
    </g>
    <g
       transform="matrix(0.77505011,-0.63189978,-0.63189978,-0.77505011,362.11556,131.61631)"
       id="g7778">
      <path
         style="opacity:0.96728976;fill:#e55625;fill-opacity:1;stroke:none"
         d="m -38.03125,78.8125 c -6.773794,2.97121 -13.717995,6.091885 -19.072267,11.339906 -4.516684,5.038192 -6.299792,12.056144 -5.877144,18.708064 0.362201,1.76065 0.574734,1.72705 2.890326,1.17238 1.186363,-0.6047 2.372726,-1.2094 3.559089,-1.8141 -0.127339,-6.67791 0.811593,-13.804629 4.954343,-19.275652 3.671813,-4.617513 9.099062,-7.215293 13.984974,-10.299496 -0.148255,0.05169 -0.294572,0.108091 -0.439321,0.168898 z"
         id="path7780"
         inkscape:connector-curvature="0"
         sodipodi:nodetypes="cccccccc" />
      <path
         style="opacity:0.96728976;fill:#f5c0ae;fill-opacity:1;stroke:none"
         d="m -49.630339,85.762803 c -9.004451,3.31506 -13.149427,18.193897 -12.426336,23.694177 0.71962,-0.3302 1.323007,-1.4155 1.567987,-3.78542 0.24257,-2.34662 0.46251,-4.3134 3.573579,-11.439764 2.345,-5.37157 7.084041,-7.717396 7.28477,-8.468993 z"
         id="path7782"
         inkscape:connector-curvature="0"
         sodipodi:nodetypes="ccssc" />
    </g>
    <g
       transform="matrix(0.34812678,0.93744747,0.93744747,-0.34812678,32.23395,131.92662)"
       id="g7784">
      <path
         style="opacity:0.96728976;fill:#e55625;fill-opacity:1;stroke:none"
         d="m -38.03125,78.8125 c -6.773794,2.97121 -13.717995,6.091885 -19.072267,11.339906 -4.516684,5.038192 -6.299792,12.056144 -5.877144,18.708064 0.362201,1.76065 0.574734,1.72705 2.890326,1.17238 1.186363,-0.6047 2.372726,-1.2094 3.559089,-1.8141 -0.127339,-6.67791 0.811593,-13.804629 4.954343,-19.275652 3.671813,-4.617513 9.099062,-7.215293 13.984974,-10.299496 -0.148255,0.05169 -0.294572,0.108091 -0.439321,0.168898 z"
         id="path7786"
         inkscape:connector-curvature="0"
         sodipodi:nodetypes="cccccccc" />
      <path
         style="opacity:0.96728976;fill:#f5c0ae;fill-opacity:1;stroke:none"
         d="m -49.630339,85.762803 c -9.004451,3.31506 -13.149427,18.193897 -12.426336,23.694177 0.71962,-0.3302 1.323007,-1.4155 1.567987,-3.78542 0.24257,-2.34662 0.46251,-4.3134 3.573579,-11.439764 2.345,-5.37157 7.084041,-7.717396 7.28477,-8.468993 z"
         id="path7788"
         inkscape:connector-curvature="0"
         sodipodi:nodetypes="ccssc" />
    </g>
    <g
       id="g7790"
       transform="matrix(0.34812678,0.93744747,0.93744747,-0.34812678,14.23395,165.92662)">
      <path
         sodipodi:nodetypes="cccccccc"
         inkscape:connector-curvature="0"
         id="path7792"
         d="m -38.03125,78.8125 c -6.773794,2.97121 -13.717995,6.091885 -19.072267,11.339906 -4.516684,5.038192 -6.299792,12.056144 -5.877144,18.708064 0.362201,1.76065 0.574734,1.72705 2.890326,1.17238 1.186363,-0.6047 2.372726,-1.2094 3.559089,-1.8141 -0.127339,-6.67791 0.811593,-13.804629 4.954343,-19.275652 3.671813,-4.617513 9.099062,-7.215293 13.984974,-10.299496 -0.148255,0.05169 -0.294572,0.108091 -0.439321,0.168898 z"
         style="opacity:0.96728976;fill:#e55625;fill-opacity:1;stroke:none" />
      <path
         sodipodi:nodetypes="ccssc"
         inkscape:connector-curvature="0"
         id="path7794"
         d="m -49.630339,85.762803 c -9.004451,3.31506 -13.149427,18.193897 -12.426336,23.694177 0.71962,-0.3302 1.323007,-1.4155 1.567987,-3.78542 0.24257,-2.34662 0.46251,-4.3134 3.573579,-11.439764 2.345,-5.37157 7.084041,-7.717396 7.28477,-8.468993 z"
         style="opacity:0.96728976;fill:#f5c0ae;fill-opacity:1;stroke:none" />
    </g>
    <g
       id="g7796"
       transform="matrix(-0.996344,-0.08543193,0.08543193,-0.996344,46.193766,191.19975)">
      <path
         sodipodi:nodetypes="cccccccc"
         inkscape:connector-curvature="0"
         id="path7798"
         d="m -38.03125,78.8125 c -6.773794,2.97121 -13.717995,6.091885 -19.072267,11.339906 -4.516684,5.038192 -6.299792,12.056144 -5.877144,18.708064 0.362201,1.76065 0.574734,1.72705 2.890326,1.17238 1.186363,-0.6047 2.372726,-1.2094 3.559089,-1.8141 -0.127339,-6.67791 0.811593,-13.804629 4.954343,-19.275652 3.671813,-4.617513 9.099062,-7.215293 13.984974,-10.299496 -0.148255,0.05169 -0.294572,0.108091 -0.439321,0.168898 z"
         style="opacity:0.96728976;fill:#e55625;fill-opacity:1;stroke:none" />
      <path
         sodipodi:nodetypes="ccssc"
         inkscape:connector-curvature="0"
         id="path7800"
         d="m -49.630339,85.762803 c -9.004451,3.31506 -13.149427,18.193897 -12.426336,23.694177 0.71962,-0.3302 1.323007,-1.4155 1.567987,-3.78542 0.24257,-2.34662 0.46251,-4.3134 3.573579,-11.439764 2.345,-5.37157 7.084041,-7.717396 7.28477,-8.468993 z"
         style="opacity:0.96728976;fill:#f5c0ae;fill-opacity:1;stroke:none" />
    </g>
    <g
       transform="matrix(-0.67118464,-0.06795162,-0.05159801,-0.70406224,110.46864,135.62816)"
       id="g7802">
      <path
         style="opacity:0.96728976;fill:#e55625;fill-opacity:1;stroke:none"
         d="m -38.03125,78.8125 c -6.773794,2.97121 -13.717995,6.091885 -19.072267,11.339906 -4.516684,5.038192 -6.299792,12.056144 -5.877144,18.708064 0.362201,1.76065 0.574734,1.72705 2.890326,1.17238 1.186363,-0.6047 2.372726,-1.2094 3.559089,-1.8141 -0.127339,-6.67791 0.811593,-13.804629 4.954343,-19.275652 3.671813,-4.617513 9.099062,-7.215293 13.984974,-10.299496 -0.148255,0.05169 -0.294572,0.108091 -0.439321,0.168898 z"
         id="path7804"
         inkscape:connector-curvature="0"
         sodipodi:nodetypes="cccccccc" />
      <path
         style="opacity:0.96728976;fill:#f5c0ae;fill-opacity:1;stroke:none"
         d="m -49.630339,85.762803 c -9.004451,3.31506 -13.149427,18.193897 -12.426336,23.694177 0.71962,-0.3302 1.323007,-1.4155 1.567987,-3.78542 0.24257,-2.34662 0.46251,-4.3134 3.573579,-11.439764 2.345,-5.37157 7.084041,-7.717396 7.28477,-8.468993 z"
         id="path7806"
         inkscape:connector-curvature="0"
         sodipodi:nodetypes="ccssc" />
    </g>
    <g
       transform="matrix(0.50599446,0.86253674,0.86253674,-0.50599446,31.029402,184.83371)"
       id="g7808">
      <path
         style="opacity:0.96728976;fill:#e55625;fill-opacity:1;stroke:none"
         d="m -38.03125,78.8125 c -6.773794,2.97121 -13.717995,6.091885 -19.072267,11.339906 -4.516684,5.038192 -6.299792,12.056144 -5.877144,18.708064 0.362201,1.76065 0.574734,1.72705 2.890326,1.17238 1.186363,-0.6047 2.372726,-1.2094 3.559089,-1.8141 -0.127339,-6.67791 0.811593,-13.804629 4.954343,-19.275652 3.671813,-4.617513 9.099062,-7.215293 13.984974,-10.299496 -0.148255,0.05169 -0.294572,0.108091 -0.439321,0.168898 z"
         id="path7810"
         inkscape:connector-curvature="0"
         sodipodi:nodetypes="cccccccc" />
      <path
         style="opacity:0.96728976;fill:#f5c0ae;fill-opacity:1;stroke:none"
         d="m -49.630339,85.762803 c -9.004451,3.31506 -13.149427,18.193897 -12.426336,23.694177 0.71962,-0.3302 1.323007,-1.4155 1.567987,-3.78542 0.24257,-2.34662 0.46251,-4.3134 3.573579,-11.439764 2.345,-5.37157 7.084041,-7.717396 7.28477,-8.468993 z"
         id="path7812"
         inkscape:connector-curvature="0"
         sodipodi:nodetypes="ccssc" />
    </g>
    <g
       id="g7814"
       transform="matrix(0.69282088,0.72110973,0.72110973,-0.69282088,55.738328,204.66738)">
      <path
         sodipodi:nodetypes="cccccccc"
         inkscape:connector-curvature="0"
         id="path7816"
         d="m -38.03125,78.8125 c -6.773794,2.97121 -13.717995,6.091885 -19.072267,11.339906 -4.516684,5.038192 -6.299792,12.056144 -5.877144,18.708064 0.362201,1.76065 0.574734,1.72705 2.890326,1.17238 1.186363,-0.6047 2.372726,-1.2094 3.559089,-1.8141 -0.127339,-6.67791 0.811593,-13.804629 4.954343,-19.275652 3.671813,-4.617513 9.099062,-7.215293 13.984974,-10.299496 -0.148255,0.05169 -0.294572,0.108091 -0.439321,0.168898 z"
         style="opacity:0.96728976;fill:#e55625;fill-opacity:1;stroke:none" />
      <path
         sodipodi:nodetypes="ccssc"
         inkscape:connector-curvature="0"
         id="path7818"
         d="m -49.630339,85.762803 c -9.004451,3.31506 -13.149427,18.193897 -12.426336,23.694177 0.71962,-0.3302 1.323007,-1.4155 1.567987,-3.78542 0.24257,-2.34662 0.46251,-4.3134 3.573579,-11.439764 2.345,-5.37157 7.084041,-7.717396 7.28477,-8.468993 z"
         style="opacity:0.96728976;fill:#f5c0ae;fill-opacity:1;stroke:none" />
    </g>
    <g
       id="g7820"
       transform="matrix(-0.1133575,0.99355426,-0.99355426,-0.1133575,355.49376,112.39503)">
      <path
         sodipodi:nodetypes="cccccccc"
         inkscape:connector-curvature="0"
         id="path7822"
         d="m -38.03125,78.8125 c -6.773794,2.97121 -13.717995,6.091885 -19.072267,11.339906 -4.516684,5.038192 -6.299792,12.056144 -5.877144,18.708064 0.362201,1.76065 0.574734,1.72705 2.890326,1.17238 1.186363,-0.6047 2.372726,-1.2094 3.559089,-1.8141 -0.127339,-6.67791 0.811593,-13.804629 4.954343,-19.275652 3.671813,-4.617513 9.099062,-7.215293 13.984974,-10.299496 -0.148255,0.05169 -0.294572,0.108091 -0.439321,0.168898 z"
         style="opacity:0.96728976;fill:#e55625;fill-opacity:1;stroke:none" />
      <path
         sodipodi:nodetypes="ccssc"
         inkscape:connector-curvature="0"
         id="path7824"
         d="m -49.630339,85.762803 c -9.004451,3.31506 -13.149427,18.193897 -12.426336,23.694177 0.71962,-0.3302 1.323007,-1.4155 1.567987,-3.78542 0.24257,-2.34662 0.46251,-4.3134 3.573579,-11.439764 2.345,-5.37157 7.084041,-7.717396 7.28477,-8.468993 z"
         style="opacity:0.96728976;fill:#f5c0ae;fill-opacity:1;stroke:none" />
    </g>
    <g
       transform="matrix(-0.28215929,0.95936756,-0.95936756,-0.28215929,322.52406,133.88062)"
       id="g7826">
      <path
         style="opacity:0.96728976;fill:#e55625;fill-opacity:1;stroke:none"
         d="m -38.03125,78.8125 c -6.773794,2.97121 -13.717995,6.091885 -19.072267,11.339906 -4.516684,5.038192 -6.299792,12.056144 -5.877144,18.708064 0.362201,1.76065 0.574734,1.72705 2.890326,1.17238 1.186363,-0.6047 2.372726,-1.2094 3.559089,-1.8141 -0.127339,-6.67791 0.811593,-13.804629 4.954343,-19.275652 3.671813,-4.617513 9.099062,-7.215293 13.984974,-10.299496 -0.148255,0.05169 -0.294572,0.108091 -0.439321,0.168898 z"
         id="path7828"
         inkscape:connector-curvature="0"
         sodipodi:nodetypes="cccccccc" />
      <path
         style="opacity:0.96728976;fill:#f5c0ae;fill-opacity:1;stroke:none"
         d="m -49.630339,85.762803 c -9.004451,3.31506 -13.149427,18.193897 -12.426336,23.694177 0.71962,-0.3302 1.323007,-1.4155 1.567987,-3.78542 0.24257,-2.34662 0.46251,-4.3134 3.573579,-11.439764 2.345,-5.37157 7.084041,-7.717396 7.28477,-8.468993 z"
         id="path7830"
         inkscape:connector-curvature="0"
         sodipodi:nodetypes="ccssc" />
    </g>
    <g
       id="g7832"
       transform="matrix(-0.354746,0.9349627,-0.9349627,-0.354746,308.55015,139.49407)">
      <path
         sodipodi:nodetypes="cccccccc"
         inkscape:connector-curvature="0"
         id="path7834"
         d="m -38.03125,78.8125 c -6.773794,2.97121 -13.717995,6.091885 -19.072267,11.339906 -4.516684,5.038192 -6.299792,12.056144 -5.877144,18.708064 0.362201,1.76065 0.574734,1.72705 2.890326,1.17238 1.186363,-0.6047 2.372726,-1.2094 3.559089,-1.8141 -0.127339,-6.67791 0.811593,-13.804629 4.954343,-19.275652 3.671813,-4.617513 9.099062,-7.215293 13.984974,-10.299496 -0.148255,0.05169 -0.294572,0.108091 -0.439321,0.168898 z"
         style="opacity:0.96728976;fill:#e55625;fill-opacity:1;stroke:none" />
      <path
         sodipodi:nodetypes="ccssc"
         inkscape:connector-curvature="0"
         id="path7836"
         d="m -49.630339,85.762803 c -9.004451,3.31506 -13.149427,18.193897 -12.426336,23.694177 0.71962,-0.3302 1.323007,-1.4155 1.567987,-3.78542 0.24257,-2.34662 0.46251,-4.3134 3.573579,-11.439764 2.345,-5.37157 7.084041,-7.717396 7.28477,-8.468993 z"
         style="opacity:0.96728976;fill:#f5c0ae;fill-opacity:1;stroke:none" />
    </g>
    <g
       transform="matrix(-0.4366057,0.89965296,-0.89965296,-0.4366057,293.11474,147.48714)"
       id="g7838">
      <path
         style="opacity:0.96728976;fill:#e55625;fill-opacity:1;stroke:none"
         d="m -38.03125,78.8125 c -6.773794,2.97121 -13.717995,6.091885 -19.072267,11.339906 -4.516684,5.038192 -6.299792,12.056144 -5.877144,18.708064 0.362201,1.76065 0.574734,1.72705 2.890326,1.17238 1.186363,-0.6047 2.372726,-1.2094 3.559089,-1.8141 -0.127339,-6.67791 0.811593,-13.804629 4.954343,-19.275652 3.671813,-4.617513 9.099062,-7.215293 13.984974,-10.299496 -0.148255,0.05169 -0.294572,0.108091 -0.439321,0.168898 z"
         id="path7840"
         inkscape:connector-curvature="0"
         sodipodi:nodetypes="cccccccc" />
      <path
         style="opacity:0.96728976;fill:#f5c0ae;fill-opacity:1;stroke:none"
         d="m -49.630339,85.762803 c -9.004451,3.31506 -13.149427,18.193897 -12.426336,23.694177 0.71962,-0.3302 1.323007,-1.4155 1.567987,-3.78542 0.24257,-2.34662 0.46251,-4.3134 3.573579,-11.439764 2.345,-5.37157 7.084041,-7.717396 7.28477,-8.468993 z"
         id="path7842"
         inkscape:connector-curvature="0"
         sodipodi:nodetypes="ccssc" />
    </g>
  </g>
  <g
     id="g7848"
     transform="matrix(1.3149105,0.08657682,-0.06570011,0.99783941,-48.828507,-17.874668)">
    <circle
       transform="matrix(2.1617452,0.15614393,-0.12221779,1.6485955,-202.74592,-130.12985)"
       id="nose"
       cx="188.5"
       cy="148.56"
       r="4.401"
       sodipodi:cx="188.5"
       sodipodi:cy="148.56"
       sodipodi:rx="4.401"
       sodipodi:ry="4.401"
       style="fill:#ad5c51"
       d="m 192.901,148.56 c 0,2.4306 -1.97039,4.401 -4.401,4.401 -2.43061,0 -4.401,-1.9704 -4.401,-4.401 0,-2.43061 1.97039,-4.401 4.401,-4.401 2.43061,0 4.401,1.97039 4.401,4.401 z" />
    <circle
       style="opacity:0.96728976;fill:url(#radialGradient7852);fill-opacity:1"
       sodipodi:ry="4.401"
       sodipodi:rx="4.401"
       sodipodi:cy="148.56"
       sodipodi:cx="188.5"
       r="4.401"
       cy="148.56"
       cx="188.5"
       id="circle7844"
       transform="matrix(1.5901737,1.004415,-1.1537771,1.152827,59.832728,-218.43384)"
       d="m 192.901,148.56 c 0,2.4306 -1.97039,4.401 -4.401,4.401 -2.43061,0 -4.401,-1.9704 -4.401,-4.401 0,-2.43061 1.97039,-4.401 4.401,-4.401 2.43061,0 4.401,1.97039 4.401,4.401 z" />
  </g>
  <g
     style="fill:#7dbbe6"
     id="shadow-legs"
     transform="translate(-372.21409,6.5398672)" />
</svg>
