<?xml version="1.0" encoding="UTF-8" standalone="no"?>
<svg
   xmlns:dc="http://purl.org/dc/elements/1.1/"
   xmlns:cc="http://creativecommons.org/ns#"
   xmlns:rdf="http://www.w3.org/1999/02/22-rdf-syntax-ns#"
   xmlns:svg="http://www.w3.org/2000/svg"
   xmlns="http://www.w3.org/2000/svg"
   xmlns:sodipodi="http://sodipodi.sourceforge.net/DTD/sodipodi-0.dtd"
   xmlns:inkscape="http://www.inkscape.org/namespaces/inkscape"
   viewBox="-0.2 -1 372.453 345.74506"
   id="svg2"
   version="1.1"
   inkscape:version="0.48.2 r9819"
   width="100%"
   height="100%"
   sodipodi:docname="octofelix.svg">
  <metadata
     id="metadata24">
    <rdf:RDF>
      <cc:Work
         rdf:about="">
        <dc:format>image/svg+xml</dc:format>
        <dc:type
           rdf:resource="http://purl.org/dc/dcmitype/StillImage" />
      </cc:Work>
    </rdf:RDF>
  </metadata>
  <defs
     id="defs22" />
  <sodipodi:namedview
     pagecolor="#ffffff"
     bordercolor="#666666"
     borderopacity="1"
     objecttolerance="10"
     gridtolerance="10"
     guidetolerance="10"
     inkscape:pageopacity="0"
     inkscape:pageshadow="2"
     inkscape:window-width="1440"
     inkscape:window-height="783"
     id="namedview20"
     showgrid="false"
     fit-margin-top="0"
     fit-margin-left="0"
     fit-margin-right="0"
     fit-margin-bottom="0"
     inkscape:zoom="1.6341521"
     inkscape:cx="186.2265"
     inkscape:cy="172.87253"
     inkscape:window-x="0"
     inkscape:window-y="0"
     inkscape:window-maximized="0"
     inkscape:current-layer="svg2" />
  <path
     id="puddle"
     d="m 296.733,307.56906 c 0,20.533 -47.56,37.176 -106.22,37.176 -58.67,0 -106.23,-16.643 -106.23,-37.176 0,-20.533 47.558,-37.18 106.23,-37.18 58.66,0 106.22,16.65 106.22,37.18 z"
     inkscape:connector-curvature="0"
     style="fill:#9cdaf1" />
  <g
     id="shadow-legs"
     style="fill:#7dbbe6"
     transform="translate(-0.207,12.139056)">
    <path
       d="m 161.85,331.22 v -26.5 c 0,-3.422 -0.619,-6.284 -1.653,-8.701 6.853,5.322 7.316,18.695 7.316,18.695 v 17.004 c 6.166,0.481 12.534,0.773 19.053,0.861 l -0.172,-16.92 c -0.944,-23.13 -20.769,-25.961 -20.769,-25.961 -7.245,-1.645 -7.137,1.991 -6.409,4.34 -7.108,-12.122 -26.158,-10.556 -26.158,-10.556 -6.611,2.357 -0.475,6.607 -0.475,6.607 10.387,3.775 11.33,15.105 11.33,15.105 v 23.622 c 5.72,0.98 11.71,1.79 17.94,2.4 z"
       id="path6"
       inkscape:connector-curvature="0" />
    <path
       d="m 245.4,283.48 c 0,0 -19.053,-1.566 -26.16,10.559 0.728,-2.35 0.839,-5.989 -6.408,-4.343 0,0 -19.824,2.832 -20.768,25.961 l -0.174,16.946 c 6.509,-0.025 12.876,-0.254 19.054,-0.671 v -17.219 c 0,0 0.465,-13.373 7.316,-18.695 -1.034,2.417 -1.653,5.278 -1.653,8.701 v 26.775 c 6.214,-0.544 12.211,-1.279 17.937,-2.188 v -24.113 c 0,0 0.944,-11.33 11.33,-15.105 0,-0.01 6.13,-4.26 -0.48,-6.62 z"
       id="path8"
       inkscape:connector-curvature="0" />
  </g>
  <path
     id="cat"
     d="m 371.973,149.45906 0.28,-1.389 c -31.162,-6.231 -63.141,-6.294 -82.487,-5.49 4.24924,-12.81841 8.8632,-17.53319 12.41011,-32.81735 C 281.91639,86.391006 251.30145,63.820898 244.19874,-1 l -37.18598,35.637097 c -13.97451,-2.790462 -17.09423,-3.723075 -29.01821,-2.747668 -13.07599,1.069644 -17.0047,2.011752 -28.74075,6.602683 L 106.77226,5.0090933 C 112.18325,68.027772 91.368039,96.744503 67.334195,119.08807 c 2.955752,13.4757 6.835763,18.27555 10.838805,27.41399 -19.511,-0.71 -48.323,-0.437 -78.373,5.572 l 0.276,1.389 c 30.231,-6.046 59.681184,-6.256 79.073184,-5.522 1.342184,2.366 2.899586,4.661 4.576816,6.879 -19.177,0.618 -51.922,3.062 -83.303,11.915 l 0.387,1.36 c 31.629,-8.918 64.658,-11.301 83.649,-11.882 13.345783,19.9144 34.048,35.152 74.236,39.484 -5.704,3.833 -11.523,10.349 -13.881,21.374 -7.773,3.718 -32.379,12.793 -47.142,-12.599 0,0 -8.264,-15.109 -24.082,-16.292 0,0 -15.344,-0.235 -1.059,9.562 0,0 10.267,4.838 17.351,23.019 0,0 9.241,31.01 53.835,21.061 l 0,32.032 c 0,0 -0.943,11.33 -11.33,15.105 0,0 -6.137,4.249 0.475,6.606 0,0 28.792,2.361 28.792,-21.238 l 0,-34.929 c 0,0 -1.142,-13.852 5.663,-18.667 l 0,57.371 c 0,0 -0.47,13.688 -7.551,18.881 0,0 -4.723,8.494 5.663,6.137 0,0 19.824,-2.832 20.769,-25.961 l 0.449,-58.06 4.765,0 0.453,58.06 c 0.943,23.129 20.768,25.961 20.768,25.961 10.383,2.357 5.663,-6.137 5.663,-6.137 -7.08,-5.193 -7.551,-18.881 -7.551,-18.881 l 0,-56.876 c 6.801,5.296 5.663,18.171 5.663,18.171 l 0,34.929 c 0,23.6 28.793,21.238 28.793,21.238 6.606,-2.357 0.474,-6.606 0.474,-6.606 -10.386,-3.775 -11.33,-15.105 -11.33,-15.105 l 0,-45.786 c 0,-17.854 -7.518,-27.309 -14.87,-32.3 42.859,-4.25 57.426,-22.089 66.903,-43.591 18.773,0.516 52.557,2.803 84.873,11.919 l 0.384,-1.36 c -32.131,-9.063 -65.692,-11.408 -84.655,-11.96 0.898,-2.172 1.682,-4.431 2.378,-6.755 19.25,-0.8 51.38,-0.79 82.66,5.46 z"
     inkscape:connector-curvature="0"
     sodipodi:nodetypes="ccccccscccccccccccccccccccccsccccccccccccccscccscccccccc" />
  <path
     d="m 257.983,101.71321 c 9.231,8.83056 13.67721,23.16317 10.2338,34.12437 -15.07611,47.99081 -33.4748,51.95748 -80.1878,51.95748 -46.721,0 -84.589,-7.42831 -84.589,-55.09834 0,-11.41331 5.324,-22.01041 14.441,-30.80507 15.208,-14.657056 40.946,-6.896131 70.147,-6.896131 29.07,-0.0042 54.72,-7.844341 69.95,6.712411 z"
     style="fill:#ffffff;fill-opacity:1"
     inkscape:connector-curvature="0"
     sodipodi:nodetypes="cssscccc" />
  <path
     id="octo"
     d="m 80.434,191.95906 c 0,1.174 -1.376,2.122 -3.07,2.122 -1.693,0 -3.07,-0.948 -3.07,-2.122 0,-1.175 1.377,-2.127 3.07,-2.127 1.694,0 3.07,0.95 3.07,2.13 z m 8.5,4.72 c 0,1.174 -1.376,2.122 -3.07,2.122 -1.693,0 -3.07,-0.948 -3.07,-2.122 0,-1.175 1.377,-2.127 3.07,-2.127 1.694,0 3.07,0.95 3.07,2.13 z m 5.193,6.14 c 0,1.174 -1.376,2.122 -3.07,2.122 -1.693,0 -3.07,-0.948 -3.07,-2.122 0,-1.175 1.377,-2.127 3.07,-2.127 1.694,0 3.07,0.95 3.07,2.13 z m 4.72,7.08 c 0,1.174 -1.376,2.122 -3.07,2.122 -1.693,0 -3.07,-0.948 -3.07,-2.122 0,-1.175 1.377,-2.127 3.07,-2.127 1.694,0 3.07,0.95 3.07,2.13 z m 5.188,6.61 c 0,1.174 -1.376,2.122 -3.07,2.122 -1.693,0 -3.07,-0.948 -3.07,-2.122 0,-1.175 1.377,-2.127 3.07,-2.127 1.694,0 3.07,0.95 3.07,2.13 z m 7.09,5.66 c 0,1.174 -1.376,2.122 -3.07,2.122 -1.693,0 -3.07,-0.948 -3.07,-2.122 0,-1.175 1.377,-2.127 3.07,-2.127 1.694,0 3.07,0.95 3.07,2.13 z m 9.91,3.78 c 0,1.174 -1.376,2.122 -3.07,2.122 -1.693,0 -3.07,-0.948 -3.07,-2.122 0,-1.175 1.377,-2.127 3.07,-2.127 1.694,0 3.07,0.95 3.07,2.13 z m 9.87,0 c 0,1.174 -1.376,2.122 -3.07,2.122 -1.693,0 -3.07,-0.948 -3.07,-2.122 0,-1.175 1.377,-2.127 3.07,-2.127 1.694,0 3.07,0.95 3.07,2.13 z m 10.01,-1.64 c 0,1.174 -1.376,2.122 -3.07,2.122 -1.693,0 -3.07,-0.948 -3.07,-2.122 0,-1.175 1.377,-2.127 3.07,-2.127 1.694,0 3.07,0.95 3.07,2.13 z"
     inkscape:connector-curvature="0"
     style="fill:#c3e4d8" />
  <path
     id="drop"
     d="m 69.162,198.25906 -3.066,10.683 c 0,0 -0.8,3.861 2.84,4.546 3.8,-0.074 3.486,-3.627 3.223,-4.781 z"
     inkscape:connector-curvature="0"
     style="fill:#9cdaf1" />
  <g
     id="g3883"
     transform="matrix(0.93782714,-0.09633951,0.09633951,0.93782714,3.9360843,29.908078)">
    <path
       inkscape:connector-curvature="0"
       style="fill:#ffffff;stroke:#000000;stroke-width:0.91078961;stroke-opacity:1"
       d="m 252.34145,74.157217 c 0,22.857898 -14.64996,41.383993 -32.72073,41.383993 -18.07076,0 -32.72072,-18.526095 -32.72072,-41.383993 0,-22.854631 14.64996,-41.3742 32.72072,-41.3742 18.07077,0.01633 32.72073,18.522836 32.72073,41.3742 z"
       id="path3869" />
    <path
       inkscape:connector-curvature="0"
       style="fill:#000000;fill-opacity:1"
       d="m 221.79325,78.59429 c 0,9.892385 -5.0334,17.908735 -11.22849,17.908735 -6.1951,0 -11.22754,-8.01635 -11.22754,-17.908735 0,-9.895566 5.02861,-17.91616 11.22754,-17.91616 6.19127,0 11.22467,8.017413 11.22467,17.911918 z"
       id="path3871" />
  </g>
  <g
     id="g3863"
     transform="matrix(0.93534946,-0.05588682,0.05588682,0.93534946,-0.1386275,18.438916)"
     style="stroke:#000000;stroke-opacity:1">
    <path
       id="path3077"
       d="m 196.75133,82.156737 c 0,25.096793 -16.0849,45.437493 -35.92567,45.437493 -19.84076,0 -35.92566,-20.3407 -35.92566,-45.437493 0,-25.093205 16.0849,-45.426736 35.92566,-45.426736 19.84077,0.01793 35.92567,20.337118 35.92567,45.426736 z"
       style="fill:#ffffff;stroke:#000000;stroke-opacity:1"
       inkscape:connector-curvature="0" />
    <path
       id="path3081"
       d="m 161.36827,87.850893 c 0,10.586217 -5.38643,19.164817 -12.01603,19.164817 -6.62961,0 -12.01502,-8.5786 -12.01502,-19.164817 0,-10.589621 5.38131,-19.172763 12.01502,-19.172763 6.62551,0 12.01194,8.579738 12.01194,19.168223 z"
       style="fill:#000000;fill-opacity:1;stroke:#000000;stroke-opacity:1"
       inkscape:connector-curvature="0" />
  </g>
  <path
     style="fill:#000000;fill-opacity:1"
     d="m 209.4884,111.90467 c 0,7.2876 -9.90777,13.1954 -17.1954,13.1954 -7.28763,0 -13.1954,-1.9078 -13.1954,-9.1954 0,-7.28764 9.90777,-17.195401 17.1954,-17.195401 7.28763,0 13.1954,5.907771 13.1954,13.195401 z"
     id="nose"
     inkscape:connector-curvature="0"
     sodipodi:nodetypes="sssss" />
  <path
     style="fill:#000000;fill-opacity:1;stroke:#000000;stroke-width:1.65184081px;stroke-linecap:butt;stroke-linejoin:miter;stroke-opacity:1"
     d="m 251.20598,123.58178 c 0,0 -21.26944,18.56851 -59.22353,22.88529 -37.9541,4.31679 -56.18641,-9.09141 -56.18641,-9.09141 l 5.69456,-2.82148 c 0,0 -9.03996,-0.10447 -14.80587,5.64295 -5.76591,5.74739 -2.27783,16.30187 -2.27783,16.30187 l 0.37963,-9.71843 c 0,0 24.11423,36.71944 61.88099,34.48471 37.76676,-2.23473 47.44563,-13.48043 54.66787,-22.5718 7.22224,-9.09137 8.49675,-19.5034 7.21312,-29.46875 -0.45137,-3.5042 2.65747,-5.64295 2.65747,-5.64295 z"
     id="path3875"
     inkscape:connector-curvature="0"
     sodipodi:nodetypes="czcczcczzsc" />
  <path
     style="fill:#f83434;fill-opacity:0.81777775;stroke:none"
     d="m 148.78879,169.37963 c 0,0 6.6344,-8.03814 19.27649,-8.80517 12.64209,-0.76704 18.60224,4.70247 18.60224,4.70247 0,0 5.53158,-6.72715 18.22262,-6.58345 12.69104,0.14365 24.46061,10.79415 24.46061,10.79415 0,0 -16.77823,8.39462 -38.23927,10.76165 -21.46103,2.36705 -42.32269,-10.86965 -42.32269,-10.86965 z"
     id="path3877"
     inkscape:connector-curvature="0"
     sodipodi:nodetypes="czczczc" />
</svg>
