<?xml version="1.0" encoding="UTF-8" standalone="no"?>
<!-- Created with Inkscape (http://www.inkscape.org/) -->

<svg
   xmlns:dc="http://purl.org/dc/elements/1.1/"
   xmlns:cc="http://creativecommons.org/ns#"
   xmlns:rdf="http://www.w3.org/1999/02/22-rdf-syntax-ns#"
   xmlns:svg="http://www.w3.org/2000/svg"
   xmlns="http://www.w3.org/2000/svg"
   xmlns:sodipodi="http://sodipodi.sourceforge.net/DTD/sodipodi-0.dtd"
   xmlns:inkscape="http://www.inkscape.org/namespaces/inkscape"
   width="1910.3333"
   height="822.52802"
   id="svg2"
   version="1.1"
   inkscape:version="0.48.1 r9760"
   sodipodi:docname="New document 1">
  <defs
     id="defs4">
    <filter
       inkscape:collect="always"
       id="filter3956">
      <feGaussianBlur
         inkscape:collect="always"
         stdDeviation="6.8321531"
         id="feGaussianBlur3958" />
    </filter>
  </defs>
  <sodipodi:namedview
     id="base"
     pagecolor="#7fdeff"
     bordercolor="#666666"
     borderopacity="1.0"
     inkscape:pageopacity="1"
     inkscape:pageshadow="2"
     inkscape:zoom="1.0467661"
     inkscape:cx="951.28413"
     inkscape:cy="414.91813"
     inkscape:document-units="px"
     inkscape:current-layer="layer1"
     showgrid="false"
     fit-margin-top="0"
     fit-margin-left="0"
     fit-margin-right="0"
     fit-margin-bottom="0"
     inkscape:window-width="2560"
     inkscape:window-height="1363"
     inkscape:window-x="0"
     inkscape:window-y="24"
     inkscape:window-maximized="1" />
  <metadata
     id="metadata7">
    <rdf:RDF>
      <cc:Work
         rdf:about="">
        <dc:format>image/svg+xml</dc:format>
        <dc:type
           rdf:resource="http://purl.org/dc/dcmitype/StillImage" />
        <dc:title></dc:title>
      </cc:Work>
    </rdf:RDF>
  </metadata>
  <g
     inkscape:label="Layer 1"
     inkscape:groupmode="layer"
     id="layer1"
     transform="translate(-56.048788,60.772753)">
    <g
       style="font-size:40px;font-style:normal;font-variant:normal;font-weight:normal;font-stretch:normal;line-height:125%;letter-spacing:0px;word-spacing:0px;fill:#000000;fill-opacity:1;stroke:none;font-family:Nimbus Roman No9 L;-inkscape-font-specification:Nimbus Roman No9 L"
       id="text2985">
      <path
         d="m 153.24879,26.779247 -1.728,-1.728 c -9.35999,4.895995 -18.72001,7.344 -28.08,7.344 -25.199977,0 -41.904002,-17.856027 -41.904002,-45.072 0,-24.767975 14.112023,-40.032 36.864002,-40.032 10.79999,0 17.85601,2.736007 25.632,9.936 l 0.72,12.384 5.616,0 c 1.584,-13.823986 2.016,-16.560005 3.312,-22.032 l -0.864,-1.584 c -13.10399,-5.183995 -21.16801,-6.768 -33.696,-6.768 -36.431965,0 -59.184002,19.296031 -59.184002,50.112 0,32.255968 22.176036,52.416 57.744002,52.416 13.24798,0 21.74401,-2.016006 32.4,-7.92 l 3.168,-7.056"
         style="font-size:144px;font-weight:bold;text-align:start;writing-mode:lr-tb;text-anchor:start;font-family:URW Palladio L;-inkscape-font-specification:URW Palladio L Bold;fill:#eb2332;fill-opacity:1"
         id="path3010" />
      <path
         d="m 219.58329,-60.772753 c -34.84797,0 -55.152,19.296033 -55.152,52.2720002 0,31.9679678 18.86403,50.2559998 51.84,50.2559998 34.41596,0 54.72,-19.440033 54.72,-52.272 0,-31.679968 -18.86403,-50.256 -51.408,-50.256 m -1.296,8.064 c 7.63199,0 13.68,2.448005 18.72,7.344 7.91999,7.775992 12.384,21.600016 12.384,37.8720002 0,27.0719728 -11.08802,41.1839998 -32.112,41.1839998 -7.91999,0 -13.82401,-2.304005 -19.008,-7.488 -7.77599,-7.631992 -12.24,-21.4560164 -12.24,-38.016 0,-14.687985 3.6,-26.208006 10.08,-32.688 5.61599,-5.471994 13.10401,-8.208 22.176,-8.208"
         style="font-size:144px;font-weight:bold;text-align:start;writing-mode:lr-tb;text-anchor:start;font-family:URW Palladio L;-inkscape-font-specification:URW Palladio L Bold;fill:#f59600;fill-opacity:1"
         id="path3012" />
      <path
         d="m 315.91704,-38.884753 c 0,-12.815987 0.144,-13.104 6.912,-13.68 l 5.328,-0.432 0,-5.76 c -17.56798,0.432 -17.56801,0.432 -22.464,0.432 -4.896,0 -5.04002,0 -22.32,-0.432 l 0,5.76 5.328,0.432 c 6.76799,0.576 6.912,0.864013 6.912,13.68 l 0,64.512 c 0,4.895995 -0.72,7.056001 -2.88,8.208 l -4.608,2.592 0,3.312 c 14.25598,-0.431999 14.256,-0.432 17.568,-0.432 l 4.896,0 c 14.54398,0.432 20.30401,0.576 27.648,0.576 7.48799,0 11.95201,-0.144 20.304,-0.576 l 0.72,-1.152 1.584,-23.904 -5.616,0 -3.312,14.688 c -0.288,1.295999 -8.20801,2.448 -17.136,2.448 -6.048,0 -11.37601,-0.144 -18.864,-0.432 l 0,-69.84"
         style="font-size:144px;font-weight:bold;text-align:start;writing-mode:lr-tb;text-anchor:start;font-family:URW Palladio L;-inkscape-font-specification:URW Palladio L Bold;fill:#0f3cde;fill-opacity:1"
         id="path3014" />
      <path
         d="m 427.70829,-60.772753 c -34.84797,0 -55.152,19.296033 -55.152,52.2720002 0,31.9679678 18.86403,50.2559998 51.84,50.2559998 34.41596,0 54.72,-19.440033 54.72,-52.272 0,-31.679968 -18.86403,-50.256 -51.408,-50.256 m -1.296,8.064 c 7.63199,0 13.68,2.448005 18.72,7.344 7.91999,7.775992 12.384,21.600016 12.384,37.8720002 0,27.0719728 -11.08802,41.1839998 -32.112,41.1839998 -7.91999,0 -13.82401,-2.304005 -19.008,-7.488 -7.77599,-7.631992 -12.24,-21.4560164 -12.24,-38.016 0,-14.687985 3.6,-26.208006 10.08,-32.688 5.61599,-5.471994 13.10401,-8.208 22.176,-8.208"
         style="font-size:144px;font-weight:bold;text-align:start;writing-mode:lr-tb;text-anchor:start;font-family:URW Palladio L;-inkscape-font-specification:URW Palladio L Bold;fill:#009614;fill-opacity:1"
         id="path3016" />
      <path
         d="m 551.69004,-11.956753 c 8.06399,-3.311997 11.52,-5.472004 15.264,-9.792 4.17599,-4.463995 6.192,-9.792006 6.192,-15.84 0,-13.967986 -9.21602,-21.168 -27.36,-21.168 -1.584,0 -5.04001,0 -9.936,0.144 -3.744,0.144 -15.55201,0.288 -18.72,0.288 -4.032,0 -4.03202,0 -25.632,-0.432 l 0,5.328 5.328,0.432 c 6.47999,0.576 6.912,1.440013 6.912,14.112 l 0,58.752 c 0,12.815987 -0.14401,13.104001 -6.912,13.68 l -5.328,0.432 0,5.76 c 17.42398,-0.431999 17.424,-0.432 22.32,-0.432 4.89599,0 5.04002,1e-6 22.464,0.432 l 0,-5.76 -5.328,-0.432 c -6.768,-0.575999 -6.912,-0.864013 -6.912,-13.68 l 0,-70.128 c 2.016,-0.863999 4.752,-1.296 8.496,-1.296 12.81599,0 20.16,6.768012 20.16,18.432 0,7.631993 -3.60001,14.112004 -9.504,17.568 -3.6,2.159998 -7.20001,2.88 -13.536,2.736 l -1.008,2.592 32.256,49.968 12.96,-0.432 c 7.34399,0.144 8.64,0.144 13.968,0.432 l 0,-5.76 c -5.184,-1.007999 -6.62401,-1.872004 -10.08,-6.48 l -26.064,-39.456"
         style="font-size:144px;font-weight:bold;text-align:start;writing-mode:lr-tb;text-anchor:start;font-family:URW Palladio L;-inkscape-font-specification:URW Palladio L Bold;fill:#eb2332;fill-opacity:1"
         id="path3018" />
      <path
         d="m 682.82454,-11.956753 -15.408,-29.232 c -5.904,-10.943989 -9.79201,-15.696004 -16.416,-19.584 l -22.896,5.184 0,5.328 c 7.34399,0 10.22401,2.160012 18.72,14.4 l 14.544,23.472 c 2.304,3.8879963 4.032,7.0560053 6.336,12.24000016 l 0,20.01599984 c 0,12.815987 -0.14401,13.104001 -6.912,13.68 l -5.328,0.432 0,5.76 c 17.42398,-0.431999 17.424,-0.432 22.32,-0.432 4.89599,0 5.04002,1e-6 22.464,0.432 l 0,-5.76 -5.328,-0.432 c -6.768,-0.575999 -6.912,-0.864013 -6.912,-13.68 l 0,-23.4719998 c 2.736,-6.1919938 5.04,-10.5120042 7.632,-14.4000002 l 25.344,-37.584 0,-2.736 -11.088,0 -27.072,46.368"
         style="font-size:144px;font-weight:bold;text-align:start;writing-mode:lr-tb;text-anchor:start;font-family:URW Palladio L;-inkscape-font-specification:URW Palladio L Bold;fill:#787878;fill-opacity:1"
         id="path3020" />
      <path
         d="m 784.05204,-60.772753 c -34.84797,0 -55.152,19.296033 -55.152,52.2720002 0,31.9679678 18.86403,50.2559998 51.84,50.2559998 34.41596,0 54.72,-19.440033 54.72,-52.272 0,-31.679968 -18.86403,-50.256 -51.408,-50.256 m -1.296,8.064 c 7.63199,0 13.68,2.448005 18.72,7.344 7.91999,7.775992 12.384,21.600016 12.384,37.8720002 0,27.0719728 -11.08802,41.1839998 -32.112,41.1839998 -7.91999,0 -13.82401,-2.304005 -19.008,-7.488 -7.77599,-7.631992 -12.24,-21.4560164 -12.24,-38.016 0,-14.687985 3.6,-26.208006 10.08,-32.688 5.61599,-5.471994 13.10401,-8.208 22.176,-8.208"
         style="font-size:144px;font-weight:bold;text-align:start;writing-mode:lr-tb;text-anchor:start;font-family:URW Palladio L;-inkscape-font-specification:URW Palladio L Bold;fill:#787878;fill-opacity:1"
         id="path3022" />
      <path
         d="m 939.42579,-38.884753 c 0,-12.671987 0.432,-13.536 6.912,-14.112 l 5.328,-0.432 0,-5.328 c 0,0 -16.416,0.432 -16.416,0.432 -1.584,0 -3.88801,0 -16.56,-0.432 l 0,5.328 5.328,0.432 c 6.47999,0.576 6.912,1.440013 6.912,14.112 l 0,34.7040002 c 0,15.2639848 -1.87201,22.8960048 -6.768,27.9359998 -4.032,4.175996 -10.80001,6.192 -20.304,6.192 -9.93599,0 -16.41601,-2.304005 -20.304,-7.056 -3.744,-4.607995 -5.04,-11.376015 -5.04,-26.0639998 l 0,-35.7120002 c 0,-12.671987 0.432,-13.536 6.912,-14.112 l 5.328,-0.432 0,-5.328 c -17.56798,0.432 -17.56801,0.432 -22.464,0.432 -4.896,0 -5.04002,0 -22.32,-0.432 l 0,5.328 5.328,0.432 c 6.47999,0.576 6.912,1.440013 6.912,14.112 l 0,52.704 c 0,17.135983 15.55202,27.936 40.32,27.936 27.50397,0 40.896,-12.528026 40.896,-38.5919998 l 0,-42.0480002"
         style="font-size:144px;font-weight:bold;text-align:start;writing-mode:lr-tb;text-anchor:start;font-family:URW Palladio L;-inkscape-font-specification:URW Palladio L Bold;fill:#787878;fill-opacity:1"
         id="path3024" />
      <path
         d="m 1019.9713,-11.956753 c 8.064,-3.311997 11.52,-5.472004 15.264,-9.792 4.176,-4.463995 6.192,-9.792006 6.192,-15.84 0,-13.967986 -9.216,-21.168 -27.36,-21.168 -1.584,0 -5.04,0 -9.936,0.144 -3.744,0.144 -15.55202,0.288 -18.72001,0.288 -4.032,0 -4.03202,0 -25.632,-0.432 l 0,5.328 5.328,0.432 c 6.47999,0.576 6.912,1.440013 6.912,14.112 l 0,58.752 c 0,12.815987 -0.14401,13.104001 -6.912,13.68 l -5.328,0.432 0,5.76 c 17.42398,-0.431999 17.424,-0.432 22.32,-0.432 4.89599,0 5.04002,1e-6 22.46401,0.432 l 0,-5.76 -5.32801,-0.432 c -6.768,-0.575999 -6.912,-0.864013 -6.912,-13.68 l 0,-70.128 c 2.016,-0.863999 4.752,-1.296 8.49601,-1.296 12.816,0 20.16,6.768012 20.16,18.432 0,7.631993 -3.6,14.112004 -9.504,17.568 -3.6,2.159998 -7.2,2.88 -13.53601,2.736 l -1.008,2.592 32.25601,49.968 12.96,-0.432 c 7.344,0.144 8.64,0.144 13.968,0.432 l 0,-5.76 c -5.184,-1.007999 -6.624,-1.872004 -10.08,-6.48 l -26.064,-39.456"
         style="font-size:144px;font-weight:bold;text-align:start;writing-mode:lr-tb;text-anchor:start;font-family:URW Palladio L;-inkscape-font-specification:URW Palladio L Bold;fill:#787878;fill-opacity:1"
         id="path3026" />
      <path
         d="m 1132.3858,-38.884753 c 0,-12.815987 0.144,-13.104 6.912,-13.68 l 5.328,-0.432 0,-5.76 c -17.568,0.432 -17.568,0.432 -22.464,0.432 -4.896,0 -5.04,0 -22.32,-0.432 l 0,5.76 5.328,0.432 c 6.768,0.576 6.912,0.864013 6.912,13.68 l 0,64.512 c 0,4.895995 -0.72,7.056001 -2.88,8.208 l -4.608,2.592 0,3.312 c 14.256,-0.431999 14.256,-0.432 17.568,-0.432 l 4.896,0 c 14.544,0.432 20.304,0.576 27.648,0.576 7.488,0 11.952,-0.144 20.304,-0.576 l 0.72,-1.152 1.584,-23.904 -5.616,0 -3.312,14.688 c -0.288,1.295999 -8.208,2.448 -17.136,2.448 -6.048,0 -11.376,-0.144 -18.864,-0.432 l 0,-69.84"
         style="font-size:144px;font-weight:bold;text-align:start;writing-mode:lr-tb;text-anchor:start;font-family:URW Palladio L;-inkscape-font-specification:URW Palladio L Bold;fill:#787878;fill-opacity:1"
         id="path3028" />
      <path
         d="m 1249.793,9.6432472 6.48,16.4159998 c 0.576,1.439999 0.864,2.880001 0.864,4.032 0,2.159998 -1.296,3.744 -2.88,3.888 l -7.632,0.432 0,5.328 c 20.16,-0.431999 20.16,-0.432 21.888,-0.432 1.584,0 1.5841,1e-6 22.752,0.432 l 0,-5.328 -3.456,-0.432 c -4.032,-0.575999 -6.048,-2.160004 -7.92,-6.336 l -37.296,-87.12 -10.224,0 -4.032,10.8 c -2.016,5.615995 -3.456,9.360002 -4.176,10.944 l -26.064,63.072 c -2.448,5.615995 -4.896,8.352 -8.064,8.64 l -4.32,0.432 0,5.328 c 3.744,-0.144 7.056,-0.144 8.208,-0.288 4.032,-0.144 6.768,-0.144 8.064,-0.144 1.296,0 4.032,0 8.064,0.144 1.296,0.144 4.32,0.144 8.208,0.288 l 0,-5.328 -7.2,-0.432 c -2.448,-0.144 -4.176,-2.160002 -4.176,-4.608 0,-1.007999 0.288,-2.448001 0.72,-3.6 l 6.048,-16.1279998 36.144,0 m -18.288,-44.6400002 14.976,36.5760002 -29.376,0 14.4,-36.5760002"
         style="font-size:144px;font-weight:bold;text-align:start;writing-mode:lr-tb;text-anchor:start;font-family:URW Palladio L;-inkscape-font-specification:URW Palladio L Bold;fill:#787878;fill-opacity:1"
         id="path3030" />
      <path
         d="m 1316.5145,-58.324753 -3.024,0 c -1.296,0 -6.048,-0.144 -14.256,-0.432 l 0,5.328 5.328,0.432 c 6.48,0.576 6.912,1.440013 6.912,14.112 l 0,58.752 c 0,12.671987 -0.432,13.536001 -6.912,14.112 l -5.328,0.432 0,5.328 c 13.824,-0.431999 13.824,-0.432 16.56,-0.432 2.88,0 9.504,0.144 16.416,0.432 l 0,-5.328 -5.328,-0.432 c -6.48,-0.575999 -6.912,-1.296013 -6.912,-14.112 l 0,-56.592 46.944,56.448 17.568,20.016 11.808,1.872 1.008,-0.576 c -0.288,-8.063992 -0.432,-11.232003 -0.432,-14.544 l 0,-65.376 c 0,-12.671987 0.432,-13.536 6.912,-14.112 l 5.328,-0.432 0,-5.328 c 0,0 -16.416,0.432 -16.416,0.432 -1.584,0 -3.888,0 -16.56,-0.432 l 0,5.328 5.328,0.432 c 6.48,0.576 6.912,1.440013 6.912,14.112 l 0,51.696 -44.928,-52.416 c -3.024,-3.455996 -5.616,-6.912012 -14.832,-19.152 l -12.096,0.432"
         style="font-size:144px;font-weight:bold;text-align:start;writing-mode:lr-tb;text-anchor:start;font-family:URW Palladio L;-inkscape-font-specification:URW Palladio L Bold;fill:#787878;fill-opacity:1"
         id="path3032" />
      <path
         d="m 1526.0323,-0.43675284 c -17.856,0.43199957 -17.856,0.432 -21.6,0.432 -3.312,0 -8.928,-0.14400029 -20.592,-0.432 l 0,5.90400004 7.632,0.288 c 6.048,0.2879997 8.208,1.5840037 8.208,5.3279998 l 0,19.008 c -7.344,2.735997 -12.096,3.6 -18.288,3.6 -23.184,0 -38.736,-18.576027 -38.736,-45.936 0,-25.343974 13.824,-40.464 37.296,-40.464 7.344,0 14.976,1.440003 21.168,4.176 3.6,1.439999 4.896,2.448003 8.352,5.76 l 0.72,12.384 5.616,0 c 1.584,-13.823986 2.016,-16.560005 3.312,-22.032 l -0.864,-1.584 c -13.104,-4.895995 -23.472,-6.768 -37.584,-6.768 -36.864,0 -59.616,19.152031 -59.616,50.256 0,31.679968 22.176,52.272 56.304,52.272 14.544,0 25.488,-2.160006 42.768,-8.64 l 0,-23.4719998 c 0,-3.4559966 0.576,-4.0320012 5.904,-5.184 l 0,-4.89600004"
         style="font-size:144px;font-weight:bold;text-align:start;writing-mode:lr-tb;text-anchor:start;font-family:URW Palladio L;-inkscape-font-specification:URW Palladio L Bold;fill:#787878;fill-opacity:1"
         id="path3034" />
      <path
         d="m 1631.582,-38.884753 c 0,-12.671987 0.432,-13.536 6.912,-14.112 l 5.328,-0.432 0,-5.328 c 0,0 -16.416,0.432 -16.416,0.432 -1.584,0 -3.888,0 -16.56,-0.432 l 0,5.328 5.328,0.432 c 6.48,0.576 6.912,1.440013 6.912,14.112 l 0,34.7040002 c 0,15.2639848 -1.872,22.8960048 -6.768,27.9359998 -4.032,4.175996 -10.8,6.192 -20.304,6.192 -9.936,0 -16.416,-2.304005 -20.304,-7.056 -3.744,-4.607995 -5.04,-11.376015 -5.04,-26.0639998 l 0,-35.7120002 c 0,-12.671987 0.432,-13.536 6.912,-14.112 l 5.328,-0.432 0,-5.328 c -17.5679,0.432 -17.568,0.432 -22.464,0.432 -4.896,0 -5.04,0 -22.32,-0.432 l 0,5.328 5.328,0.432 c 6.48,0.576 6.912,1.440013 6.912,14.112 l 0,52.704 c 0,17.135983 15.5521,27.936 40.32,27.936 27.504,0 40.896,-12.528026 40.896,-38.5919998 l 0,-42.0480002"
         style="font-size:144px;font-weight:bold;text-align:start;writing-mode:lr-tb;text-anchor:start;font-family:URW Palladio L;-inkscape-font-specification:URW Palladio L Bold;fill:#787878;fill-opacity:1"
         id="path3036" />
      <path
         d="m 1713.8555,9.6432472 6.48,16.4159998 c 0.576,1.439999 0.864,2.880001 0.864,4.032 0,2.159998 -1.296,3.744 -2.88,3.888 l -7.632,0.432 0,5.328 c 20.16,-0.431999 20.16,-0.432 21.888,-0.432 1.584,0 1.5841,1e-6 22.752,0.432 l 0,-5.328 -3.456,-0.432 c -4.032,-0.575999 -6.048,-2.160004 -7.92,-6.336 l -37.296,-87.12 -10.224,0 -4.032,10.8 c -2.016,5.615995 -3.456,9.360002 -4.176,10.944 l -26.064,63.072 c -2.448,5.615995 -4.896,8.352 -8.064,8.64 l -4.32,0.432 0,5.328 c 3.744,-0.144 7.056,-0.144 8.208,-0.288 4.032,-0.144 6.768,-0.144 8.064,-0.144 1.296,0 4.032,0 8.064,0.144 1.296,0.144 4.32,0.144 8.208,0.288 l 0,-5.328 -7.2,-0.432 c -2.448,-0.144 -4.176,-2.160002 -4.176,-4.608 0,-1.007999 0.288,-2.448001 0.72,-3.6 l 6.048,-16.1279998 36.144,0 m -18.288,-44.6400002 14.976,36.5760002 -29.376,0 14.4,-36.5760002"
         style="font-size:144px;font-weight:bold;text-align:start;writing-mode:lr-tb;text-anchor:start;font-family:URW Palladio L;-inkscape-font-specification:URW Palladio L Bold;fill:#787878;fill-opacity:1"
         id="path3038" />
      <path
         d="m 1870.001,-0.43675284 c -17.8559,0.43199957 -17.856,0.432 -21.6,0.432 -3.312,0 -8.928,-0.14400029 -20.592,-0.432 l 0,5.90400004 7.632,0.288 c 6.048,0.2879997 8.208,1.5840037 8.208,5.3279998 l 0,19.008 c -7.344,2.735997 -12.096,3.6 -18.288,3.6 -23.1839,0 -38.736,-18.576027 -38.736,-45.936 0,-25.343974 13.8241,-40.464 37.296,-40.464 7.344,0 14.976,1.440003 21.168,4.176 3.6,1.439999 4.896,2.448003 8.352,5.76 l 0.72,12.384 5.616,0 c 1.584,-13.823986 2.016,-16.560005 3.312,-22.032 l -0.864,-1.584 c -13.1039,-4.895995 -23.472,-6.768 -37.584,-6.768 -36.8639,0 -59.616,19.152031 -59.616,50.256 0,31.679968 22.1761,52.272 56.304,52.272 14.544,0 25.4881,-2.160006 42.768,-8.64 l 0,-23.4719998 c 0,-3.4559966 0.576,-4.0320012 5.904,-5.184 l 0,-4.89600004"
         style="font-size:144px;font-weight:bold;text-align:start;writing-mode:lr-tb;text-anchor:start;font-family:URW Palladio L;-inkscape-font-specification:URW Palladio L Bold;fill:#787878;fill-opacity:1"
         id="path3040" />
      <path
         d="m 1916.5108,-49.972753 c 8.064,-0.431999 12.96,-0.576 20.88,-0.576 7.776,0 13.968,1.296002 14.112,2.88 l 1.152,10.8 5.184,0 2.016,-20.448 -0.864,-1.008 c -5.328,-0.431999 -8.064,-0.576 -13.68,-0.576 -3.312,0 -7.632,0.144 -15.552,0.288 -10.512,0.288 -14.544,0.288 -18.72,0.288 -5.04,0 -11.232,-0.144 -27.072,-0.432 l 0,5.328 5.328,0.432 c 6.48,0.576 6.912,1.440013 6.912,14.112 l 0,64.512 c 0,4.895995 -0.72,7.056001 -2.88,8.208 l -4.608,2.592 0,3.312 c 14.256,-0.431999 14.256,-0.432 17.568,-0.432 l 4.896,0 c 14.544,0.432 20.304,0.576 27.648,0.576 7.488,0 11.952,-0.144 20.304,-0.576 l 0.72,-1.152 1.584,-22.752 -5.616,0 -3.312,13.536 c 0,0.144 -0.144,0.288 -0.432,0.432 -4.464,1.439999 -8.64,2.016 -16.704,2.016 -5.904,0 -11.52,-0.144 -18.864,-0.432 l 0,-38.4479998 c 4.032,-0.2879998 6.48,-0.432 9.648,-0.432 l 9.504,0 c 5.472,0 7.776,1.5840037 8.208,5.328 l 0.864,7.2 5.76,0 c 0,0 -0.432,-15.5520002 -0.432,-15.5520002 0,-1.583998 0,-1.728014 0.432,-15.408 l -5.76,0 -0.864,8.208 c -0.288,2.303998 -2.16,3.024 -8.208,3.024 l -9.504,0 c -4.752,0 -6.768,0 -9.648,-0.288 l 0,-34.56"
         style="font-size:144px;font-weight:bold;text-align:start;writing-mode:lr-tb;text-anchor:start;font-family:URW Palladio L;-inkscape-font-specification:URW Palladio L Bold;fill:#787878;fill-opacity:1"
         id="path3042" />
      <path
         d="m 99.104788,121.38725 c -3.455996,0.144 -13.392002,0.288 -15.696,0.288 -2.015998,0 -6.192007,0 -12.816,-0.144 l -11.376,-0.288 0,5.328 5.328,0.432 c 6.479994,0.576 6.912,1.44001 6.912,14.112 l 0,64.512 c 0,4.89599 -0.720002,7.056 -2.88,8.208 l -4.608,2.592 0,3.312 c 10.36799,-0.288 14.112004,-0.432 18.144,-0.432 2.159998,0 5.184004,0 8.64,0.144 7.487993,0.144 11.376002,0.288 11.808002,0.288 23.03998,0 39.024,-12.96002 39.024,-31.536 0,-7.632 -2.88001,-13.96801 -7.92,-17.568 -5.184,-3.6 -10.08001,-4.896 -21.6,-5.616 12.09599,-4.32 16.272,-6.33601 20.736,-10.512 3.45599,-3.168 5.472,-8.35201 5.472,-13.824 0,-13.10399 -8.92802,-19.44 -27.216,-19.44 l -11.952002,0.144 m -7.344,47.808 4.32,0 c 16.703982,0 23.904002,6.33601 23.904002,21.024 0,14.97598 -6.76802,21.6 -22.032002,21.6 -2.159998,0 -3.744002,-0.144 -6.192,-0.576 l 0,-42.048 m 0,-40.176 c 3.455997,-0.432 5.616003,-0.576 8.352002,-0.576 11.66399,0 16.848,4.75201 16.848,15.408 0,12.52798 -6.33602,17.856 -20.880002,17.856 l -4.32,0 0,-32.688"
         style="font-size:144px;font-weight:bold;text-align:start;writing-mode:lr-tb;text-anchor:start;font-family:URW Palladio L;-inkscape-font-specification:URW Palladio L Bold;fill:#787878;fill-opacity:1"
         id="path3044" />
      <path
         d="m 187.94829,130.02725 c 8.06399,-0.432 12.96001,-0.576 20.88,-0.576 7.77599,0 13.968,1.296 14.112,2.88 l 1.152,10.8 5.184,0 2.016,-20.448 -0.864,-1.008 c -5.328,-0.432 -8.06401,-0.576 -13.68,-0.576 -3.312,0 -7.63201,0.144 -15.552,0.288 -10.51199,0.288 -14.54401,0.288 -18.72,0.288 -5.04,0 -11.23202,-0.144 -27.072,-0.432 l 0,5.328 5.328,0.432 c 6.47999,0.576 6.912,1.44001 6.912,14.112 l 0,64.512 c 0,4.89599 -0.72,7.056 -2.88,8.208 l -4.608,2.592 0,3.312 c 14.25598,-0.432 14.256,-0.432 17.568,-0.432 l 4.896,0 c 14.54398,0.432 20.30401,0.576 27.648,0.576 7.48799,0 11.95201,-0.144 20.304,-0.576 l 0.72,-1.152 1.584,-22.752 -5.616,0 -3.312,13.536 c 0,0.144 -0.144,0.288 -0.432,0.432 -4.464,1.44 -8.64001,2.016 -16.704,2.016 -5.904,0 -11.52001,-0.144 -18.864,-0.432 l 0,-38.448 c 4.03199,-0.288 6.48,-0.432 9.648,-0.432 l 9.504,0 c 5.47199,0 7.776,1.584 8.208,5.328 l 0.864,7.2 5.76,0 c 0,0 -0.432,-15.552 -0.432,-15.552 0,-1.584 0,-1.72802 0.432,-15.408 l -5.76,0 -0.864,8.208 c -0.288,2.30399 -2.16001,3.024 -8.208,3.024 l -9.504,0 c -4.752,0 -6.768,0 -9.648,-0.288 l 0,-34.56"
         style="font-size:144px;font-weight:bold;text-align:start;writing-mode:lr-tb;text-anchor:start;font-family:URW Palladio L;-inkscape-font-specification:URW Palladio L Bold;fill:#787878;fill-opacity:1"
         id="path3046" />
      <path
         d="m 311.97954,141.11525 c 0,-12.81599 0.144,-13.104 6.912,-13.68 l 5.328,-0.432 0,-5.76 c -17.56798,0.432 -17.56801,0.432 -22.464,0.432 -4.896,0 -5.04002,0 -22.32,-0.432 l 0,5.76 5.328,0.432 c 6.76799,0.576 6.912,0.86401 6.912,13.68 l 0,58.752 c 0,12.81598 -0.14401,13.104 -6.912,13.68 l -5.328,0.432 0,5.76 c 17.42398,-0.432 17.424,-0.432 22.32,-0.432 4.89599,0 5.04002,0 22.464,0.432 l 0,-5.76 -5.328,-0.432 c -6.768,-0.576 -6.912,-0.86402 -6.912,-13.68 l 0,-58.752"
         style="font-size:144px;font-weight:bold;text-align:start;writing-mode:lr-tb;text-anchor:start;font-family:URW Palladio L;-inkscape-font-specification:URW Palladio L Bold;fill:#787878;fill-opacity:1"
         id="path3048" />
      <path
         d="m 387.96429,130.17125 16.848,0 c 6.04799,0 7.632,0.288 8.928,1.296 l 1.296,3.456 0.72,9.936 5.76,0 c 0.288,-10.94399 0.72,-15.98401 1.872,-22.896 l -0.864,-0.72 c -39.74396,0.432 -39.74401,0.432 -44.64,0.432 -5.04,0 -5.04004,0 -44.784,-0.432 l -0.864,0.72 c 1.152,6.91199 1.44,11.95201 1.872,22.896 l 5.76,0 0.72,-9.936 c 0,-0.864 0.72,-2.592 1.152,-3.312 0.72,-1.008 3.024,-1.44 9.072,-1.44 l 16.848,0 0,69.696 c 0,12.81598 -0.14401,13.104 -6.912,13.68 l -5.328,0.432 0,5.76 c 17.42398,-0.432 17.424,-0.432 22.32,-0.432 4.89599,0 5.04002,0 22.464,0.432 l 0,-5.76 -5.328,-0.432 c -6.768,-0.576 -6.912,-0.86402 -6.912,-13.68 l 0,-69.696"
         style="font-size:144px;font-weight:bold;text-align:start;writing-mode:lr-tb;text-anchor:start;font-family:URW Palladio L;-inkscape-font-specification:URW Palladio L Bold;fill:#787878;fill-opacity:1"
         id="path3050" />
      <path
         d="m 507.47979,121.38725 c -3.456,0.144 -13.392,0.288 -15.696,0.288 -2.016,0 -6.19201,0 -12.816,-0.144 l -11.376,-0.288 0,5.328 5.328,0.432 c 6.47999,0.576 6.912,1.44001 6.912,14.112 l 0,64.512 c 0,4.89599 -0.72,7.056 -2.88,8.208 l -4.608,2.592 0,3.312 c 10.36799,-0.288 14.112,-0.432 18.144,-0.432 2.16,0 5.184,0 8.64,0.144 7.48799,0.144 11.376,0.288 11.808,0.288 23.03998,0 39.024,-12.96002 39.024,-31.536 0,-7.632 -2.88001,-13.96801 -7.92,-17.568 -5.184,-3.6 -10.08001,-4.896 -21.6,-5.616 12.09599,-4.32 16.272,-6.33601 20.736,-10.512 3.45599,-3.168 5.472,-8.35201 5.472,-13.824 0,-13.10399 -8.92802,-19.44 -27.216,-19.44 l -11.952,0.144 m -7.344,47.808 4.32,0 c 16.70398,0 23.904,6.33601 23.904,21.024 0,14.97598 -6.76802,21.6 -22.032,21.6 -2.16,0 -3.744,-0.144 -6.192,-0.576 l 0,-42.048 m 0,-40.176 c 3.45599,-0.432 5.616,-0.576 8.352,-0.576 11.66399,0 16.848,4.75201 16.848,15.408 0,12.52798 -6.33602,17.856 -20.88,17.856 l -4.32,0 0,-32.688"
         style="font-size:144px;font-weight:bold;text-align:start;writing-mode:lr-tb;text-anchor:start;font-family:URW Palladio L;-inkscape-font-specification:URW Palladio L Bold"
         id="path3052" />
      <path
         d="m 596.32329,141.11525 c 0,-12.81599 0.144,-13.104 6.912,-13.68 l 5.328,-0.432 0,-5.76 c -17.56798,0.432 -17.56801,0.432 -22.464,0.432 -4.896,0 -5.04002,0 -22.32,-0.432 l 0,5.76 5.328,0.432 c 6.76799,0.576 6.912,0.86401 6.912,13.68 l 0,64.512 c 0,4.89599 -0.72,7.056 -2.88,8.208 l -4.608,2.592 0,3.312 c 14.25598,-0.432 14.256,-0.432 17.568,-0.432 l 4.896,0 c 14.54398,0.432 20.30401,0.576 27.648,0.576 7.48799,0 11.95201,-0.144 20.304,-0.576 l 0.72,-1.152 1.584,-23.904 -5.616,0 -3.312,14.688 c -0.288,1.296 -8.20801,2.448 -17.136,2.448 -6.048,0 -11.37601,-0.144 -18.864,-0.432 l 0,-69.84"
         style="font-size:144px;font-weight:bold;text-align:start;writing-mode:lr-tb;text-anchor:start;font-family:URW Palladio L;-inkscape-font-specification:URW Palladio L Bold"
         id="path3054" />
      <path
         d="m 713.73054,189.64325 6.48,16.416 c 0.576,1.44 0.864,2.88 0.864,4.032 0,2.16 -1.296,3.744 -2.88,3.888 l -7.632,0.432 0,5.328 c 20.15998,-0.432 20.16,-0.432 21.888,-0.432 1.584,0 1.58402,0 22.752,0.432 l 0,-5.328 -3.456,-0.432 c -4.032,-0.576 -6.048,-2.16001 -7.92,-6.336 l -37.296,-87.12 -10.224,0 -4.032,10.8 c -2.016,5.61599 -3.456,9.36 -4.176,10.944 l -26.064,63.072 c -2.448,5.61599 -4.89601,8.352 -8.064,8.64 l -4.32,0.432 0,5.328 c 3.74399,-0.144 7.056,-0.144 8.208,-0.288 4.03199,-0.144 6.768,-0.144 8.064,-0.144 1.296,0 4.032,0 8.064,0.144 1.296,0.144 4.32,0.144 8.208,0.288 l 0,-5.328 -7.2,-0.432 c -2.448,-0.144 -4.176,-2.16001 -4.176,-4.608 0,-1.008 0.288,-2.448 0.72,-3.6 l 6.048,-16.128 36.144,0 m -18.288,-44.64 14.976,36.576 -29.376,0 14.4,-36.576"
         style="font-size:144px;font-weight:bold;text-align:start;writing-mode:lr-tb;text-anchor:start;font-family:URW Palladio L;-inkscape-font-specification:URW Palladio L Bold"
         id="path3056" />
      <path
         d="m 857.78004,206.77925 -1.728,-1.728 c -9.35999,4.89599 -18.72001,7.344 -28.08,7.344 -25.19998,0 -41.904,-17.85603 -41.904,-45.072 0,-24.76798 14.11202,-40.032 36.864,-40.032 10.79999,0 17.85601,2.736 25.632,9.936 l 0.72,12.384 5.616,0 c 1.584,-13.82399 2.016,-16.56001 3.312,-22.032 l -0.864,-1.584 c -13.10399,-5.184 -21.16801,-6.768 -33.696,-6.768 -36.43197,0 -59.184,19.29603 -59.184,50.112 0,32.25596 22.17603,52.416 57.744,52.416 13.24798,0 21.74401,-2.01601 32.4,-7.92 l 3.168,-7.056"
         style="font-size:144px;font-weight:bold;text-align:start;writing-mode:lr-tb;text-anchor:start;font-family:URW Palladio L;-inkscape-font-specification:URW Palladio L Bold"
         id="path3058" />
      <path
         d="m 900.35454,169.91525 0,-28.8 c 0,-12.81599 0.144,-13.104 6.912,-13.68 l 5.328,-0.432 0,-5.76 c -17.56798,0.432 -17.56801,0.432 -22.464,0.432 -4.896,0 -5.04002,0 -22.32,-0.432 l 0,5.76 5.328,0.432 c 6.76799,0.576 6.912,0.86401 6.912,13.68 l 0,58.752 c 0,12.81598 -0.14401,13.104 -6.912,13.68 l -5.328,0.432 0,5.76 c 17.42398,-0.432 17.424,-0.432 22.32,-0.432 4.89599,0 5.04002,0 22.464,0.432 l 0,-5.76 -5.328,-0.432 c -6.768,-0.576 -6.912,-0.86402 -6.912,-13.68 l 0,-28.368 c 3.74399,2.16 4.32001,2.73601 12.528,12.384 l 29.952,35.856 14.688,-0.432 c 1.008,0 2.30401,0 9.648,0.288 0.72,0 2.448,0 4.896,0.144 l 0,-5.904 c -5.328,-0.144 -8.64001,-2.01601 -13.104,-7.2 l -38.304,-45.072 31.968,-29.808 c 3.45599,-3.168 6.76801,-4.176 15.84,-4.896 l 0,-5.616 c -8.35199,0.288 -10.944,0.432 -13.104,0.432 -2.16,0 -4.75201,-0.144 -13.104,-0.432 l 0,3.6 c 0,2.16 -0.72,3.456 -3.744,6.624 -0.144,0.288 -0.72,1.008 -1.44,1.728 -3.6,4.03199 -7.056,7.632 -8.352,8.928 l -28.368,27.792"
         style="font-size:144px;font-weight:bold;text-align:start;writing-mode:lr-tb;text-anchor:start;font-family:URW Palladio L;-inkscape-font-specification:URW Palladio L Bold"
         id="path3060" />
      <path
         d="m 1047.86,141.11525 c 0,-12.81599 0.144,-13.104 6.912,-13.68 l 5.328,-0.432 0,-5.76 c -17.5679,0.432 -17.568,0.432 -22.464,0.432 -4.896,0 -5.04,0 -22.32,-0.432 l 0,5.76 5.328,0.432 c 6.768,0.576 6.912,0.86401 6.912,13.68 l 0,58.752 c 0,12.81598 -0.144,13.104 -6.912,13.68 l -5.328,0.432 0,5.76 c 17.424,-0.432 17.424,-0.432 22.32,-0.432 4.896,0 5.0401,0 22.464,0.432 l 0,-5.76 -5.328,-0.432 c -6.768,-0.576 -6.912,-0.86402 -6.912,-13.68 l 0,-27.36 c 3.744,-0.144 6.768,-0.288 11.664,-0.288 l 21.024,0 c 4.896,0 7.92,0.144 11.664,0.288 l 0,27.36 c 0,12.81598 -0.144,13.104 -6.912,13.68 l -5.328,0.432 0,5.76 c 17.424,-0.432 17.424,-0.432 22.32,-0.432 4.896,0 5.0401,0 22.464,0.432 l 0,-5.76 -5.328,-0.432 c -6.768,-0.576 -6.912,-0.86402 -6.912,-13.68 l 0,-58.752 c 0,-12.81599 0.144,-13.104 6.912,-13.68 l 5.328,-0.432 0,-5.76 c -17.5679,0.432 -17.568,0.432 -22.464,0.432 -4.896,0 -5.04,0 -22.32,-0.432 l 0,5.76 5.328,0.432 c 6.768,0.576 6.912,0.86401 6.912,13.68 l 0,22.752 c -3.456,0.288 -6.192,0.288 -11.664,0.288 l -21.024,0 c -5.472,0 -8.352,0 -11.664,-0.288 l 0,-22.752"
         style="font-size:144px;font-weight:bold;text-align:start;writing-mode:lr-tb;text-anchor:start;font-family:URW Palladio L;-inkscape-font-specification:URW Palladio L Bold;fill:#787878;fill-opacity:1"
         id="path3062" />
      <path
         d="m 1227.4258,141.11525 c 0,-12.67199 0.432,-13.536 6.912,-14.112 l 5.328,-0.432 0,-5.328 c 0,0 -16.416,0.432 -16.416,0.432 -1.584,0 -3.888,0 -16.56,-0.432 l 0,5.328 5.328,0.432 c 6.48,0.576 6.912,1.44001 6.912,14.112 l 0,34.704 c 0,15.26398 -1.872,22.896 -6.768,27.936 -4.032,4.17599 -10.8,6.192 -20.304,6.192 -9.936,0 -16.416,-2.30401 -20.304,-7.056 -3.744,-4.608 -5.04,-11.37602 -5.04,-26.064 l 0,-35.712 c 0,-12.67199 0.432,-13.536 6.912,-14.112 l 5.328,-0.432 0,-5.328 c -17.568,0.432 -17.568,0.432 -22.464,0.432 -4.896,0 -5.04,0 -22.32,-0.432 l 0,5.328 5.328,0.432 c 6.48,0.576 6.912,1.44001 6.912,14.112 l 0,52.704 c 0,17.13598 15.552,27.936 40.32,27.936 27.504,0 40.896,-12.52803 40.896,-38.592 l 0,-42.048"
         style="font-size:144px;font-weight:bold;text-align:start;writing-mode:lr-tb;text-anchor:start;font-family:URW Palladio L;-inkscape-font-specification:URW Palladio L Bold;fill:#787878;fill-opacity:1"
         id="path3064" />
      <path
         d="m 1349.0113,139.96325 0,59.904 c 0,12.81598 -0.144,13.104 -6.912,13.68 l -5.328,0.432 0,5.76 c 17.424,-0.432 17.424,-0.432 22.32,-0.432 4.896,0 5.04,0 22.464,0.432 l 0,-5.76 -5.328,-0.432 c -6.768,-0.576 -6.912,-0.86402 -6.912,-13.68 l 0,-58.752 c 0,-12.67199 0.432,-13.536 6.912,-14.112 l 5.328,-0.432 0,-5.328 c -15.12,0.432 -15.12,0.432 -16.704,0.432 -1.584,0 -1.584,0 -16.56,-0.432 -4.176,9.93599 -5.472,12.96 -7.056,16.272 l -26.352,54.432 -22.752,-47.52 -10.8,-23.184 -17.28,0.432 c -2.304,0 -5.616,-0.144 -9.936,-0.288 -2.16,0 -2.304,0 -7.344,-0.144 l 0,5.328 5.328,0.432 c 6.48,0.576 6.912,1.44001 6.912,14.112 l 0,58.752 c 0,12.67198 -0.432,13.536 -6.912,14.112 l -5.328,0.432 0,5.328 c 13.824,-0.432 13.824,-0.432 16.56,-0.432 2.88,0 9.504,0.144 16.416,0.432 l 0,-5.328 -5.328,-0.432 c -6.48,-0.576 -6.912,-1.29602 -6.912,-14.112 l 0,-60.048 33.12,68.976 c 1.008,2.16 2.592,5.616 5.184,11.952 l 4.896,0 c 2.736,-6.624 3.312,-8.06401 8.64,-19.008 l 29.664,-61.776"
         style="font-size:144px;font-weight:bold;text-align:start;writing-mode:lr-tb;text-anchor:start;font-family:URW Palladio L;-inkscape-font-specification:URW Palladio L Bold;fill:#787878;fill-opacity:1"
         id="path3066" />
      <path
         d="m 1448.0833,119.22725 c -34.848,0 -55.152,19.29603 -55.152,52.272 0,31.96797 18.864,50.256 51.84,50.256 34.416,0 54.72,-19.44004 54.72,-52.272 0,-31.67997 -18.864,-50.256 -51.408,-50.256 m -1.296,8.064 c 7.632,0 13.68,2.448 18.72,7.344 7.92,7.77599 12.384,21.60001 12.384,37.872 0,27.07197 -11.088,41.184 -32.112,41.184 -7.92,0 -13.824,-2.30401 -19.008,-7.488 -7.776,-7.632 -12.24,-21.45602 -12.24,-38.016 0,-14.68799 3.6,-26.20801 10.08,-32.688 5.616,-5.472 13.104,-8.208 22.176,-8.208"
         style="font-size:144px;font-weight:bold;text-align:start;writing-mode:lr-tb;text-anchor:start;font-family:URW Palladio L;-inkscape-font-specification:URW Palladio L Bold;fill:#787878;fill-opacity:1"
         id="path3068" />
      <path
         d="m 1572.065,168.04325 c 8.064,-3.312 11.52,-5.47201 15.264,-9.792 4.176,-4.464 6.192,-9.79201 6.192,-15.84 0,-13.96799 -9.216,-21.168 -27.36,-21.168 -1.584,0 -5.04,0 -9.936,0.144 -3.744,0.144 -15.552,0.288 -18.72,0.288 -4.032,0 -4.032,0 -25.632,-0.432 l 0,5.328 5.328,0.432 c 6.48,0.576 6.912,1.44001 6.912,14.112 l 0,58.752 c 0,12.81598 -0.144,13.104 -6.912,13.68 l -5.328,0.432 0,5.76 c 17.424,-0.432 17.424,-0.432 22.32,-0.432 4.896,0 5.0401,0 22.464,0.432 l 0,-5.76 -5.328,-0.432 c -6.768,-0.576 -6.912,-0.86402 -6.912,-13.68 l 0,-70.128 c 2.016,-0.864 4.752,-1.296 8.496,-1.296 12.816,0 20.16,6.76801 20.16,18.432 0,7.63199 -3.6,14.112 -9.504,17.568 -3.6,2.16 -7.2,2.88 -13.536,2.736 l -1.008,2.592 32.256,49.968 12.96,-0.432 c 7.344,0.144 8.64,0.144 13.968,0.432 l 0,-5.76 c -5.184,-1.008 -6.624,-1.87201 -10.08,-6.48 l -26.064,-39.456"
         style="font-size:144px;font-weight:bold;text-align:start;writing-mode:lr-tb;text-anchor:start;font-family:URW Palladio L;-inkscape-font-specification:URW Palladio L Bold;fill:#787878;fill-opacity:1"
         id="path3070" />
      <path
         d="m 1621.8395,238.89125 c 11.232,-17.99998 15.984,-26.35201 21.168,-37.584 l -2.448,-2.304 c -6.768,2.16 -11.52,3.456 -19.296,5.472 -1.152,10.22399 -5.472,24.04801 -11.808,36.864 l 2.16,1.872 10.224,-4.32"
         style="font-size:144px;font-weight:bold;text-align:start;writing-mode:lr-tb;text-anchor:start;font-family:URW Palladio L;-inkscape-font-specification:URW Palladio L Bold"
         id="path3072" />
      <path
         d="m 99.680788,369.49925 -11.808,-55.152 c -0.288,-1.296 -0.432,-2.592 -0.432,-3.744 0,-1.728 2.016002,-3.456 4.32,-3.6 l 6.048,-0.432 0,-5.328 c -17.567982,0.432 -17.568002,0.432 -19.296,0.432 0,0 -22.464,-0.432 -22.464,-0.432 l 0,5.328 4.608,0.432 c 2.735997,0.288 4.320001,2.016 5.328,6.048 l 20.016,86.688 10.08,0 c 4.319992,-11.95199 5.472002,-14.83201 6.768002,-18 l 22.32,-51.12 21.456,54 c 1.008,2.73599 1.872,4.752 3.024,8.208 1.296,3.59999 1.296,3.888 2.448,6.912 l 10.512,0 c 2.88,-13.10399 3.744,-16.84801 4.752,-20.592 l 17.568,-62.208 c 1.872,-6.624 3.744,-9.648 6.192,-9.936 l 4.752,-0.432 0,-5.328 c -14.39999,0.432 -14.4,0.432 -15.84,0.432 -1.44,0 -3.88801,0 -7.632,-0.144 -1.008,-0.144 -4.17601,-0.144 -7.632,-0.288 l 0,5.328 6.624,0.432 c 3.31199,0.144 5.04,1.296 5.04,3.312 0,1.44 -0.144,2.736 -0.576,4.32 l -13.968,54.432 -19.728,-49.392 c -2.304,-5.616 -4.032,-10.51201 -7.056,-19.152 l -6.48,0 -3.168,7.632 c -1.44,3.45599 -2.736,6.912 -4.176,10.224 l -21.600002,51.12"
         style="font-size:144px;font-weight:bold;text-align:start;writing-mode:lr-tb;text-anchor:start;font-family:URW Palladio L;-inkscape-font-specification:URW Palladio L Bold;fill:#ffffff;fill-opacity:1"
         id="path3074" />
      <path
         d="m 235.32879,321.11525 c 0,-12.81599 0.144,-13.104 6.912,-13.68 l 5.328,-0.432 0,-5.76 c -17.56798,0.432 -17.56801,0.432 -22.464,0.432 -4.896,0 -5.04002,0 -22.32,-0.432 l 0,5.76 5.328,0.432 c 6.76799,0.576 6.912,0.86401 6.912,13.68 l 0,58.752 c 0,12.81598 -0.14401,13.104 -6.912,13.68 l -5.328,0.432 0,5.76 c 17.42398,-0.432 17.424,-0.432 22.32,-0.432 4.89599,0 5.04002,0 22.464,0.432 l 0,-5.76 -5.328,-0.432 c -6.768,-0.576 -6.912,-0.86402 -6.912,-13.68 l 0,-27.36 c 3.74399,-0.144 6.768,-0.288 11.664,-0.288 l 21.024,0 c 4.89599,0 7.92,0.144 11.664,0.288 l 0,27.36 c 0,12.81598 -0.14401,13.104 -6.912,13.68 l -5.328,0.432 0,5.76 c 17.42398,-0.432 17.424,-0.432 22.32,-0.432 4.89599,0 5.04002,0 22.464,0.432 l 0,-5.76 -5.328,-0.432 c -6.768,-0.576 -6.912,-0.86402 -6.912,-13.68 l 0,-58.752 c 0,-12.81599 0.144,-13.104 6.912,-13.68 l 5.328,-0.432 0,-5.76 c -17.56798,0.432 -17.56801,0.432 -22.464,0.432 -4.896,0 -5.04002,0 -22.32,-0.432 l 0,5.76 5.328,0.432 c 6.76799,0.576 6.912,0.86401 6.912,13.68 l 0,22.752 c -3.456,0.288 -6.19201,0.288 -11.664,0.288 l -21.024,0 c -5.472,0 -8.35201,0 -11.664,-0.288 l 0,-22.752"
         style="font-size:144px;font-weight:bold;text-align:start;writing-mode:lr-tb;text-anchor:start;font-family:URW Palladio L;-inkscape-font-specification:URW Palladio L Bold;fill:#ffffff;fill-opacity:1"
         id="path3076" />
      <path
         d="m 355.85454,321.11525 c 0,-12.81599 0.144,-13.104 6.912,-13.68 l 5.328,-0.432 0,-5.76 c -17.56798,0.432 -17.56801,0.432 -22.464,0.432 -4.896,0 -5.04002,0 -22.32,-0.432 l 0,5.76 5.328,0.432 c 6.76799,0.576 6.912,0.86401 6.912,13.68 l 0,58.752 c 0,12.81598 -0.14401,13.104 -6.912,13.68 l -5.328,0.432 0,5.76 c 17.42398,-0.432 17.424,-0.432 22.32,-0.432 4.89599,0 5.04002,0 22.464,0.432 l 0,-5.76 -5.328,-0.432 c -6.768,-0.576 -6.912,-0.86402 -6.912,-13.68 l 0,-58.752"
         style="font-size:144px;font-weight:bold;text-align:start;writing-mode:lr-tb;text-anchor:start;font-family:URW Palladio L;-inkscape-font-specification:URW Palladio L Bold;fill:#ffffff;fill-opacity:1"
         id="path3078" />
      <path
         d="m 431.83929,310.17125 16.848,0 c 6.04799,0 7.632,0.288 8.928,1.296 l 1.296,3.456 0.72,9.936 5.76,0 c 0.288,-10.94399 0.72,-15.98401 1.872,-22.896 l -0.864,-0.72 c -39.74396,0.432 -39.74401,0.432 -44.64,0.432 -5.04,0 -5.04004,0 -44.784,-0.432 l -0.864,0.72 c 1.152,6.91199 1.44,11.95201 1.872,22.896 l 5.76,0 0.72,-9.936 c 0,-0.864 0.72,-2.592 1.152,-3.312 0.72,-1.008 3.024,-1.44 9.072,-1.44 l 16.848,0 0,69.696 c 0,12.81598 -0.14401,13.104 -6.912,13.68 l -5.328,0.432 0,5.76 c 17.42398,-0.432 17.424,-0.432 22.32,-0.432 4.89599,0 5.04002,0 22.464,0.432 l 0,-5.76 -5.328,-0.432 c -6.768,-0.576 -6.912,-0.86402 -6.912,-13.68 l 0,-69.696"
         style="font-size:144px;font-weight:bold;text-align:start;writing-mode:lr-tb;text-anchor:start;font-family:URW Palladio L;-inkscape-font-specification:URW Palladio L Bold;fill:#ffffff;fill-opacity:1"
         id="path3080" />
      <path
         d="m 508.01079,310.02725 c 8.06399,-0.432 12.96001,-0.576 20.88,-0.576 7.77599,0 13.968,1.296 14.112,2.88 l 1.152,10.8 5.184,0 2.016,-20.448 -0.864,-1.008 c -5.328,-0.432 -8.06401,-0.576 -13.68,-0.576 -3.312,0 -7.63201,0.144 -15.552,0.288 -10.51199,0.288 -14.54401,0.288 -18.72,0.288 -5.04,0 -11.23202,-0.144 -27.072,-0.432 l 0,5.328 5.328,0.432 c 6.47999,0.576 6.912,1.44001 6.912,14.112 l 0,64.512 c 0,4.89599 -0.72,7.056 -2.88,8.208 l -4.608,2.592 0,3.312 c 14.25598,-0.432 14.256,-0.432 17.568,-0.432 l 4.896,0 c 14.54398,0.432 20.30401,0.576 27.648,0.576 7.48799,0 11.95201,-0.144 20.304,-0.576 l 0.72,-1.152 1.584,-22.752 -5.616,0 -3.312,13.536 c 0,0.144 -0.144,0.288 -0.432,0.432 -4.464,1.44 -8.64001,2.016 -16.704,2.016 -5.904,0 -11.52001,-0.144 -18.864,-0.432 l 0,-38.448 c 4.03199,-0.288 6.48,-0.432 9.648,-0.432 l 9.504,0 c 5.47199,0 7.776,1.584 8.208,5.328 l 0.864,7.2 5.76,0 c 0,0 -0.432,-15.552 -0.432,-15.552 0,-1.584 0,-1.72802 0.432,-15.408 l -5.76,0 -0.864,8.208 c -0.288,2.30399 -2.16001,3.024 -8.208,3.024 l -9.504,0 c -4.752,0 -6.768,0 -9.648,-0.288 l 0,-34.56"
         style="font-size:144px;font-weight:bold;text-align:start;writing-mode:lr-tb;text-anchor:start;font-family:URW Palladio L;-inkscape-font-specification:URW Palladio L Bold;fill:#ffffff;fill-opacity:1"
         id="path3082" />
      <path
         d="m 632.04204,321.11525 c 0,-12.81599 0.144,-13.104 6.912,-13.68 l 5.328,-0.432 0,-5.76 c -17.56798,0.432 -17.56801,0.432 -22.464,0.432 -4.896,0 -5.04002,0 -22.32,-0.432 l 0,5.76 5.328,0.432 c 6.76799,0.576 6.912,0.86401 6.912,13.68 l 0,64.512 c 0,4.89599 -0.72,7.056 -2.88,8.208 l -4.608,2.592 0,3.312 c 14.25598,-0.432 14.256,-0.432 17.568,-0.432 l 4.896,0 c 14.54398,0.432 20.30401,0.576 27.648,0.576 7.48799,0 11.95201,-0.144 20.304,-0.576 l 0.72,-1.152 1.584,-23.904 -5.616,0 -3.312,14.688 c -0.288,1.296 -8.20801,2.448 -17.136,2.448 -6.048,0 -11.37601,-0.144 -18.864,-0.432 l 0,-69.84"
         style="font-size:144px;font-weight:bold;text-align:start;writing-mode:lr-tb;text-anchor:start;font-family:URW Palladio L;-inkscape-font-specification:URW Palladio L Bold;fill:#787878;fill-opacity:1"
         id="path3084" />
      <path
         d="m 720.07329,321.11525 c 0,-12.81599 0.144,-13.104 6.912,-13.68 l 5.328,-0.432 0,-5.76 c -17.56798,0.432 -17.56801,0.432 -22.464,0.432 -4.896,0 -5.04002,0 -22.32,-0.432 l 0,5.76 5.328,0.432 c 6.76799,0.576 6.912,0.86401 6.912,13.68 l 0,58.752 c 0,12.81598 -0.14401,13.104 -6.912,13.68 l -5.328,0.432 0,5.76 c 17.42398,-0.432 17.424,-0.432 22.32,-0.432 4.89599,0 5.04002,0 22.464,0.432 l 0,-5.76 -5.328,-0.432 c -6.768,-0.576 -6.912,-0.86402 -6.912,-13.68 l 0,-58.752"
         style="font-size:144px;font-weight:bold;text-align:start;writing-mode:lr-tb;text-anchor:start;font-family:URW Palladio L;-inkscape-font-specification:URW Palladio L Bold;fill:#787878;fill-opacity:1"
         id="path3086" />
      <path
         d="m 776.04204,310.02725 c 8.06399,-0.432 12.96001,-0.576 20.88,-0.576 7.77599,0 13.968,1.296 14.112,2.88 l 1.152,10.8 5.184,0 2.016,-20.448 -0.864,-1.008 c -5.328,-0.432 -8.06401,-0.576 -13.68,-0.576 -3.312,0 -7.63201,0.144 -15.552,0.288 -10.51199,0.288 -14.54401,0.288 -18.72,0.288 -5.04,0 -11.23202,-0.144 -27.072,-0.432 l 0,5.328 5.328,0.432 c 6.47999,0.576 6.912,1.44001 6.912,14.112 l 0,64.512 c 0,4.89599 -0.72,7.056 -2.88,8.208 l -4.608,2.592 0,3.312 c 14.25598,-0.432 14.256,-0.432 17.568,-0.432 l 4.896,0 c 14.54398,0.432 20.30401,0.576 27.648,0.576 7.48799,0 11.95201,-0.144 20.304,-0.576 l 0.72,-1.152 1.584,-22.752 -5.616,0 -3.312,13.536 c 0,0.144 -0.144,0.288 -0.432,0.432 -4.464,1.44 -8.64001,2.016 -16.704,2.016 -5.904,0 -11.52001,-0.144 -18.864,-0.432 l 0,-38.448 c 4.03199,-0.288 6.48,-0.432 9.648,-0.432 l 9.504,0 c 5.47199,0 7.776,1.584 8.208,5.328 l 0.864,7.2 5.76,0 c 0,0 -0.432,-15.552 -0.432,-15.552 0,-1.584 0,-1.72802 0.432,-15.408 l -5.76,0 -0.864,8.208 c -0.288,2.30399 -2.16001,3.024 -8.208,3.024 l -9.504,0 c -4.752,0 -6.768,0 -9.648,-0.288 l 0,-34.56"
         style="font-size:144px;font-weight:bold;text-align:start;writing-mode:lr-tb;text-anchor:start;font-family:URW Palladio L;-inkscape-font-specification:URW Palladio L Bold;fill:#787878;fill-opacity:1"
         id="path3088" />
      <path
         d="m 836.28129,370.21925 c 0,10.79999 -0.576,16.70401 -2.16,24.912 10.51199,4.75199 19.15201,6.624 29.952,6.624 25.77597,0 42.336,-13.39202 42.336,-34.128 0,-12.81599 -7.48802,-21.60001 -21.744,-25.344 l -16.416,-4.32 c -10.65599,-2.736 -15.264,-7.20001 -15.264,-14.544 0,-9.93599 7.92001,-16.848 19.296,-16.848 7.63199,0 14.112,2.592 19.584,7.92 l 0.864,11.808 5.904,0 c 0,-9.35999 0.72,-16.27201 2.016,-20.448 l -0.72,-1.728 c -9.64799,-3.456 -17.13601,-4.896 -26.64,-4.896 -23.90398,0 -38.16,11.52002 -38.16,30.816 0,12.38398 7.48801,21.456 21.024,25.488 l 20.16,6.048 c 8.06399,2.44799 11.952,6.912 11.952,13.824 0,10.65599 -9.21601,18.576 -21.6,18.576 -9.79199,0 -19.15201,-4.32001 -23.616,-11.088 l -1.008,-12.672 -5.76,0"
         style="font-size:144px;font-weight:bold;text-align:start;writing-mode:lr-tb;text-anchor:start;font-family:URW Palladio L;-inkscape-font-specification:URW Palladio L Bold;fill:#787878;fill-opacity:1"
         id="path3090" />
      <path
         d="m 925.46454,418.89125 c 11.23199,-17.99998 15.984,-26.35201 21.168,-37.584 l -2.448,-2.304 c -6.768,2.16 -11.52001,3.456 -19.296,5.472 -1.152,10.22399 -5.47201,24.04801 -11.808,36.864 l 2.16,1.872 10.224,-4.32"
         style="font-size:144px;font-weight:bold;text-align:start;writing-mode:lr-tb;text-anchor:start;font-family:URW Palladio L;-inkscape-font-specification:URW Palladio L Bold"
         id="path3092" />
      <path
         d="m 1024.1045,310.02725 c 8.064,-0.432 12.96,-0.576 20.88,-0.576 7.776,0 13.968,1.296 14.112,2.88 l 1.152,10.8 5.184,0 2.016,-20.448 -0.864,-1.008 c -5.328,-0.432 -8.064,-0.576 -13.68,-0.576 -3.312,0 -7.632,0.144 -15.552,0.288 -10.512,0.288 -14.544,0.288 -18.72,0.288 -5.04,0 -11.232,-0.144 -27.07196,-0.432 l 0,5.328 5.328,0.432 c 6.47996,0.576 6.91196,1.44001 6.91196,14.112 l 0,64.512 c 0,4.89599 -0.72,7.056 -2.88,8.208 l -4.60796,2.592 0,3.312 c 14.25596,-0.432 14.25596,-0.432 17.56796,-0.432 l 4.896,0 c 14.544,0.432 20.304,0.576 27.648,0.576 7.488,0 11.952,-0.144 20.304,-0.576 l 0.72,-1.152 1.584,-22.752 -5.616,0 -3.312,13.536 c 0,0.144 -0.144,0.288 -0.432,0.432 -4.464,1.44 -8.64,2.016 -16.704,2.016 -5.904,0 -11.52,-0.144 -18.864,-0.432 l 0,-38.448 c 4.032,-0.288 6.48,-0.432 9.648,-0.432 l 9.504,0 c 5.472,0 7.776,1.584 8.208,5.328 l 0.864,7.2 5.76,0 c 0,0 -0.432,-15.552 -0.432,-15.552 0,-1.584 0,-1.72802 0.432,-15.408 l -5.76,0 -0.864,8.208 c -0.288,2.30399 -2.16,3.024 -8.208,3.024 l -9.504,0 c -4.752,0 -6.768,0 -9.648,-0.288 l 0,-34.56"
         style="font-size:144px;font-weight:bold;text-align:start;writing-mode:lr-tb;text-anchor:start;font-family:URW Palladio L;-inkscape-font-specification:URW Palladio L Bold;fill:#787878;fill-opacity:1"
         id="path3094" />
      <path
         d="m 1132.1518,310.17125 16.848,0 c 6.048,0 7.632,0.288 8.928,1.296 l 1.296,3.456 0.72,9.936 5.76,0 c 0.288,-10.94399 0.72,-15.98401 1.872,-22.896 l -0.864,-0.72 c -39.744,0.432 -39.744,0.432 -44.64,0.432 -5.04,0 -5.0401,0 -44.784,-0.432 l -0.864,0.72 c 1.152,6.91199 1.44,11.95201 1.872,22.896 l 5.76,0 0.72,-9.936 c 0,-0.864 0.72,-2.592 1.152,-3.312 0.72,-1.008 3.024,-1.44 9.072,-1.44 l 16.848,0 0,69.696 c 0,12.81598 -0.144,13.104 -6.912,13.68 l -5.328,0.432 0,5.76 c 17.424,-0.432 17.424,-0.432 22.32,-0.432 4.896,0 5.04,0 22.464,0.432 l 0,-5.76 -5.328,-0.432 c -6.768,-0.576 -6.912,-0.86402 -6.912,-13.68 l 0,-69.696"
         style="font-size:144px;font-weight:bold;text-align:start;writing-mode:lr-tb;text-anchor:start;font-family:URW Palladio L;-inkscape-font-specification:URW Palladio L Bold;fill:#787878;fill-opacity:1"
         id="path3096" />
      <path
         d="m 1305.8113,386.77925 -1.728,-1.728 c -9.36,4.89599 -18.72,7.344 -28.08,7.344 -25.2,0 -41.904,-17.85603 -41.904,-45.072 0,-24.76798 14.112,-40.032 36.864,-40.032 10.8,0 17.856,2.736 25.632,9.936 l 0.72,12.384 5.616,0 c 1.584,-13.82399 2.016,-16.56001 3.312,-22.032 l -0.864,-1.584 c -13.104,-5.184 -21.168,-6.768 -33.696,-6.768 -36.432,0 -59.184,19.29603 -59.184,50.112 0,32.25596 22.176,52.416 57.744,52.416 13.248,0 21.744,-2.01601 32.4,-7.92 l 3.168,-7.056"
         style="font-size:144px;font-weight:bold;text-align:start;writing-mode:lr-tb;text-anchor:start;font-family:URW Palladio L;-inkscape-font-specification:URW Palladio L Bold;fill:#787878;fill-opacity:1"
         id="path3098" />
      <path
         d="m 1348.3858,310.02725 c 8.064,-0.432 12.96,-0.576 20.88,-0.576 7.776,0 13.968,1.296 14.112,2.88 l 1.152,10.8 5.184,0 2.016,-20.448 -0.864,-1.008 c -5.328,-0.432 -8.064,-0.576 -13.68,-0.576 -3.312,0 -7.632,0.144 -15.552,0.288 -10.512,0.288 -14.544,0.288 -18.72,0.288 -5.04,0 -11.232,-0.144 -27.072,-0.432 l 0,5.328 5.328,0.432 c 6.48,0.576 6.912,1.44001 6.912,14.112 l 0,64.512 c 0,4.89599 -0.72,7.056 -2.88,8.208 l -4.608,2.592 0,3.312 c 14.256,-0.432 14.256,-0.432 17.568,-0.432 l 4.896,0 c 14.544,0.432 20.304,0.576 27.648,0.576 7.488,0 11.952,-0.144 20.304,-0.576 l 0.72,-1.152 1.584,-22.752 -5.616,0 -3.312,13.536 c 0,0.144 -0.144,0.288 -0.432,0.432 -4.464,1.44 -8.64,2.016 -16.704,2.016 -5.904,0 -11.52,-0.144 -18.864,-0.432 l 0,-38.448 c 4.032,-0.288 6.48,-0.432 9.648,-0.432 l 9.504,0 c 5.472,0 7.776,1.584 8.208,5.328 l 0.864,7.2 5.76,0 c 0,0 -0.432,-15.552 -0.432,-15.552 0,-1.584 0,-1.72802 0.432,-15.408 l -5.76,0 -0.864,8.208 c -0.288,2.30399 -2.16,3.024 -8.208,3.024 l -9.504,0 c -4.752,0 -6.768,0 -9.648,-0.288 l 0,-34.56"
         style="font-size:144px;font-weight:bold;text-align:start;writing-mode:lr-tb;text-anchor:start;font-family:URW Palladio L;-inkscape-font-specification:URW Palladio L Bold;fill:#787878;fill-opacity:1"
         id="path3100" />
      <path
         d="m 1456.433,310.17125 16.848,0 c 6.048,0 7.632,0.288 8.928,1.296 l 1.296,3.456 0.72,9.936 5.76,0 c 0.288,-10.94399 0.72,-15.98401 1.872,-22.896 l -0.864,-0.72 c -39.7439,0.432 -39.744,0.432 -44.64,0.432 -5.04,0 -5.04,0 -44.784,-0.432 l -0.864,0.72 c 1.152,6.91199 1.44,11.95201 1.872,22.896 l 5.76,0 0.72,-9.936 c 0,-0.864 0.72,-2.592 1.152,-3.312 0.72,-1.008 3.024,-1.44 9.072,-1.44 l 16.848,0 0,69.696 c 0,12.81598 -0.144,13.104 -6.912,13.68 l -5.328,0.432 0,5.76 c 17.424,-0.432 17.424,-0.432 22.32,-0.432 4.896,0 5.0401,0 22.464,0.432 l 0,-5.76 -5.328,-0.432 c -6.768,-0.576 -6.912,-0.86402 -6.912,-13.68 l 0,-69.696"
         style="font-size:144px;font-weight:bold;text-align:start;writing-mode:lr-tb;text-anchor:start;font-family:URW Palladio L;-inkscape-font-specification:URW Palladio L Bold;fill:#e2725b;fill-opacity:1"
         id="path3102" />
      <path
         d="m 1532.6045,310.02725 c 8.064,-0.432 12.96,-0.576 20.88,-0.576 7.776,0 13.968,1.296 14.112,2.88 l 1.152,10.8 5.184,0 2.016,-20.448 -0.864,-1.008 c -5.328,-0.432 -8.064,-0.576 -13.68,-0.576 -3.312,0 -7.632,0.144 -15.552,0.288 -10.512,0.288 -14.544,0.288 -18.72,0.288 -5.04,0 -11.232,-0.144 -27.072,-0.432 l 0,5.328 5.328,0.432 c 6.48,0.576 6.912,1.44001 6.912,14.112 l 0,64.512 c 0,4.89599 -0.72,7.056 -2.88,8.208 l -4.608,2.592 0,3.312 c 14.256,-0.432 14.256,-0.432 17.568,-0.432 l 4.896,0 c 14.544,0.432 20.304,0.576 27.648,0.576 7.488,0 11.952,-0.144 20.304,-0.576 l 0.72,-1.152 1.584,-22.752 -5.616,0 -3.312,13.536 c 0,0.144 -0.144,0.288 -0.432,0.432 -4.464,1.44 -8.64,2.016 -16.704,2.016 -5.904,0 -11.52,-0.144 -18.864,-0.432 l 0,-38.448 c 4.032,-0.288 6.48,-0.432 9.648,-0.432 l 9.504,0 c 5.472,0 7.776,1.584 8.208,5.328 l 0.864,7.2 5.76,0 c 0,0 -0.432,-15.552 -0.432,-15.552 0,-1.584 0,-1.72802 0.432,-15.408 l -5.76,0 -0.864,8.208 c -0.288,2.30399 -2.16,3.024 -8.208,3.024 l -9.504,0 c -4.752,0 -6.768,0 -9.648,-0.288 l 0,-34.56"
         style="font-size:144px;font-weight:bold;text-align:start;writing-mode:lr-tb;text-anchor:start;font-family:URW Palladio L;-inkscape-font-specification:URW Palladio L Bold;fill:#e2725b;fill-opacity:1"
         id="path3104" />
      <path
         d="m 1648.2838,348.04325 c 8.064,-3.312 11.52,-5.47201 15.264,-9.792 4.176,-4.464 6.192,-9.79201 6.192,-15.84 0,-13.96799 -9.216,-21.168 -27.36,-21.168 -1.584,0 -5.04,0 -9.936,0.144 -3.744,0.144 -15.552,0.288 -18.72,0.288 -4.032,0 -4.032,0 -25.632,-0.432 l 0,5.328 5.328,0.432 c 6.48,0.576 6.912,1.44001 6.912,14.112 l 0,58.752 c 0,12.81598 -0.144,13.104 -6.912,13.68 l -5.328,0.432 0,5.76 c 17.424,-0.432 17.424,-0.432 22.32,-0.432 4.896,0 5.04,0 22.464,0.432 l 0,-5.76 -5.328,-0.432 c -6.768,-0.576 -6.912,-0.86402 -6.912,-13.68 l 0,-70.128 c 2.016,-0.864 4.752,-1.296 8.496,-1.296 12.816,0 20.16,6.76801 20.16,18.432 0,7.63199 -3.6,14.112 -9.504,17.568 -3.6,2.16 -7.2,2.88 -13.536,2.736 l -1.008,2.592 32.256,49.968 12.96,-0.432 c 7.344,0.144 8.64,0.144 13.968,0.432 l 0,-5.76 c -5.184,-1.008 -6.624,-1.87201 -10.08,-6.48 l -26.064,-39.456"
         style="font-size:144px;font-weight:bold;text-align:start;writing-mode:lr-tb;text-anchor:start;font-family:URW Palladio L;-inkscape-font-specification:URW Palladio L Bold;fill:#e2725b;fill-opacity:1"
         id="path3106" />
      <path
         d="m 1752.3463,348.04325 c 8.064,-3.312 11.52,-5.47201 15.264,-9.792 4.176,-4.464 6.192,-9.79201 6.192,-15.84 0,-13.96799 -9.216,-21.168 -27.36,-21.168 -1.584,0 -5.04,0 -9.936,0.144 -3.744,0.144 -15.552,0.288 -18.72,0.288 -4.032,0 -4.032,0 -25.632,-0.432 l 0,5.328 5.328,0.432 c 6.48,0.576 6.912,1.44001 6.912,14.112 l 0,58.752 c 0,12.81598 -0.144,13.104 -6.912,13.68 l -5.328,0.432 0,5.76 c 17.424,-0.432 17.424,-0.432 22.32,-0.432 4.896,0 5.04,0 22.464,0.432 l 0,-5.76 -5.328,-0.432 c -6.768,-0.576 -6.912,-0.86402 -6.912,-13.68 l 0,-70.128 c 2.016,-0.864 4.752,-1.296 8.496,-1.296 12.816,0 20.16,6.76801 20.16,18.432 0,7.63199 -3.6,14.112 -9.504,17.568 -3.6,2.16 -7.2,2.88 -13.536,2.736 l -1.008,2.592 32.256,49.968 12.96,-0.432 c 7.344,0.144 8.64,0.144 13.968,0.432 l 0,-5.76 c -5.184,-1.008 -6.624,-1.87201 -10.08,-6.48 l -26.064,-39.456"
         style="font-size:144px;font-weight:bold;text-align:start;writing-mode:lr-tb;text-anchor:start;font-family:URW Palladio L;-inkscape-font-specification:URW Palladio L Bold;fill:#e2725b;fill-opacity:1"
         id="path3108" />
      <path
         d="m 1858.1368,369.64325 6.48,16.416 c 0.576,1.44 0.864,2.88 0.864,4.032 0,2.16 -1.296,3.744 -2.88,3.888 l -7.632,0.432 0,5.328 c 20.16,-0.432 20.16,-0.432 21.888,-0.432 1.584,0 1.584,0 22.752,0.432 l 0,-5.328 -3.456,-0.432 c -4.032,-0.576 -6.048,-2.16001 -7.92,-6.336 l -37.296,-87.12 -10.224,0 -4.032,10.8 c -2.016,5.61599 -3.456,9.36 -4.176,10.944 l -26.064,63.072 c -2.448,5.61599 -4.896,8.352 -8.064,8.64 l -4.32,0.432 0,5.328 c 3.744,-0.144 7.056,-0.144 8.208,-0.288 4.032,-0.144 6.768,-0.144 8.064,-0.144 1.296,0 4.032,0 8.064,0.144 1.296,0.144 4.32,0.144 8.208,0.288 l 0,-5.328 -7.2,-0.432 c -2.448,-0.144 -4.176,-2.16001 -4.176,-4.608 0,-1.008 0.288,-2.448 0.72,-3.6 l 6.048,-16.128 36.144,0 m -18.288,-44.64 14.976,36.576 -29.376,0 14.4,-36.576"
         style="font-size:144px;font-weight:bold;text-align:start;writing-mode:lr-tb;text-anchor:start;font-family:URW Palladio L;-inkscape-font-specification:URW Palladio L Bold;fill:#e2725b;fill-opacity:1"
         id="path3110" />
      <path
         d="m 1914.0583,418.89125 c 11.232,-17.99998 15.984,-26.35201 21.168,-37.584 l -2.448,-2.304 c -6.768,2.16 -11.52,3.456 -19.296,5.472 -1.152,10.22399 -5.472,24.04801 -11.808,36.864 l 2.16,1.872 10.224,-4.32"
         style="font-size:144px;font-weight:bold;text-align:start;writing-mode:lr-tb;text-anchor:start;font-family:URW Palladio L;-inkscape-font-specification:URW Palladio L Bold"
         id="path3112" />
      <path
         d="m 115.52079,479.22725 c -34.847967,0 -55.152002,19.29603 -55.152002,52.272 0,31.96797 18.864033,50.256 51.840002,50.256 34.41596,0 54.72,-19.44004 54.72,-52.272 0,-31.67997 -18.86403,-50.256 -51.408,-50.256 m -1.296,8.064 c 7.63199,0 13.68,2.448 18.72,7.344 7.91999,7.77599 12.384,21.60001 12.384,37.872 0,27.07197 -11.08802,41.184 -32.112,41.184 -7.91999,0 -13.824007,-2.30401 -19.008002,-7.488 -7.775992,-7.632 -12.24,-21.45602 -12.24,-38.016 0,-14.68799 3.600007,-26.20801 10.08,-32.688 5.615995,-5.472 13.104012,-8.208 22.176002,-8.208"
         style="font-size:144px;font-weight:bold;text-align:start;writing-mode:lr-tb;text-anchor:start;font-family:URW Palladio L;-inkscape-font-specification:URW Palladio L Bold;fill:#808000;fill-opacity:1"
         id="path3114" />
      <path
         d="m 211.85454,501.11525 c 0,-12.81599 0.144,-13.104 6.912,-13.68 l 5.328,-0.432 0,-5.76 c -17.56798,0.432 -17.56801,0.432 -22.464,0.432 -4.896,0 -5.04002,0 -22.32,-0.432 l 0,5.76 5.328,0.432 c 6.76799,0.576 6.912,0.86401 6.912,13.68 l 0,64.512 c 0,4.89599 -0.72,7.056 -2.88,8.208 l -4.608,2.592 0,3.312 c 14.25598,-0.432 14.256,-0.432 17.568,-0.432 l 4.896,0 c 14.54398,0.432 20.30401,0.576 27.648,0.576 7.48799,0 11.95201,-0.144 20.304,-0.576 l 0.72,-1.152 1.584,-23.904 -5.616,0 -3.312,14.688 c -0.288,1.296 -8.20801,2.448 -17.136,2.448 -6.048,0 -11.37601,-0.144 -18.864,-0.432 l 0,-69.84"
         style="font-size:144px;font-weight:bold;text-align:start;writing-mode:lr-tb;text-anchor:start;font-family:URW Palladio L;-inkscape-font-specification:URW Palladio L Bold;fill:#808000;fill-opacity:1"
         id="path3116" />
      <path
         d="m 299.88579,501.11525 c 0,-12.81599 0.144,-13.104 6.912,-13.68 l 5.328,-0.432 0,-5.76 c -17.56798,0.432 -17.56801,0.432 -22.464,0.432 -4.896,0 -5.04002,0 -22.32,-0.432 l 0,5.76 5.328,0.432 c 6.76799,0.576 6.912,0.86401 6.912,13.68 l 0,58.752 c 0,12.81598 -0.14401,13.104 -6.912,13.68 l -5.328,0.432 0,5.76 c 17.42398,-0.432 17.424,-0.432 22.32,-0.432 4.89599,0 5.04002,0 22.464,0.432 l 0,-5.76 -5.328,-0.432 c -6.768,-0.576 -6.912,-0.86402 -6.912,-13.68 l 0,-58.752"
         style="font-size:144px;font-weight:bold;text-align:start;writing-mode:lr-tb;text-anchor:start;font-family:URW Palladio L;-inkscape-font-specification:URW Palladio L Bold;fill:#808000;fill-opacity:1"
         id="path3118" />
      <path
         d="m 366.65454,486.57125 0,-5.328 c -6.048,0.144 -11.664,0.144 -13.248,0.288 -4.896,0.144 -8.208,0.144 -10.08,0.144 -2.016,0 -2.01602,0 -22.752,-0.432 l 0,5.328 5.904,0.432 c 3.59999,0.432 5.76,3.024 8.928,10.368 l 34.416,82.368 10.944,0 c 1.44,-3.744 2.016,-5.328 2.736,-7.056 0.72,-2.16 1.296,-3.744 1.584,-4.176 0.144,-0.576 0.576,-1.728 1.152,-3.024 l 29.952,-71.712 c 1.872,-4.608 3.744,-6.48 6.768,-6.768 l 4.608,-0.432 0,-5.328 c -15.26399,0.432 -15.264,0.432 -16.704,0.432 -1.44,0 -4.03201,0 -8.064,-0.144 -1.152,-0.144 -4.75201,-0.144 -8.496,-0.288 l 0,5.328 6.624,0.432 c 3.31199,0.288 5.328,1.584 5.328,3.744 0,2.16 -1.44,6.624 -4.464,14.256 l -20.448,50.832 -22.608,-55.728 c -2.88,-7.344 -3.024,-7.77601 -3.024,-10.368 0,-1.296 1.728,-2.592 3.744,-2.736 l 7.2,-0.432"
         style="font-size:144px;font-weight:bold;text-align:start;writing-mode:lr-tb;text-anchor:start;font-family:URW Palladio L;-inkscape-font-specification:URW Palladio L Bold;fill:#808000;fill-opacity:1"
         id="path3120" />
      <path
         d="m 467.79204,490.02725 c 8.06399,-0.432 12.96001,-0.576 20.88,-0.576 7.77599,0 13.968,1.296 14.112,2.88 l 1.152,10.8 5.184,0 2.016,-20.448 -0.864,-1.008 c -5.328,-0.432 -8.06401,-0.576 -13.68,-0.576 -3.312,0 -7.63201,0.144 -15.552,0.288 -10.51199,0.288 -14.54401,0.288 -18.72,0.288 -5.04,0 -11.23202,-0.144 -27.072,-0.432 l 0,5.328 5.328,0.432 c 6.47999,0.576 6.912,1.44001 6.912,14.112 l 0,64.512 c 0,4.89599 -0.72,7.056 -2.88,8.208 l -4.608,2.592 0,3.312 c 14.25598,-0.432 14.256,-0.432 17.568,-0.432 l 4.896,0 c 14.54398,0.432 20.30401,0.576 27.648,0.576 7.48799,0 11.95201,-0.144 20.304,-0.576 l 0.72,-1.152 1.584,-22.752 -5.616,0 -3.312,13.536 c 0,0.144 -0.144,0.288 -0.432,0.432 -4.464,1.44 -8.64001,2.016 -16.704,2.016 -5.904,0 -11.52001,-0.144 -18.864,-0.432 l 0,-38.448 c 4.03199,-0.288 6.48,-0.432 9.648,-0.432 l 9.504,0 c 5.47199,0 7.776,1.584 8.208,5.328 l 0.864,7.2 5.76,0 c 0,0 -0.432,-15.552 -0.432,-15.552 0,-1.584 0,-1.72802 0.432,-15.408 l -5.76,0 -0.864,8.208 c -0.288,2.30399 -2.16001,3.024 -8.208,3.024 l -9.504,0 c -4.752,0 -6.768,0 -9.648,-0.288 l 0,-34.56"
         style="font-size:144px;font-weight:bold;text-align:start;writing-mode:lr-tb;text-anchor:start;font-family:URW Palladio L;-inkscape-font-specification:URW Palladio L Bold;fill:#808000;fill-opacity:1"
         id="path3122" />
      <path
         d="m 621.19929,549.64325 6.48,16.416 c 0.576,1.44 0.864,2.88 0.864,4.032 0,2.16 -1.296,3.744 -2.88,3.888 l -7.632,0.432 0,5.328 c 20.15998,-0.432 20.16,-0.432 21.888,-0.432 1.584,0 1.58402,0 22.752,0.432 l 0,-5.328 -3.456,-0.432 c -4.032,-0.576 -6.048,-2.16001 -7.92,-6.336 l -37.296,-87.12 -10.224,0 -4.032,10.8 c -2.016,5.61599 -3.456,9.36 -4.176,10.944 l -26.064,63.072 c -2.448,5.61599 -4.89601,8.352 -8.064,8.64 l -4.32,0.432 0,5.328 c 3.74399,-0.144 7.056,-0.144 8.208,-0.288 4.03199,-0.144 6.768,-0.144 8.064,-0.144 1.296,0 4.032,0 8.064,0.144 1.296,0.144 4.32,0.144 8.208,0.288 l 0,-5.328 -7.2,-0.432 c -2.448,-0.144 -4.176,-2.16001 -4.176,-4.608 0,-1.008 0.288,-2.448 0.72,-3.6 l 6.048,-16.128 36.144,0 m -18.288,-44.64 14.976,36.576 -29.376,0 14.4,-36.576"
         style="font-size:144px;font-weight:bold;text-align:start;writing-mode:lr-tb;text-anchor:start;font-family:URW Palladio L;-inkscape-font-specification:URW Palladio L Bold;fill:#787878;fill-opacity:1"
         id="path3124" />
      <path
         d="m 687.92079,481.67525 -3.024,0 c -1.296,0 -6.04801,-0.144 -14.256,-0.432 l 0,5.328 5.328,0.432 c 6.47999,0.576 6.912,1.44001 6.912,14.112 l 0,58.752 c 0,12.67198 -0.43201,13.536 -6.912,14.112 l -5.328,0.432 0,5.328 c 13.82398,-0.432 13.824,-0.432 16.56,-0.432 2.88,0 9.50401,0.144 16.416,0.432 l 0,-5.328 -5.328,-0.432 c -6.48,-0.576 -6.912,-1.29602 -6.912,-14.112 l 0,-56.592 46.944,56.448 17.568,20.016 11.808,1.872 1.008,-0.576 c -0.288,-8.06399 -0.432,-11.23201 -0.432,-14.544 l 0,-65.376 c 0,-12.67199 0.432,-13.536 6.912,-14.112 l 5.328,-0.432 0,-5.328 c 0,0 -16.416,0.432 -16.416,0.432 -1.584,0 -3.88801,0 -16.56,-0.432 l 0,5.328 5.328,0.432 c 6.47999,0.576 6.912,1.44001 6.912,14.112 l 0,51.696 -44.928,-52.416 c -3.024,-3.456 -5.61601,-6.91202 -14.832,-19.152 l -12.096,0.432"
         style="font-size:144px;font-weight:bold;text-align:start;writing-mode:lr-tb;text-anchor:start;font-family:URW Palladio L;-inkscape-font-specification:URW Palladio L Bold;fill:#787878;fill-opacity:1"
         id="path3126" />
      <path
         d="m 859.85454,501.11525 c 0,-12.81599 0.144,-13.104 6.912,-13.68 l 5.328,-0.432 0,-5.76 c -17.56798,0.432 -17.56801,0.432 -22.464,0.432 -4.896,0 -5.04002,0 -22.32,-0.432 l 0,5.76 5.328,0.432 c 6.76799,0.576 6.912,0.86401 6.912,13.68 l 0,58.752 c 0,12.81598 -0.14401,13.104 -6.912,13.68 l -5.328,0.432 0,5.76 c 17.42398,-0.432 17.424,-0.432 22.32,-0.432 4.89599,0 5.04002,0 22.464,0.432 l 0,-5.76 -5.328,-0.432 c -6.768,-0.576 -6.912,-0.86402 -6.912,-13.68 l 0,-58.752"
         style="font-size:144px;font-weight:bold;text-align:start;writing-mode:lr-tb;text-anchor:start;font-family:URW Palladio L;-inkscape-font-specification:URW Palladio L Bold;fill:#787878;fill-opacity:1"
         id="path3128" />
      <path
         d="m 984.51129,499.96325 0,59.904 c 0,12.81598 -0.14401,13.104 -6.912,13.68 l -5.328,0.432 0,5.76 c 17.42398,-0.432 17.424,-0.432 22.32,-0.432 4.89599,0 5.04002,0 22.46401,0.432 l 0,-5.76 -5.328,-0.432 c -6.768,-0.576 -6.912,-0.86402 -6.912,-13.68 l 0,-58.752 c 0,-12.67199 0.432,-13.536 6.912,-14.112 l 5.328,-0.432 0,-5.328 c -15.12,0.432 -15.12,0.432 -16.704,0.432 -1.58401,0 -1.58403,0 -16.56001,-0.432 -4.176,9.93599 -5.472,12.96 -7.056,16.272 l -26.352,54.432 -22.752,-47.52 -10.8,-23.184 -17.28,0.432 c -2.304,0 -5.61601,-0.144 -9.936,-0.288 -2.16,0 -2.30401,0 -7.344,-0.144 l 0,5.328 5.328,0.432 c 6.47999,0.576 6.912,1.44001 6.912,14.112 l 0,58.752 c 0,12.67198 -0.43201,13.536 -6.912,14.112 l -5.328,0.432 0,5.328 c 13.82398,-0.432 13.824,-0.432 16.56,-0.432 2.88,0 9.50401,0.144 16.416,0.432 l 0,-5.328 -5.328,-0.432 c -6.48,-0.576 -6.912,-1.29602 -6.912,-14.112 l 0,-60.048 33.12,68.976 c 1.008,2.16 2.592,5.616 5.184,11.952 l 4.896,0 c 2.736,-6.624 3.312,-8.06401 8.64,-19.008 l 29.664,-61.776"
         style="font-size:144px;font-weight:bold;text-align:start;writing-mode:lr-tb;text-anchor:start;font-family:URW Palladio L;-inkscape-font-specification:URW Palladio L Bold;fill:#787878;fill-opacity:1"
         id="path3130" />
      <path
         d="m 1066.4473,532.36325 c 1.584,0.288 1.728,0.288 2.16,0.432 3.456,0.432 4.176,0.576 6.192,0.576 18.576,0 32.4,-13.10402 32.4,-30.528 0,-14.39999 -9.072,-21.6 -27.216,-21.6 l -1.728,0 c -15.696,0.288 -24.48,0.432 -26.064,0.432 -3.024,0 -3.024,0 -24.912,-0.432 l 0,5.328 5.328,0.432 c 6.48,0.576 6.912,1.44001 6.912,14.112 l 0,58.752 c 0,12.81598 -0.144,13.104 -6.912,13.68 l -5.328,0.432 0,5.76 c 17.424,-0.432 17.424,-0.432 22.464,-0.432 4.464,0 4.464,0 23.76,0.432 l 0,-5.76 -6.768,-0.432 c -6.624,-0.432 -6.912,-1.00802 -6.912,-13.68 l 0,-70.128 c 2.16,-0.864 4.752,-1.296 8.64,-1.296 11.952,0 18,6.48001 18,19.296 0,11.51999 -5.76,19.008 -14.832,19.008 -1.152,0 -1.296,0 -5.04,-0.72 -0.144,0 -0.576,0 -1.152,-0.144 l -1.44,1.44 2.448,5.04"
         style="font-size:144px;font-weight:bold;text-align:start;writing-mode:lr-tb;text-anchor:start;font-family:URW Palladio L;-inkscape-font-specification:URW Palladio L Bold;fill:#787878;fill-opacity:1"
         id="path3132" />
      <path
         d="m 1175.5025,528.04325 c 8.064,-3.312 11.52,-5.47201 15.264,-9.792 4.176,-4.464 6.192,-9.79201 6.192,-15.84 0,-13.96799 -9.216,-21.168 -27.36,-21.168 -1.584,0 -5.04,0 -9.936,0.144 -3.744,0.144 -15.552,0.288 -18.72,0.288 -4.032,0 -4.032,0 -25.632,-0.432 l 0,5.328 5.328,0.432 c 6.48,0.576 6.912,1.44001 6.912,14.112 l 0,58.752 c 0,12.81598 -0.144,13.104 -6.912,13.68 l -5.328,0.432 0,5.76 c 17.424,-0.432 17.424,-0.432 22.32,-0.432 4.896,0 5.0401,0 22.464,0.432 l 0,-5.76 -5.328,-0.432 c -6.768,-0.576 -6.912,-0.86402 -6.912,-13.68 l 0,-70.128 c 2.016,-0.864 4.752,-1.296 8.496,-1.296 12.816,0 20.16,6.76801 20.16,18.432 0,7.63199 -3.6,14.112 -9.504,17.568 -3.6,2.16 -7.2,2.88 -13.536,2.736 l -1.008,2.592 32.256,49.968 12.96,-0.432 c 7.344,0.144 8.64,0.144 13.968,0.432 l 0,-5.76 c -5.184,-1.008 -6.624,-1.87201 -10.08,-6.48 l -26.064,-39.456"
         style="font-size:144px;font-weight:bold;text-align:start;writing-mode:lr-tb;text-anchor:start;font-family:URW Palladio L;-inkscape-font-specification:URW Palladio L Bold;fill:#787878;fill-opacity:1"
         id="path3134" />
      <path
         d="m 1251.917,490.02725 c 8.064,-0.432 12.96,-0.576 20.88,-0.576 7.776,0 13.968,1.296 14.112,2.88 l 1.152,10.8 5.184,0 2.016,-20.448 -0.864,-1.008 c -5.328,-0.432 -8.064,-0.576 -13.68,-0.576 -3.312,0 -7.632,0.144 -15.552,0.288 -10.512,0.288 -14.544,0.288 -18.72,0.288 -5.04,0 -11.232,-0.144 -27.072,-0.432 l 0,5.328 5.328,0.432 c 6.48,0.576 6.912,1.44001 6.912,14.112 l 0,64.512 c 0,4.89599 -0.72,7.056 -2.88,8.208 l -4.608,2.592 0,3.312 c 14.256,-0.432 14.256,-0.432 17.568,-0.432 l 4.896,0 c 14.544,0.432 20.304,0.576 27.648,0.576 7.488,0 11.952,-0.144 20.304,-0.576 l 0.72,-1.152 1.584,-22.752 -5.616,0 -3.312,13.536 c 0,0.144 -0.144,0.288 -0.432,0.432 -4.464,1.44 -8.64,2.016 -16.704,2.016 -5.904,0 -11.52,-0.144 -18.864,-0.432 l 0,-38.448 c 4.032,-0.288 6.48,-0.432 9.648,-0.432 l 9.504,0 c 5.472,0 7.776,1.584 8.208,5.328 l 0.864,7.2 5.76,0 c 0,0 -0.432,-15.552 -0.432,-15.552 0,-1.584 0,-1.72802 0.432,-15.408 l -5.76,0 -0.864,8.208 c -0.288,2.30399 -2.16,3.024 -8.208,3.024 l -9.504,0 c -4.752,0 -6.768,0 -9.648,-0.288 l 0,-34.56"
         style="font-size:144px;font-weight:bold;text-align:start;writing-mode:lr-tb;text-anchor:start;font-family:URW Palladio L;-inkscape-font-specification:URW Palladio L Bold;fill:#787878;fill-opacity:1"
         id="path3136" />
      <path
         d="m 1401.4363,566.77925 -1.728,-1.728 c -9.36,4.89599 -18.72,7.344 -28.08,7.344 -25.2,0 -41.904,-17.85603 -41.904,-45.072 0,-24.76798 14.112,-40.032 36.864,-40.032 10.8,0 17.856,2.736 25.632,9.936 l 0.72,12.384 5.616,0 c 1.584,-13.82399 2.016,-16.56001 3.312,-22.032 l -0.864,-1.584 c -13.104,-5.184 -21.168,-6.768 -33.696,-6.768 -36.432,0 -59.184,19.29603 -59.184,50.112 0,32.25596 22.176,52.416 57.744,52.416 13.248,0 21.744,-2.01601 32.4,-7.92 l 3.168,-7.056"
         style="font-size:144px;font-weight:bold;text-align:start;writing-mode:lr-tb;text-anchor:start;font-family:URW Palladio L;-inkscape-font-specification:URW Palladio L Bold;fill:#00ffff;fill-opacity:1"
         id="path3138" />
      <path
         d="m 1462.7308,528.04325 -15.408,-29.232 c -5.904,-10.94399 -9.792,-15.69601 -16.416,-19.584 l -22.896,5.184 0,5.328 c 7.344,0 10.224,2.16001 18.72,14.4 l 14.544,23.472 c 2.304,3.88799 4.032,7.056 6.336,12.24 l 0,20.016 c 0,12.81598 -0.144,13.104 -6.912,13.68 l -5.328,0.432 0,5.76 c 17.424,-0.432 17.424,-0.432 22.32,-0.432 4.896,0 5.04,0 22.464,0.432 l 0,-5.76 -5.328,-0.432 c -6.768,-0.576 -6.912,-0.86402 -6.912,-13.68 l 0,-23.472 c 2.736,-6.192 5.04,-10.51201 7.632,-14.4 l 25.344,-37.584 0,-2.736 -11.088,0 -27.072,46.368"
         style="font-size:144px;font-weight:bold;text-align:start;writing-mode:lr-tb;text-anchor:start;font-family:URW Palladio L;-inkscape-font-specification:URW Palladio L Bold;fill:#00ffff;fill-opacity:1"
         id="path3140" />
      <path
         d="m 1569.5743,549.64325 6.48,16.416 c 0.576,1.44 0.864,2.88 0.864,4.032 0,2.16 -1.296,3.744 -2.88,3.888 l -7.632,0.432 0,5.328 c 20.16,-0.432 20.16,-0.432 21.888,-0.432 1.584,0 1.584,0 22.752,0.432 l 0,-5.328 -3.456,-0.432 c -4.032,-0.576 -6.048,-2.16001 -7.92,-6.336 l -37.296,-87.12 -10.224,0 -4.032,10.8 c -2.016,5.61599 -3.456,9.36 -4.176,10.944 l -26.064,63.072 c -2.448,5.61599 -4.896,8.352 -8.064,8.64 l -4.32,0.432 0,5.328 c 3.744,-0.144 7.056,-0.144 8.208,-0.288 4.032,-0.144 6.768,-0.144 8.064,-0.144 1.296,0 4.032,0 8.064,0.144 1.296,0.144 4.32,0.144 8.208,0.288 l 0,-5.328 -7.2,-0.432 c -2.448,-0.144 -4.176,-2.16001 -4.176,-4.608 0,-1.008 0.288,-2.448 0.72,-3.6 l 6.048,-16.128 36.144,0 m -18.288,-44.64 14.976,36.576 -29.376,0 14.4,-36.576"
         style="font-size:144px;font-weight:bold;text-align:start;writing-mode:lr-tb;text-anchor:start;font-family:URW Palladio L;-inkscape-font-specification:URW Palladio L Bold;fill:#00ffff;fill-opacity:1"
         id="path3142" />
      <path
         d="m 1636.2958,481.67525 -3.024,0 c -1.296,0 -6.048,-0.144 -14.256,-0.432 l 0,5.328 5.328,0.432 c 6.48,0.576 6.912,1.44001 6.912,14.112 l 0,58.752 c 0,12.67198 -0.432,13.536 -6.912,14.112 l -5.328,0.432 0,5.328 c 13.824,-0.432 13.824,-0.432 16.56,-0.432 2.88,0 9.504,0.144 16.416,0.432 l 0,-5.328 -5.328,-0.432 c -6.48,-0.576 -6.912,-1.29602 -6.912,-14.112 l 0,-56.592 46.944,56.448 17.568,20.016 11.808,1.872 1.008,-0.576 c -0.288,-8.06399 -0.432,-11.23201 -0.432,-14.544 l 0,-65.376 c 0,-12.67199 0.432,-13.536 6.912,-14.112 l 5.328,-0.432 0,-5.328 c 0,0 -16.416,0.432 -16.416,0.432 -1.584,0 -3.888,0 -16.56,-0.432 l 0,5.328 5.328,0.432 c 6.48,0.576 6.912,1.44001 6.912,14.112 l 0,51.696 -44.928,-52.416 c -3.024,-3.456 -5.616,-6.91202 -14.832,-19.152 l -12.096,0.432"
         style="font-size:144px;font-weight:bold;text-align:start;writing-mode:lr-tb;text-anchor:start;font-family:URW Palladio L;-inkscape-font-specification:URW Palladio L Bold;fill:#00ffff;fill-opacity:1"
         id="path3144" />
      <path
         d="m 91.760788,681.11525 c 0,-12.81599 0.144007,-13.104 6.912,-13.68 l 5.328002,-0.432 0,-5.76 c -17.567984,0.432 -17.568007,0.432 -22.464002,0.432 -4.895995,0 -5.040017,0 -22.32,-0.432 l 0,5.76 5.328,0.432 c 6.767993,0.576 6.912,0.86401 6.912,13.68 l 0,58.752 c 0,12.81598 -0.144007,13.104 -6.912,13.68 l -5.328,0.432 0,5.76 c 17.423983,-0.432 17.424005,-0.432 22.32,-0.432 4.895995,0 5.040018,0 22.464002,0.432 l 0,-5.76 -5.328002,-0.432 c -6.767993,-0.576 -6.912,-0.86402 -6.912,-13.68 l 0,-58.752"
         style="font-size:144px;font-weight:bold;text-align:start;writing-mode:lr-tb;text-anchor:start;font-family:URW Palladio L;-inkscape-font-specification:URW Palladio L Bold;fill:#787878;fill-opacity:1"
         id="path3146" />
      <path
         d="m 131.88954,661.67525 -3.024,0 c -1.296,0 -6.04801,-0.144 -14.256,-0.432 l 0,5.328 5.328,0.432 c 6.47999,0.576 6.912,1.44001 6.912,14.112 l 0,58.752 c 0,12.67198 -0.43201,13.536 -6.912,14.112 l -5.328,0.432 0,5.328 c 13.82398,-0.432 13.824,-0.432 16.56,-0.432 2.88,0 9.50401,0.144 16.416,0.432 l 0,-5.328 -5.328,-0.432 c -6.48,-0.576 -6.912,-1.29602 -6.912,-14.112 l 0,-56.592 46.944,56.448 17.568,20.016 11.808,1.872 1.008,-0.576 c -0.288,-8.06399 -0.432,-11.23201 -0.432,-14.544 l 0,-65.376 c 0,-12.67199 0.432,-13.536 6.912,-14.112 l 5.328,-0.432 0,-5.328 c 0,0 -16.416,0.432 -16.416,0.432 -1.584,0 -3.88801,0 -16.56,-0.432 l 0,5.328 5.328,0.432 c 6.47999,0.576 6.912,1.44001 6.912,14.112 l 0,51.696 -44.928,-52.416 c -3.024,-3.456 -5.61601,-6.91202 -14.832,-19.152 l -12.096,0.432"
         style="font-size:144px;font-weight:bold;text-align:start;writing-mode:lr-tb;text-anchor:start;font-family:URW Palladio L;-inkscape-font-specification:URW Palladio L Bold;fill:#787878;fill-opacity:1"
         id="path3148" />
      <path
         d="m 303.82329,681.11525 c 0,-12.81599 0.144,-13.104 6.912,-13.68 l 5.328,-0.432 0,-5.76 c -17.56798,0.432 -17.56801,0.432 -22.464,0.432 -4.896,0 -5.04002,0 -22.32,-0.432 l 0,5.76 5.328,0.432 c 6.76799,0.576 6.912,0.86401 6.912,13.68 l 0,58.752 c 0,12.81598 -0.14401,13.104 -6.912,13.68 l -5.328,0.432 0,5.76 c 17.42398,-0.432 17.424,-0.432 22.32,-0.432 4.89599,0 5.04002,0 22.464,0.432 l 0,-5.76 -5.328,-0.432 c -6.768,-0.576 -6.912,-0.86402 -6.912,-13.68 l 0,-58.752"
         style="font-size:144px;font-weight:bold;text-align:start;writing-mode:lr-tb;text-anchor:start;font-family:URW Palladio L;-inkscape-font-specification:URW Palladio L Bold;fill:#fffff0;fill-opacity:1"
         id="path3150" />
      <path
         d="m 370.59204,666.57125 0,-5.328 c -6.048,0.144 -11.664,0.144 -13.248,0.288 -4.896,0.144 -8.208,0.144 -10.08,0.144 -2.016,0 -2.01602,0 -22.752,-0.432 l 0,5.328 5.904,0.432 c 3.59999,0.432 5.76,3.024 8.928,10.368 l 34.416,82.368 10.944,0 c 1.44,-3.744 2.016,-5.328 2.736,-7.056 0.72,-2.16 1.296,-3.744 1.584,-4.176 0.144,-0.576 0.576,-1.728 1.152,-3.024 l 29.952,-71.712 c 1.872,-4.608 3.744,-6.48 6.768,-6.768 l 4.608,-0.432 0,-5.328 c -15.26399,0.432 -15.264,0.432 -16.704,0.432 -1.44,0 -4.03201,0 -8.064,-0.144 -1.152,-0.144 -4.75201,-0.144 -8.496,-0.288 l 0,5.328 6.624,0.432 c 3.31199,0.288 5.328,1.584 5.328,3.744 0,2.16 -1.44,6.624 -4.464,14.256 l -20.448,50.832 -22.608,-55.728 c -2.88,-7.344 -3.024,-7.77601 -3.024,-10.368 0,-1.296 1.728,-2.592 3.744,-2.736 l 7.2,-0.432"
         style="font-size:144px;font-weight:bold;text-align:start;writing-mode:lr-tb;text-anchor:start;font-family:URW Palladio L;-inkscape-font-specification:URW Palladio L Bold;fill:#fffff0;fill-opacity:1"
         id="path3152" />
      <path
         d="m 495.48954,659.22725 c -34.84797,0 -55.152,19.29603 -55.152,52.272 0,31.96797 18.86403,50.256 51.84,50.256 34.41596,0 54.72,-19.44004 54.72,-52.272 0,-31.67997 -18.86403,-50.256 -51.408,-50.256 m -1.296,8.064 c 7.63199,0 13.68,2.448 18.72,7.344 7.91999,7.77599 12.384,21.60001 12.384,37.872 0,27.07197 -11.08802,41.184 -32.112,41.184 -7.91999,0 -13.82401,-2.30401 -19.008,-7.488 -7.77599,-7.632 -12.24,-21.45602 -12.24,-38.016 0,-14.68799 3.6,-26.20801 10.08,-32.688 5.61599,-5.472 13.10401,-8.208 22.176,-8.208"
         style="font-size:144px;font-weight:bold;text-align:start;writing-mode:lr-tb;text-anchor:start;font-family:URW Palladio L;-inkscape-font-specification:URW Palladio L Bold;fill:#fffff0;fill-opacity:1"
         id="path3154" />
      <path
         d="m 619.47129,708.04325 c 8.06399,-3.312 11.52,-5.47201 15.264,-9.792 4.17599,-4.464 6.192,-9.79201 6.192,-15.84 0,-13.96799 -9.21602,-21.168 -27.36,-21.168 -1.584,0 -5.04001,0 -9.936,0.144 -3.744,0.144 -15.55201,0.288 -18.72,0.288 -4.032,0 -4.03202,0 -25.632,-0.432 l 0,5.328 5.328,0.432 c 6.47999,0.576 6.912,1.44001 6.912,14.112 l 0,58.752 c 0,12.81598 -0.14401,13.104 -6.912,13.68 l -5.328,0.432 0,5.76 c 17.42398,-0.432 17.424,-0.432 22.32,-0.432 4.89599,0 5.04002,0 22.464,0.432 l 0,-5.76 -5.328,-0.432 c -6.768,-0.576 -6.912,-0.86402 -6.912,-13.68 l 0,-70.128 c 2.016,-0.864 4.752,-1.296 8.496,-1.296 12.81599,0 20.16,6.76801 20.16,18.432 0,7.63199 -3.60001,14.112 -9.504,17.568 -3.6,2.16 -7.20001,2.88 -13.536,2.736 l -1.008,2.592 32.256,49.968 12.96,-0.432 c 7.34399,0.144 8.64,0.144 13.968,0.432 l 0,-5.76 c -5.184,-1.008 -6.62401,-1.87201 -10.08,-6.48 l -26.064,-39.456"
         style="font-size:144px;font-weight:bold;text-align:start;writing-mode:lr-tb;text-anchor:start;font-family:URW Palladio L;-inkscape-font-specification:URW Palladio L Bold;fill:#fffff0;fill-opacity:1"
         id="path3156" />
      <path
         d="m 714.60579,708.04325 -15.408,-29.232 c -5.904,-10.94399 -9.79201,-15.69601 -16.416,-19.584 l -22.896,5.184 0,5.328 c 7.34399,0 10.22401,2.16001 18.72,14.4 l 14.544,23.472 c 2.304,3.88799 4.032,7.056 6.336,12.24 l 0,20.016 c 0,12.81598 -0.14401,13.104 -6.912,13.68 l -5.328,0.432 0,5.76 c 17.42398,-0.432 17.424,-0.432 22.32,-0.432 4.89599,0 5.04002,0 22.464,0.432 l 0,-5.76 -5.328,-0.432 c -6.768,-0.576 -6.912,-0.86402 -6.912,-13.68 l 0,-23.472 c 2.736,-6.192 5.04,-10.51201 7.632,-14.4 l 25.344,-37.584 0,-2.736 -11.088,0 -27.072,46.368"
         style="font-size:144px;font-weight:bold;text-align:start;writing-mode:lr-tb;text-anchor:start;font-family:URW Palladio L;-inkscape-font-specification:URW Palladio L Bold;fill:#fffff0;fill-opacity:1"
         id="path3158" />
      <path
         d="m 800.28129,730.21925 c 0,10.79999 -0.576,16.70401 -2.16,24.912 10.51199,4.75199 19.15201,6.624 29.952,6.624 25.77597,0 42.336,-13.39202 42.336,-34.128 0,-12.81599 -7.48802,-21.60001 -21.744,-25.344 l -16.416,-4.32 c -10.65599,-2.736 -15.264,-7.20001 -15.264,-14.544 0,-9.93599 7.92001,-16.848 19.296,-16.848 7.63199,0 14.112,2.592 19.584,7.92 l 0.864,11.808 5.904,0 c 0,-9.35999 0.72,-16.27201 2.016,-20.448 l -0.72,-1.728 c -9.64799,-3.456 -17.13601,-4.896 -26.64,-4.896 -23.90398,0 -38.16,11.52002 -38.16,30.816 0,12.38398 7.48801,21.456 21.024,25.488 l 20.16,6.048 c 8.06399,2.44799 11.952,6.912 11.952,13.824 0,10.65599 -9.21601,18.576 -21.6,18.576 -9.79199,0 -19.15201,-4.32001 -23.616,-11.088 l -1.008,-12.672 -5.76,0"
         style="font-size:144px;font-weight:bold;text-align:start;writing-mode:lr-tb;text-anchor:start;font-family:URW Palladio L;-inkscape-font-specification:URW Palladio L Bold;fill:#787878;fill-opacity:1"
         id="path3160" />
      <path
         d="m 916.10454,670.02725 c 8.06399,-0.432 12.96001,-0.576 20.88,-0.576 7.77599,0 13.968,1.296 14.112,2.88 l 1.152,10.8 5.184,0 2.016,-20.448 -0.864,-1.008 c -5.328,-0.432 -8.06401,-0.576 -13.68,-0.576 -3.312,0 -7.63201,0.144 -15.552,0.288 -10.51199,0.288 -14.54401,0.288 -18.72,0.288 -5.04,0 -11.23202,-0.144 -27.072,-0.432 l 0,5.328 5.328,0.432 c 6.47999,0.576 6.912,1.44001 6.912,14.112 l 0,64.512 c 0,4.89599 -0.72,7.056 -2.88,8.208 l -4.608,2.592 0,3.312 c 14.25598,-0.432 14.256,-0.432 17.568,-0.432 l 4.896,0 c 14.54398,0.432 20.30401,0.576 27.648,0.576 7.48799,0 11.95201,-0.144 20.304,-0.576 l 0.72,-1.152 1.584,-22.752 -5.616,0 -3.312,13.536 c 0,0.144 -0.144,0.288 -0.432,0.432 -4.464,1.44 -8.64001,2.016 -16.704,2.016 -5.904,0 -11.52001,-0.144 -18.864,-0.432 l 0,-38.448 c 4.03199,-0.288 6.48,-0.432 9.648,-0.432 l 9.504,0 c 5.47199,0 7.776,1.584 8.208,5.328 l 0.864,7.2 5.76,0 c 0,0 -0.432,-15.552 -0.432,-15.552 0,-1.584 0,-1.72802 0.432,-15.408 l -5.76,0 -0.864,8.208 c -0.288,2.30399 -2.16001,3.024 -8.208,3.024 l -9.504,0 c -4.752,0 -6.768,0 -9.648,-0.288 l 0,-34.56"
         style="font-size:144px;font-weight:bold;text-align:start;writing-mode:lr-tb;text-anchor:start;font-family:URW Palladio L;-inkscape-font-specification:URW Palladio L Bold;fill:#787878;fill-opacity:1"
         id="path3162" />
      <path
         d="m 988.29579,661.67525 -3.024,0 c -1.296,0 -6.04801,-0.144 -14.256,-0.432 l 0,5.328 5.328,0.432 c 6.47999,0.576 6.912,1.44001 6.912,14.112 l 0,58.752 c 0,12.67198 -0.43201,13.536 -6.912,14.112 l -5.328,0.432 0,5.328 c 13.82398,-0.432 13.824,-0.432 16.56,-0.432 2.88,0 9.50401,0.144 16.41601,0.432 l 0,-5.328 -5.32801,-0.432 c -6.48,-0.576 -6.912,-1.29602 -6.912,-14.112 l 0,-56.592 46.94401,56.448 17.568,20.016 11.808,1.872 1.008,-0.576 c -0.288,-8.06399 -0.432,-11.23201 -0.432,-14.544 l 0,-65.376 c 0,-12.67199 0.432,-13.536 6.912,-14.112 l 5.328,-0.432 0,-5.328 c 0,0 -16.416,0.432 -16.416,0.432 -1.584,0 -3.888,0 -16.56,-0.432 l 0,5.328 5.328,0.432 c 6.48,0.576 6.912,1.44001 6.912,14.112 l 0,51.696 -44.928,-52.416 c -3.024,-3.456 -5.616,-6.91202 -14.832,-19.152 l -12.09601,0.432"
         style="font-size:144px;font-weight:bold;text-align:start;writing-mode:lr-tb;text-anchor:start;font-family:URW Palladio L;-inkscape-font-specification:URW Palladio L Bold;fill:#787878;fill-opacity:1"
         id="path3164" />
      <path
         d="m 1144.2455,670.17125 16.848,0 c 6.048,0 7.632,0.288 8.928,1.296 l 1.296,3.456 0.72,9.936 5.76,0 c 0.288,-10.94399 0.72,-15.98401 1.872,-22.896 l -0.864,-0.72 c -39.7439,0.432 -39.744,0.432 -44.64,0.432 -5.04,0 -5.04,0 -44.784,-0.432 l -0.864,0.72 c 1.152,6.91199 1.44,11.95201 1.872,22.896 l 5.76,0 0.72,-9.936 c 0,-0.864 0.72,-2.592 1.152,-3.312 0.72,-1.008 3.024,-1.44 9.072,-1.44 l 16.848,0 0,69.696 c 0,12.81598 -0.144,13.104 -6.912,13.68 l -5.328,0.432 0,5.76 c 17.424,-0.432 17.424,-0.432 22.32,-0.432 4.896,0 5.0401,0 22.464,0.432 l 0,-5.76 -5.328,-0.432 c -6.768,-0.576 -6.912,-0.86402 -6.912,-13.68 l 0,-69.696"
         style="font-size:144px;font-weight:bold;text-align:start;writing-mode:lr-tb;text-anchor:start;font-family:URW Palladio L;-inkscape-font-specification:URW Palladio L Bold;fill:#787878;fill-opacity:1"
         id="path3166" />
      <path
         d="m 1220.417,670.02725 c 8.064,-0.432 12.96,-0.576 20.88,-0.576 7.776,0 13.968,1.296 14.112,2.88 l 1.152,10.8 5.184,0 2.016,-20.448 -0.864,-1.008 c -5.328,-0.432 -8.064,-0.576 -13.68,-0.576 -3.312,0 -7.632,0.144 -15.552,0.288 -10.512,0.288 -14.544,0.288 -18.72,0.288 -5.04,0 -11.232,-0.144 -27.072,-0.432 l 0,5.328 5.328,0.432 c 6.48,0.576 6.912,1.44001 6.912,14.112 l 0,64.512 c 0,4.89599 -0.72,7.056 -2.88,8.208 l -4.608,2.592 0,3.312 c 14.256,-0.432 14.256,-0.432 17.568,-0.432 l 4.896,0 c 14.544,0.432 20.304,0.576 27.648,0.576 7.488,0 11.952,-0.144 20.304,-0.576 l 0.72,-1.152 1.584,-22.752 -5.616,0 -3.312,13.536 c 0,0.144 -0.144,0.288 -0.432,0.432 -4.464,1.44 -8.64,2.016 -16.704,2.016 -5.904,0 -11.52,-0.144 -18.864,-0.432 l 0,-38.448 c 4.032,-0.288 6.48,-0.432 9.648,-0.432 l 9.504,0 c 5.472,0 7.776,1.584 8.208,5.328 l 0.864,7.2 5.76,0 c 0,0 -0.432,-15.552 -0.432,-15.552 0,-1.584 0,-1.72802 0.432,-15.408 l -5.76,0 -0.864,8.208 c -0.288,2.30399 -2.16,3.024 -8.208,3.024 l -9.504,0 c -4.752,0 -6.768,0 -9.648,-0.288 l 0,-34.56"
         style="font-size:144px;font-weight:bold;text-align:start;writing-mode:lr-tb;text-anchor:start;font-family:URW Palladio L;-inkscape-font-specification:URW Palladio L Bold;fill:#787878;fill-opacity:1"
         id="path3168" />
      <path
         d="m 1292.6083,661.67525 -3.024,0 c -1.296,0 -6.048,-0.144 -14.256,-0.432 l 0,5.328 5.328,0.432 c 6.48,0.576 6.912,1.44001 6.912,14.112 l 0,58.752 c 0,12.67198 -0.432,13.536 -6.912,14.112 l -5.328,0.432 0,5.328 c 13.824,-0.432 13.824,-0.432 16.56,-0.432 2.88,0 9.504,0.144 16.416,0.432 l 0,-5.328 -5.328,-0.432 c -6.48,-0.576 -6.912,-1.29602 -6.912,-14.112 l 0,-56.592 46.944,56.448 17.568,20.016 11.808,1.872 1.008,-0.576 c -0.288,-8.06399 -0.432,-11.23201 -0.432,-14.544 l 0,-65.376 c 0,-12.67199 0.432,-13.536 6.912,-14.112 l 5.328,-0.432 0,-5.328 c 0,0 -16.416,0.432 -16.416,0.432 -1.584,0 -3.888,0 -16.56,-0.432 l 0,5.328 5.328,0.432 c 6.48,0.576 6.912,1.44001 6.912,14.112 l 0,51.696 -44.928,-52.416 c -3.024,-3.456 -5.616,-6.91202 -14.832,-19.152 l -12.096,0.432"
         style="font-size:144px;font-weight:bold;text-align:start;writing-mode:lr-tb;text-anchor:start;font-family:URW Palladio L;-inkscape-font-specification:URW Palladio L Bold;fill:#787878;fill-opacity:1"
         id="path3170" />
      <path
         d="m 1490.03,746.77925 -1.728,-1.728 c -9.36,4.89599 -18.72,7.344 -28.08,7.344 -25.1999,0 -41.904,-17.85603 -41.904,-45.072 0,-24.76798 14.1121,-40.032 36.864,-40.032 10.8,0 17.856,2.736 25.632,9.936 l 0.72,12.384 5.616,0 c 1.584,-13.82399 2.016,-16.56001 3.312,-22.032 l -0.864,-1.584 c -13.1039,-5.184 -21.168,-6.768 -33.696,-6.768 -36.4319,0 -59.184,19.29603 -59.184,50.112 0,32.25596 22.1761,52.416 57.744,52.416 13.248,0 21.744,-2.01601 32.4,-7.92 l 3.168,-7.056"
         style="font-size:144px;font-weight:bold;text-align:start;writing-mode:lr-tb;text-anchor:start;font-family:URW Palladio L;-inkscape-font-specification:URW Palladio L Bold;fill:#787878;fill-opacity:1"
         id="path3172" />
      <path
         d="m 1532.6045,670.02725 c 8.064,-0.432 12.96,-0.576 20.88,-0.576 7.776,0 13.968,1.296 14.112,2.88 l 1.152,10.8 5.184,0 2.016,-20.448 -0.864,-1.008 c -5.328,-0.432 -8.064,-0.576 -13.68,-0.576 -3.312,0 -7.632,0.144 -15.552,0.288 -10.512,0.288 -14.544,0.288 -18.72,0.288 -5.04,0 -11.232,-0.144 -27.072,-0.432 l 0,5.328 5.328,0.432 c 6.48,0.576 6.912,1.44001 6.912,14.112 l 0,64.512 c 0,4.89599 -0.72,7.056 -2.88,8.208 l -4.608,2.592 0,3.312 c 14.256,-0.432 14.256,-0.432 17.568,-0.432 l 4.896,0 c 14.544,0.432 20.304,0.576 27.648,0.576 7.488,0 11.952,-0.144 20.304,-0.576 l 0.72,-1.152 1.584,-22.752 -5.616,0 -3.312,13.536 c 0,0.144 -0.144,0.288 -0.432,0.432 -4.464,1.44 -8.64,2.016 -16.704,2.016 -5.904,0 -11.52,-0.144 -18.864,-0.432 l 0,-38.448 c 4.032,-0.288 6.48,-0.432 9.648,-0.432 l 9.504,0 c 5.472,0 7.776,1.584 8.208,5.328 l 0.864,7.2 5.76,0 c 0,0 -0.432,-15.552 -0.432,-15.552 0,-1.584 0,-1.72802 0.432,-15.408 l -5.76,0 -0.864,8.208 c -0.288,2.30399 -2.16,3.024 -8.208,3.024 l -9.504,0 c -4.752,0 -6.768,0 -9.648,-0.288 l 0,-34.56"
         style="font-size:144px;font-weight:bold;text-align:start;writing-mode:lr-tb;text-anchor:start;font-family:URW Palladio L;-inkscape-font-specification:URW Palladio L Bold;fill:#787878;fill-opacity:1"
         id="path3174" />
    </g>
    <text
       sodipodi:linespacing="125%"
       id="text2997"
       y="35.653133"
       x="49.718296"
       style="font-size:40px;font-style:normal;font-variant:normal;font-weight:normal;font-stretch:normal;line-height:125%;letter-spacing:0px;word-spacing:0px;fill:#ffffff;fill-opacity:0.47058824;stroke:none;filter:url(#filter3956);font-family:Nimbus Roman No9 L;-inkscape-font-specification:Nimbus Roman No9 L"
       xml:space="preserve"><tspan
         style="font-size:144px;font-style:normal;font-variant:normal;font-weight:bold;font-stretch:normal;text-align:start;line-height:125%;writing-mode:lr-tb;text-anchor:start;fill:#ffffff;fill-opacity:0.47058824;font-family:URW Palladio L;-inkscape-font-specification:URW Palladio L Bold"
         y="35.653133"
         x="49.718296"
         id="tspan2999"
         sodipodi:role="line">COLOR YOUR LANGUAGE </tspan><tspan
         id="tspan3001"
         style="font-size:144px;font-style:normal;font-variant:normal;font-weight:bold;font-stretch:normal;text-align:start;line-height:125%;writing-mode:lr-tb;text-anchor:start;fill:#ffffff;fill-opacity:0.47058824;font-family:URW Palladio L;-inkscape-font-specification:URW Palladio L Bold"
         y="215.65314"
         x="49.718296"
         sodipodi:role="line">BE IT BLACK HUMOR,</tspan><tspan
         id="tspan3003"
         style="font-size:144px;font-style:normal;font-variant:normal;font-weight:bold;font-stretch:normal;text-align:start;line-height:125%;writing-mode:lr-tb;text-anchor:start;fill:#ffffff;fill-opacity:0.47058824;font-family:URW Palladio L;-inkscape-font-specification:URW Palladio L Bold"
         y="395.65314"
         x="49.718296"
         sodipodi:role="line">WHITE LIES, ET CETERRA,</tspan><tspan
         id="tspan3005"
         style="font-size:144px;font-style:normal;font-variant:normal;font-weight:bold;font-stretch:normal;text-align:start;line-height:125%;writing-mode:lr-tb;text-anchor:start;fill:#ffffff;fill-opacity:0.47058824;font-family:URW Palladio L;-inkscape-font-specification:URW Palladio L Bold"
         y="575.65314"
         x="49.718296"
         sodipodi:role="line">OLIVE AN IMPRECYAN</tspan><tspan
         id="tspan3007"
         style="font-size:144px;font-style:normal;font-variant:normal;font-weight:bold;font-stretch:normal;text-align:start;line-height:125%;writing-mode:lr-tb;text-anchor:start;fill:#ffffff;fill-opacity:0.47058824;font-family:URW Palladio L;-inkscape-font-specification:URW Palladio L Bold"
         y="755.65314"
         x="49.718296"
         sodipodi:role="line">IN IVORY SENTENCE</tspan></text>
  </g>
</svg>
