<?xml version="1.0" encoding="UTF-8" standalone="no"?>
<svg
   xmlns:dc="http://purl.org/dc/elements/1.1/"
   xmlns:cc="http://creativecommons.org/ns#"
   xmlns:rdf="http://www.w3.org/1999/02/22-rdf-syntax-ns#"
   xmlns:svg="http://www.w3.org/2000/svg"
   xmlns="http://www.w3.org/2000/svg"
   xmlns:sodipodi="http://sodipodi.sourceforge.net/DTD/sodipodi-0.dtd"
   xmlns:inkscape="http://www.inkscape.org/namespaces/inkscape"
   version="1.1"
   width="116.12249"
   height="100.26066"
   viewBox="0 0 116.12249 100.26066"
   overflow="visible"
   enable-background="new 0 0 266 100"
   xml:space="preserve"
   id="svg3041"
   inkscape:version="0.48.3.1 r9886"
   sodipodi:docname="Fijibook.svg"
   style="overflow:visible"
   inkscape:export-filename="/home/gene099/media/images/svg/Fijibook.png"
   inkscape:export-xdpi="300"
   inkscape:export-ydpi="300"><metadata
   id="metadata3057"><rdf:RDF><cc:Work
       rdf:about=""><dc:format>image/svg+xml</dc:format><dc:type
         rdf:resource="http://purl.org/dc/dcmitype/StillImage" /><dc:title></dc:title></cc:Work></rdf:RDF></metadata><defs
   id="defs3055">
		
		
	</defs><sodipodi:namedview
   pagecolor="#ffffff"
   bordercolor="#666666"
   borderopacity="1"
   objecttolerance="10"
   gridtolerance="10"
   guidetolerance="10"
   inkscape:pageopacity="0"
   inkscape:pageshadow="2"
   inkscape:window-width="2560"
   inkscape:window-height="1364"
   id="namedview3053"
   showgrid="false"
   fit-margin-top="0"
   fit-margin-left="0"
   fit-margin-right="0"
   fit-margin-bottom="0"
   inkscape:zoom="11.908958"
   inkscape:cx="58.061245"
   inkscape:cy="50.130329"
   inkscape:window-x="0"
   inkscape:window-y="24"
   inkscape:window-maximized="1"
   inkscape:current-layer="svg3041" />
	<g
   id="g3043"><rect
     width="116.12249"
     height="100.26066"
     id="rect3045"
     ry="0"
     x="0"
     y="0"
     style="fill:#3b5998" /></g>
	<path
   style="fill:#ffffff"
   d="m 42.625,28.8125 c -7.011719,0 -9.46875,3.547364 -9.46875,9.5 l 0,4.375 -4.375,0 0,7.3125 4.375,0 0,21.1875 8.75,0 0,-21.1875 5.84375,0 0.78125,-7.3125 -6.625,0 0,-3.625 c 0,-1.90332 0.207519,-2.9375 2.9375,-2.9375 l 3.625,0 0,-7.3125 z M 50.96875,35 l 0,8 8.75,0 0,-8 z m 27,0 0,8 8.75,0 0,-8 z m -4.8125,6.5625 -8.75,1.46875 0,32.78125 c 0,3.330078 -1.07959,4.1875 -5,4.1875 -3.52441,0 -5.68994,-0.1875 -10.21875,-0.96875 l 0,7.125 c 4.36767,0.890625 6.65185,1.125 10.9375,1.125 9.39258,0 13.03125,-4.927734 13.03125,-12.0625 z m -22.1875,3.59375 0,26 8.75,0 0,-26 z m 27,0 0,26 8.75,0 0,-26 z"
   id="path3049"
   inkscape:connector-curvature="0"
   sodipodi:nodetypes="ssccccccccccssccsccccccccccccssccssccccccccccc" />
</svg>