<?xml version="1.0" encoding="UTF-8" standalone="no"?>
<!-- Generator: Adobe Illustrator 13.0.1, SVG Export Plug-In . SVG Version: 6.00 Build 14948)  -->

<svg
   xmlns:dc="http://purl.org/dc/elements/1.1/"
   xmlns:cc="http://creativecommons.org/ns#"
   xmlns:rdf="http://www.w3.org/1999/02/22-rdf-syntax-ns#"
   xmlns:svg="http://www.w3.org/2000/svg"
   xmlns="http://www.w3.org/2000/svg"
   xmlns:xlink="http://www.w3.org/1999/xlink"
   xmlns:sodipodi="http://sodipodi.sourceforge.net/DTD/sodipodi-0.dtd"
   xmlns:inkscape="http://www.inkscape.org/namespaces/inkscape"
   version="1.1"
   id="Layer_1"
   x="0px"
   y="0px"
   width="180.6019"
   height="47.341705"
   viewBox="0 0 180.6019 47.341705"
   enable-background="new 0 0 256 145.5"
   xml:space="preserve"
   inkscape:version="0.47 r22583"
   sodipodi:docname="Malt_Whisky-logo.svg"><metadata
   id="metadata1489"><rdf:RDF><cc:Work
       rdf:about=""><dc:format>image/svg+xml</dc:format><dc:type
         rdf:resource="http://purl.org/dc/dcmitype/StillImage" /><dc:title></dc:title></cc:Work></rdf:RDF></metadata><defs
   id="defs1487"><inkscape:perspective
   sodipodi:type="inkscape:persp3d"
   inkscape:vp_x="0 : 72.75 : 1"
   inkscape:vp_y="0 : 1000 : 0"
   inkscape:vp_z="256 : 72.75 : 1"
   inkscape:persp3d-origin="128 : 48.5 : 1"
   id="perspective1491" />
	<defs
   id="defs5">
		<rect
   height="288"
   width="432"
   y="-74"
   x="-91.5"
   id="SVGID_1_" />
	</defs>
	<clipPath
   id="SVGID_2_">
		<use
   id="use9"
   overflow="visible"
   xlink:href="#SVGID_1_"
   style="overflow:visible"
   x="0"
   y="0"
   width="256"
   height="145.5" />
	</clipPath>
	
		
	
	
	
	
	
	
	
	
	
	
	
	
	
	
	
	
	
	
	
	
	
	
	
	
	
	
	
	
	
	
	
	
	
	
	
	
	
	
	
	
	
	
	
	
	
	
	
	
	
	
	
	
	
	
	
	
	
	
	
	
	
	
	
	
	
	
	
	
	
	
	
	
	
	
	
	
	
	
	
	
	
	
	
	
	
	
	
	
	
	
	
	
	
	
<inkscape:perspective
   id="perspective5546"
   inkscape:persp3d-origin="0.5 : 0.33333333 : 1"
   inkscape:vp_z="1 : 0.5 : 1"
   inkscape:vp_y="0 : 1000 : 0"
   inkscape:vp_x="0 : 0.5 : 1"
   sodipodi:type="inkscape:persp3d" /><inkscape:perspective
   id="perspective5571"
   inkscape:persp3d-origin="0.5 : 0.33333333 : 1"
   inkscape:vp_z="1 : 0.5 : 1"
   inkscape:vp_y="0 : 1000 : 0"
   inkscape:vp_x="0 : 0.5 : 1"
   sodipodi:type="inkscape:persp3d" /><inkscape:perspective
   id="perspective5593"
   inkscape:persp3d-origin="0.5 : 0.33333333 : 1"
   inkscape:vp_z="1 : 0.5 : 1"
   inkscape:vp_y="0 : 1000 : 0"
   inkscape:vp_x="0 : 0.5 : 1"
   sodipodi:type="inkscape:persp3d" /><inkscape:perspective
   id="perspective6429"
   inkscape:persp3d-origin="0.5 : 0.33333333 : 1"
   inkscape:vp_z="1 : 0.5 : 1"
   inkscape:vp_y="0 : 1000 : 0"
   inkscape:vp_x="0 : 0.5 : 1"
   sodipodi:type="inkscape:persp3d" /><inkscape:perspective
   id="perspective6451"
   inkscape:persp3d-origin="0.5 : 0.33333333 : 1"
   inkscape:vp_z="1 : 0.5 : 1"
   inkscape:vp_y="0 : 1000 : 0"
   inkscape:vp_x="0 : 0.5 : 1"
   sodipodi:type="inkscape:persp3d" /></defs><sodipodi:namedview
   pagecolor="#ffffff"
   bordercolor="#666666"
   borderopacity="1"
   objecttolerance="10"
   gridtolerance="10"
   guidetolerance="10"
   inkscape:pageopacity="0"
   inkscape:pageshadow="2"
   inkscape:window-width="1024"
   inkscape:window-height="549"
   id="namedview1485"
   showgrid="false"
   inkscape:zoom="3.0952056"
   inkscape:cx="90.300949"
   inkscape:cy="22.597446"
   inkscape:window-x="0"
   inkscape:window-y="24"
   inkscape:window-maximized="1"
   inkscape:current-layer="Layer_1" />
<path
   style="fill:#6a94cd"
   d="m 121.8185,4.6872018 c -0.205,0.0062 -0.41888,0.03513 -0.625,0.0625 -3.354,0.604 -7.026,2.62875 -8.125,6.0937502 -0.274,1.375 0.0412,2.66075 1.03125,3.59375 -0.111,0.853 -0.21625,2.022 0.71875,2.625 1.046,0.551 1.2715,-0.69125 1.8125,-1.15625 3.079,1.21 6.065,-0.21725 8.375,-2.03125 1.812,-1.54 4.005,-3.4095 3.125,-5.9375002 -0.495,-0.99 -1.54775,-1.59375 -2.59375,-1.59375 -0.91262,-1.203125 -2.28378,-1.699945 -3.71875,-1.65625 z m -3,3.25 c 0.13574,-0.01515 0.26888,-0.0069 0.40625,0 -1.545,1.153 -2.85325,2.6055002 -3.90625,4.1875002 -0.548,-0.99 0.338,-1.9885 1,-2.8125002 0.65713,-0.644 1.54983,-1.268947 2.5,-1.375 z m 6,0.25 c 0.26025,0.0077 0.5235,0.04113 0.78125,0.125 0.253,0.08 0.4045,0.205 0.5625,0.625 0.365,0.962 -0.8805,2.4482502 -2.0625,3.1562502 -1.813,0.988 -3.817,1.775 -6.125,1.5 0.295,-0.846 0.88125,-1.52825 1.78125,-2.40625 1.40613,-1.3711252 3.24074,-3.0540862 5.0625,-3.0000002 z"
   id="path5506" /><path
   style="fill:#6a94cd"
   d="m 46.524381,16.790765 c -1.706,0.99 -2.281,2.815 -2.748,4.453 -0.95,3.314 -2.145,7.096 -0.825,10.667 0.385,1.046 1.483,1.705 2.584,1.871 2.529,-0.166 5.223,-1.814 5.993,-4.397 0.111,-0.551 0.2,-1.631 -0.33,-1.65 -1.595,0.109 -3.024,1.042 -4.564,1.539 -0.371,0.062 -0.989,0.404 -1.099,-0.11 -0.111,-2.859 0.789,-5.493 1.484,-8.139 0.309,-1.175 0.771,-2.473 0.275,-3.738 -0.104,-0.29 -0.331,-0.717 -0.77,-0.496"
   id="path5496" /><path
   style="fill:#6a94cd"
   d="m 50.044381,17.064765 c -0.66,0.332 -1.135,1.17 -1.102,2.036 0.221,2.419 2.819,3.465 4.676,4.235 -0.33,1.044 -0.733,2.11 -0.936,3.188 -0.646,3.429 -1.374,8.248 0.99,11.162 0.598,0.688 1.374,1.1 2.254,0.881 0.304,-0.092 0.544,-0.228 0.55,-0.552 -0.33,-4.508 -0.439,-9.621 0.824,-13.856 0,0 1.266,0.159 2.641,-0.11 1.374,-0.267 2.254,-1.098 2.748,-2.197 -0.054,-1.541 -0.274,-3.41 -1.868,-4.125 -2.31,-0.771 -4.234,0.989 -5.609,2.641 -1.759,-0.386 -3.52,-0.826 -4.838,-2.2 -0.221,-0.331 0,-0.826 -0.33,-1.103"
   id="path5494" /><path
   style="fill:#6a94cd"
   d="m 170.9435,18.093452 c -0.38563,0.110938 -0.93938,0.603125 -1.1875,0.9375 -2.86,3.41 -5.89425,7.922 -3.53125,12.375 -1.538,4.069 -2.848,8.2475 -3.125,12.8125 0.055,1.154 1.009,2.148 2,2.75 0.33,0.166 1.0945,0.60475 1.1875,0.21875 0.769,-4.397 1.86525,-8.626 3.40625,-12.75 1.448,0.186 2.3675,0.14725 4.3125,-0.71875 3.299,-1.593 6.42975,-5.05075 6.59375,-8.84375 0.048,-2.036 -0.70575,-3.969 -2.46875,-5.125 -0.571,-0.357 -1.16875,-0.1795 -1.71875,0.0625 -3.411,1.979 -7.52675,6.5565 -8.46875,8.5625 -0.158,-3.896 3.13125,-6.3635 3.40625,-9.9375 0.003,-0.335625 -0.17488,-0.410313 -0.40625,-0.34375 z m 6.875,4.375 c 0.38726,-0.114283 0.6325,1.801875 0.53125,2.625 -0.384,2.585 -3.5875,4.76775 -5.1875,5.21875 -0.537,0.151 -0.775,0.14225 -1.375,0.15625 0.909,-2.11 3.3535,-5.71575 5.9375,-7.96875 0.0271,-0.02669 0.0679,-0.02363 0.0937,-0.03125 z"
   id="path5492" /><path
   style="fill:#6a94cd"
   d="m 135.50438,18.824765 c -4.655,-0.789 -9.899,-0.551 -13.253,2.694 -0.583,0.632 -0.549,1.816 -0.494,2.639 0.151,0.537 0.769,1.102 1.319,1.265 3.683,0.826 8.413,-0.163 11.547,2.312 0.388,0.493 0.035,1.017 -0.439,1.264 -2.913,1.209 -5.998,2.068 -9.409,1.354 -0.461,-0.121 -1.148,-0.604 -0.929,-1.078 1.375,-2.09 3.685,-0.057 5.389,0.219 0.852,0.186 2.75,-0.053 3.685,-1.046 0.296,-0.556 -0.735,-0.896 -1.43,-1.098 -2.42,-0.658 -5.827,-1.429 -8.084,0.108 -0.638,0.434 -1.154,1.76 -0.713,2.806 1.87,3.023 5.455,4.044 8.797,3.52 2.275,-0.358 5.004,-1.156 5.555,-3.738 0.261,-1.636 0.164,-3.411 -1.211,-4.565 -3.188,-2.143 -7.753,-0.99 -11.271,-2.42 -0.111,-0.164 -0.043,-0.22 0.165,-0.328 3.738,-1.154 8.136,-0.716 11.987,-1.65 0.555,-0.163 1.071,-1.06 0.824,-1.484 -0.551,-0.554 -1.266,-0.643 -2.035,-0.774"
   id="path5490" /><path
   style="fill:#6a94cd"
   d="m 163.15938,18.603765 c -2.185,-0.303 -6.815,0.606 -10.062,1.102 -0.438,0.056 -0.328,0.439 -0.217,0.769 0.273,1.321 1.702,1.103 2.637,1.597 -0.386,0.88 -0.605,1.813 -1.154,2.638 -0.494,0.167 -1.32,0.055 -1.375,0.825 -0.048,0.468 0.332,0.777 0.295,1.394 -0.514,1.308 -1.405,2.681 -1.065,4.382 0.413,1.497 1.135,3.112 2.2,3.353 3.411,0.66 6.213,-1.263 8.797,-3.188 0.449,-0.455 -0.412,-1.828 -0.714,-1.87 -2.307,-0.275 -4.453,0.715 -6.763,0.66 0.22,-1.1 0.501,-2.041 1.052,-2.976 1.885,-0.275 4.688,0.119 5.82,-0.764 0.329,-0.384 0.192,-1.587 -0.109,-1.761 -1.43,-0.493 -3.305,-0.306 -4.742,-0.225 0.235,-0.736 0.474,-1.563 0.729,-2.304 1.211,0.109 2.416,0.034 3.518,-0.055 1.176,-0.097 2.585,0.112 3.411,-0.824 0.238,-0.474 -0.688,-1.746 -1.211,-2.146 -0.524,-0.397 -0.75,-0.564 -1.047,-0.607"
   id="path5488" /><path
   style="fill:#6a94cd"
   d="m 118.29238,18.769765 c -0.61,-0.055 -0.816,0.872 -0.934,1.32 -0.495,3.298 -0.696,6.983 -0.605,10.559 0.035,1.332 -0.165,3.134 1.485,3.462 0.659,0.166 1.883,0 1.978,-0.438 0.332,-4.18 -0.108,-8.854 -0.437,-13.141 -0.038,-0.442 -0.607,-1.542 -1.487,-1.762"
   id="path5486" /><path
   style="fill:#6a94cd"
   d="m 60.875381,19.373765 c 0.22,0.441 -0.385,0.716 -0.66,0.883 -0.583,0.314 -1.21,0.383 -1.814,0.274 0,-0.331 0.2,-0.785 0.551,-1.046 0.493,-0.384 1.428,-0.77 1.923,-0.111"
   id="path5484" />
<path
   style="fill:#6a94cd"
   d="m 29.544209,26.686707 c 0.293,0.212 0.98625,1.415997 1.03125,1.749997 -0.329,1.156 -0.93525,2.20575 -1.15625,3.46875 0.166,1.154 0.1185,2.65475 1.4375,3.09375 0.55,0.11 1.34525,0.13625 1.53125,-0.34375 0.549,-1.705 0.9865,-3.4685 1.8125,-5.0625 0,0 3.923253,0.248 4.406253,0 -0.103,0.441 0.21875,2.53125 0.21875,2.53125 0.385,0.991 1.3385,2.1465 2.4375,2.3125 0.276,0.046 0.367,-0.24225 0.375,-0.53125 0.055,-6.048 -0.5585,-12.104497 -2.8125,-17.437497 -0.226,-0.462 -0.8735,-0.39225 -1.3125,-0.28125 -0.441,0.109 -0.5625,0.616 -0.5625,1 -2.474003,2.75 -4.046253,5.865 -5.531253,9 -0.64,0.081 -1.13275,-0.0143 -1.71875,-0.15625 -0.389436,-0.0806 -0.279166,0.60596 -0.15625,0.65625 z m 7.968753,-4.6875 c 0.55,1.099 0.61625,2.4215 0.78125,3.6875 -0.714,0.385 -1.45875,0.41775 -2.46875,0.34375 -0.276,0 -0.1645,-0.189 -0.0625,-0.375 0.496,-1.265 1.09,-2.50325 1.75,-3.65625 z"
   id="path5510-8"
   sodipodi:nodetypes="ccccccccsccsccccccccc" /><path
   style="fill:#6a94cd"
   d="m 91.129231,0.00438476 c -0.322,-0.056 -0.50225,0.44125 -0.28125,0.53125 4.565,4.01299904 6.2575,9.68899924 6.3125,15.62499924 -0.324,5.328 -1.6295,10.32975 -5.3125,14.34375 -1.924,1.816 -4.46325,3.3025 -7.15625,2.3125 -0.879,-0.385 -1.86525,-1.3785 -2.03125,-2.3125 2.199,-1.924 4.32125,-4.11225 5.53125,-6.53125 1.594,-3.023 1.7765,-7.5785 -0.3125,-10.4375 -0.584,-0.592 -1.44875,-0.84375 -2.21875,-0.84375 -2.089,0.164 -3.836,1.2745 -5.375,2.8125 -3.906,3.795 -2.919,10.396 -1.875,15.125 -0.934,0.822 -2.3515,0.97775 -3.5625,0.59375 -1.483,-0.551 -2.31125,-2.2025 -2.53125,-3.6875 -0.66,-7.259 1.53225,-13.78325 5.65625,-19.2812502 0.989,-1.483 2.80025,-2.475 3.40625,-4.125 0.199,-0.534999 -0.69525,-0.593249 -1.15625,-0.406249 -4.619,2.088999 -7.97475,6.6709992 -9.84375,11.1249992 -1.815,4.729 -3.494,11.46825 -0.25,16.03125 1.759,2.308 4.59,2.939 7.25,2.375 0.66,-0.109 1.34325,-0.32075 1.90625,-0.59375 0.935,1.924 2.92725,3.575 4.90625,4.125 4.302,1.1 7.9265,-1.20375 11.0625,-3.84375 2.30779,-2.62563 3.58797,-4.76271 4.4375,-6.71875 2.200999,-5.665 1.834499,-13.18825 -0.8125,-18.5312502 -1.529,-3.086 -4.341,-6.75649904 -7.75,-7.68749904 z M 84.597981,14.504384 c 0.13378,0.005 0.27519,0.10688 0.40625,0.28125 0.606,0.934 0.72425,2.1025 0.65625,3.3125 -0.206,3.678 -1.29225,6.7455 -3.65625,9.4375 -0.331,-1.485 -0.18,-3.3425 -0.125,-4.9375 0.495,-2.75 0.6225,-5.7935 2.4375,-7.9375 0.0602,-0.0585 0.0962,-0.10003 0.15625,-0.125 0.045,-0.0187 0.0804,-0.033 0.125,-0.0312 l 0,-5e-5 z"
   id="path5510-4"
   sodipodi:nodetypes="ccccccccccccccsccccccccscccscccscc" /><path
   style="fill:#6a94cd"
   d="m 10.001066,39.917242 c 0.322,0.056 0.50225,-0.44125 0.28125,-0.53125 -4.5649997,-4.013 -6.2574997,-9.689 -6.3124997,-15.625 0.324,-5.328 1.6295,-10.32975 5.3125,-14.3437502 1.9239997,-1.816 4.4632497,-3.3025 7.1562497,-2.3125 0.879,0.385 1.86525,1.3785 2.03125,2.3125 -2.199,1.9240002 -4.32125,4.1122502 -5.53125,6.5312502 -1.594,3.023 -1.7765,7.5785 0.3125,10.4375 0.584,0.592 1.44875,0.84375 2.21875,0.84375 2.089,-0.164 3.836,-1.2745 5.375,-2.8125 3.905999,-3.795 2.918999,-10.396 1.875,-15.1250002 0.933999,-0.822 2.351499,-0.97775 3.562499,-0.59375 1.483,0.551 2.31125,2.2025002 2.53125,3.6875002 0.66,7.259 -1.53225,13.78325 -5.65625,19.28125 -0.988999,1.483 -2.800249,2.475 -3.406249,4.125 -0.199,0.535 0.69525,0.59325 1.15625,0.40625 4.618999,-2.089 7.974749,-6.671 9.843749,-11.125 1.815,-4.729 3.494,-11.46825 0.25,-16.0312502 -1.759,-2.308 -4.59,-2.939 -7.25,-2.375 -0.66,0.109 -1.343249,0.32075 -1.906249,0.59375 -0.935,-1.924 -2.92725,-3.575 -4.90625,-4.125 -4.302,-1.1 -7.9264997,1.20375 -11.0624997,3.84375 -2.307795,2.62563 -3.58797,4.7627102 -4.4375,6.7187502 -2.20100002,5.665 -1.83450002,13.18825 0.8125,18.53125 1.529,3.086 4.341,6.7565 7.7499997,7.6875 z m 6.53125,-14.5 c -0.133783,-0.005 -0.275188,-0.10688 -0.40625,-0.28125 -0.606,-0.934 -0.72425,-2.1025 -0.65625,-3.3125 0.206,-3.678 1.29225,-6.7455 3.65625,-9.4375 0.331,1.485 0.18,3.3425 0.125,4.9375 -0.495,2.75 -0.6225,5.7935 -2.4375,7.9375 -0.06025,0.0585 -0.09622,0.10003 -0.15625,0.125 -0.04502,0.0187 -0.08041,0.033 -0.125,0.0312 l 0,5e-5 z"
   id="path5510-4-6"
   sodipodi:nodetypes="ccccccccccccccsccccccccscccscccscc" /><path
   style="fill:#6a94cd"
   d="m 110.7934,26.031537 c -0.86394,0.377338 -2.56872,0.344347 -3.79082,0.271819 -0.33396,0 -2.31654,0.02916 -2.19312,-0.153146 0.13887,-0.630075 0.89995,-6.796062 0.84995,-7.495732 -0.24566,-0.743289 -1.74118,-2.064901 -2.70276,-1.141396 -1.68718,3.158223 -0.79515,5.936936 -1.28562,8.943413 -0.7744,0.07938 -1.37064,-0.01401 -2.079699,-0.153139 -0.47122,-0.07906 -0.33779,0.5939 -0.18905,0.643189 0.35453,0.207781 2.176479,1.540968 2.230929,1.868322 -0.0715,1.26526 -0.085,2.013595 -0.18906,3.185325 -0.20738,1.197172 -1.06661,2.663166 0.52938,3.09343 0.6655,0.107811 1.70337,-0.387139 1.92843,-0.857587 0.74594,-1.671071 0.13491,-2.878789 1.13437,-4.441068 0,0 5.55076,0.308156 6.13519,0.06512 -0.12463,0.432224 0.26468,2.480868 0.26468,2.480868 0.46585,0.971279 1.61959,2.103788 2.94938,2.266485 0.33396,0.04512 0.44407,-0.237427 0.45375,-0.520676 0.0332,-2.963823 -0.568,-5.532924 -0.62039,-8.287224 -0.0524,-2.754307 0.44411,-5.693822 0.0603,-8.604873 -0.27346,-0.8496 -2.39745,0.308189 -2.56138,1.349679 -0.36251,2.493237 -0.90982,4.971642 -0.92446,7.487219 z"
   id="path5510-8-7"
   sodipodi:nodetypes="ccccccsccccccccscsccc" /><path
   style="fill:#6a94cd"
   d="m 142.07856,18.248226 c -0.40175,-0.583571 -1.5967,-0.409053 -1.91251,0.180217 -1.59599,3.25974 -2.2143,6.85102 -2.46356,10.64558 -0.13189,2.02675 -0.52998,4.72263 1.59962,5.78864 0.59895,0.19723 1.42901,0.1089 1.66375,-0.46464 0.47369,-1.006926 0.65359,-2.544872 0.54982,-5.132917 0,-0.31702 0.3616,-1.319626 0.55036,-1.044956 2.34745,2.378134 1.12996,1.141272 3.39299,3.476863 1.0591,1.093041 2.87563,2.774239 4.36756,2.688329 1.49595,-0.113135 2.18413,-0.811813 1.93483,-1.70397 -1.14639,-2.090057 -4.18872,-3.249334 -6.44624,-5.613723 4.10508,-2.113277 5.54394,-5.545926 6.55386,-7.313421 0.27806,-0.644603 1.44961,-2.869769 -0.14638,-3.267859 -0.95077,0.356369 -0.90316,0.621347 -1.72325,1.958966 -0.82011,1.337618 -1.54783,2.3024 -3.77268,4.207956 -0.66602,0.570443 -2.25697,1.558867 -4.61415,2.7573 0.4882,-2.688475 1.81269,-5.206219 0.46598,-7.162365 z"
   id="path5498-3"
   sodipodi:nodetypes="ccsccccsccccczscs" /></svg>