<?xml version="1.0" encoding="UTF-8" standalone="no"?>
<!-- Created with Inkscape (http://www.inkscape.org/) -->

<svg
   xmlns:dc="http://purl.org/dc/elements/1.1/"
   xmlns:cc="http://creativecommons.org/ns#"
   xmlns:rdf="http://www.w3.org/1999/02/22-rdf-syntax-ns#"
   xmlns:svg="http://www.w3.org/2000/svg"
   xmlns="http://www.w3.org/2000/svg"
   xmlns:xlink="http://www.w3.org/1999/xlink"
   xmlns:sodipodi="http://sodipodi.sourceforge.net/DTD/sodipodi-0.dtd"
   xmlns:inkscape="http://www.inkscape.org/namespaces/inkscape"
   width="760.68396"
   height="648.03851"
   id="svg2"
   version="1.1"
   inkscape:version="0.47 r22583"
   sodipodi:docname="turkey.svg"
   inkscape:export-filename="/home/gene099/media/images/svg/turkey.png"
   inkscape:export-xdpi="72"
   inkscape:export-ydpi="72">
  <defs
     id="defs4">
    <linearGradient
       id="linearGradient3687">
      <stop
         id="stop3689"
         offset="0"
         style="stop-color:#808080;stop-opacity:1;" />
      <stop
         style="stop-color:#807f7f;stop-opacity:0.24705882;"
         offset="0.5"
         id="stop3693" />
      <stop
         id="stop3691"
         offset="1"
         style="stop-color:#817f7e;stop-opacity:0;" />
    </linearGradient>
    <linearGradient
       id="linearGradient3643">
      <stop
         style="stop-color:#808080;stop-opacity:1;"
         offset="0"
         id="stop3645" />
      <stop
         style="stop-color:#817f7e;stop-opacity:0;"
         offset="1"
         id="stop3647" />
    </linearGradient>
    <inkscape:perspective
       sodipodi:type="inkscape:persp3d"
       inkscape:vp_x="0 : 526.18109 : 1"
       inkscape:vp_y="0 : 1000 : 0"
       inkscape:vp_z="744.09448 : 526.18109 : 1"
       inkscape:persp3d-origin="372.04724 : 350.78739 : 1"
       id="perspective10" />
    <linearGradient
       inkscape:collect="always"
       xlink:href="#linearGradient3643"
       id="linearGradient3649"
       x1="195.15099"
       y1="555.32098"
       x2="314.20337"
       y2="555.32098"
       gradientUnits="userSpaceOnUse" />
    <linearGradient
       inkscape:collect="always"
       xlink:href="#linearGradient3687"
       id="linearGradient3653"
       gradientUnits="userSpaceOnUse"
       x1="433.25574"
       y1="555.32098"
       x2="361.20337"
       y2="555.32098"
       gradientTransform="translate(2,0)" />
    <linearGradient
       inkscape:collect="always"
       xlink:href="#linearGradient3643"
       id="linearGradient3661"
       x1="178.09102"
       y1="563.12579"
       x2="215.5"
       y2="563.12579"
       gradientUnits="userSpaceOnUse" />
    <linearGradient
       inkscape:collect="always"
       xlink:href="#linearGradient3643"
       id="linearGradient3669"
       x1="308.5"
       y1="706.24976"
       x2="329.5"
       y2="667.05597"
       gradientUnits="userSpaceOnUse" />
    <linearGradient
       inkscape:collect="always"
       xlink:href="#linearGradient3643"
       id="linearGradient3677"
       x1="425.84766"
       y1="563.00146"
       x2="472.68103"
       y2="584.00146"
       gradientUnits="userSpaceOnUse" />
    <linearGradient
       inkscape:collect="always"
       xlink:href="#linearGradient3643"
       id="linearGradient3681"
       gradientUnits="userSpaceOnUse"
       x1="391.5"
       y1="628.36218"
       x2="391.5"
       y2="677.54242" />
    <linearGradient
       inkscape:collect="always"
       xlink:href="#linearGradient3687"
       id="linearGradient3685"
       gradientUnits="userSpaceOnUse"
       x1="351.151"
       y1="459.26813"
       x2="314.20337"
       y2="590.32098" />
    <linearGradient
       inkscape:collect="always"
       xlink:href="#linearGradient3643"
       id="linearGradient3850"
       gradientUnits="userSpaceOnUse"
       x1="195.15099"
       y1="555.32098"
       x2="314.20337"
       y2="555.32098" />
    <linearGradient
       inkscape:collect="always"
       xlink:href="#linearGradient3687"
       id="linearGradient3852"
       gradientUnits="userSpaceOnUse"
       x1="351.151"
       y1="459.26813"
       x2="314.20337"
       y2="590.32098" />
    <linearGradient
       inkscape:collect="always"
       xlink:href="#linearGradient3687"
       id="linearGradient3854"
       gradientUnits="userSpaceOnUse"
       gradientTransform="translate(2,0)"
       x1="433.25574"
       y1="555.32098"
       x2="361.20337"
       y2="555.32098" />
    <linearGradient
       inkscape:collect="always"
       xlink:href="#linearGradient3643"
       id="linearGradient3856"
       gradientUnits="userSpaceOnUse"
       x1="178.09102"
       y1="563.12579"
       x2="215.5"
       y2="563.12579" />
    <linearGradient
       inkscape:collect="always"
       xlink:href="#linearGradient3643"
       id="linearGradient3858"
       gradientUnits="userSpaceOnUse"
       x1="425.84766"
       y1="563.00146"
       x2="472.68103"
       y2="584.00146" />
    <linearGradient
       inkscape:collect="always"
       xlink:href="#linearGradient3643"
       id="linearGradient3860"
       gradientUnits="userSpaceOnUse"
       x1="308.5"
       y1="706.24976"
       x2="329.5"
       y2="667.05597" />
    <linearGradient
       inkscape:collect="always"
       xlink:href="#linearGradient3643"
       id="linearGradient3862"
       gradientUnits="userSpaceOnUse"
       x1="391.5"
       y1="628.36218"
       x2="391.5"
       y2="677.54242" />
    <linearGradient
       inkscape:collect="always"
       xlink:href="#linearGradient3643"
       id="linearGradient3886"
       gradientUnits="userSpaceOnUse"
       x1="195.15099"
       y1="555.32098"
       x2="314.20337"
       y2="555.32098" />
    <linearGradient
       inkscape:collect="always"
       xlink:href="#linearGradient3687"
       id="linearGradient3888"
       gradientUnits="userSpaceOnUse"
       x1="351.151"
       y1="459.26813"
       x2="314.20337"
       y2="590.32098" />
    <linearGradient
       inkscape:collect="always"
       xlink:href="#linearGradient3687"
       id="linearGradient3890"
       gradientUnits="userSpaceOnUse"
       gradientTransform="translate(2,0)"
       x1="433.25574"
       y1="555.32098"
       x2="361.20337"
       y2="555.32098" />
    <linearGradient
       inkscape:collect="always"
       xlink:href="#linearGradient3643"
       id="linearGradient3892"
       gradientUnits="userSpaceOnUse"
       x1="178.09102"
       y1="563.12579"
       x2="215.5"
       y2="563.12579" />
    <linearGradient
       inkscape:collect="always"
       xlink:href="#linearGradient3643"
       id="linearGradient3894"
       gradientUnits="userSpaceOnUse"
       x1="425.84766"
       y1="563.00146"
       x2="472.68103"
       y2="584.00146" />
    <linearGradient
       inkscape:collect="always"
       xlink:href="#linearGradient3643"
       id="linearGradient3896"
       gradientUnits="userSpaceOnUse"
       x1="308.5"
       y1="706.24976"
       x2="329.5"
       y2="667.05597" />
    <linearGradient
       inkscape:collect="always"
       xlink:href="#linearGradient3643"
       id="linearGradient3898"
       gradientUnits="userSpaceOnUse"
       x1="391.5"
       y1="628.36218"
       x2="391.5"
       y2="677.54242" />
    <linearGradient
       inkscape:collect="always"
       xlink:href="#linearGradient3643"
       id="linearGradient3922"
       gradientUnits="userSpaceOnUse"
       x1="195.15099"
       y1="555.32098"
       x2="314.20337"
       y2="555.32098" />
    <linearGradient
       inkscape:collect="always"
       xlink:href="#linearGradient3687"
       id="linearGradient3924"
       gradientUnits="userSpaceOnUse"
       x1="351.151"
       y1="459.26813"
       x2="314.20337"
       y2="590.32098" />
    <linearGradient
       inkscape:collect="always"
       xlink:href="#linearGradient3687"
       id="linearGradient3926"
       gradientUnits="userSpaceOnUse"
       gradientTransform="translate(2,0)"
       x1="433.25574"
       y1="555.32098"
       x2="361.20337"
       y2="555.32098" />
    <linearGradient
       inkscape:collect="always"
       xlink:href="#linearGradient3643"
       id="linearGradient3928"
       gradientUnits="userSpaceOnUse"
       x1="178.09102"
       y1="563.12579"
       x2="215.5"
       y2="563.12579" />
    <linearGradient
       inkscape:collect="always"
       xlink:href="#linearGradient3643"
       id="linearGradient3930"
       gradientUnits="userSpaceOnUse"
       x1="425.84766"
       y1="563.00146"
       x2="472.68103"
       y2="584.00146" />
    <linearGradient
       inkscape:collect="always"
       xlink:href="#linearGradient3643"
       id="linearGradient3932"
       gradientUnits="userSpaceOnUse"
       x1="308.5"
       y1="706.24976"
       x2="329.5"
       y2="667.05597" />
    <linearGradient
       inkscape:collect="always"
       xlink:href="#linearGradient3643"
       id="linearGradient3934"
       gradientUnits="userSpaceOnUse"
       x1="391.5"
       y1="628.36218"
       x2="391.5"
       y2="677.54242" />
    <linearGradient
       inkscape:collect="always"
       xlink:href="#linearGradient3643"
       id="linearGradient3958"
       gradientUnits="userSpaceOnUse"
       x1="195.15099"
       y1="555.32098"
       x2="314.20337"
       y2="555.32098" />
    <linearGradient
       inkscape:collect="always"
       xlink:href="#linearGradient3687"
       id="linearGradient3960"
       gradientUnits="userSpaceOnUse"
       x1="351.151"
       y1="459.26813"
       x2="314.20337"
       y2="590.32098" />
    <linearGradient
       inkscape:collect="always"
       xlink:href="#linearGradient3687"
       id="linearGradient3962"
       gradientUnits="userSpaceOnUse"
       gradientTransform="translate(2,0)"
       x1="433.25574"
       y1="555.32098"
       x2="361.20337"
       y2="555.32098" />
    <linearGradient
       inkscape:collect="always"
       xlink:href="#linearGradient3643"
       id="linearGradient3964"
       gradientUnits="userSpaceOnUse"
       x1="178.09102"
       y1="563.12579"
       x2="215.5"
       y2="563.12579" />
    <linearGradient
       inkscape:collect="always"
       xlink:href="#linearGradient3643"
       id="linearGradient3966"
       gradientUnits="userSpaceOnUse"
       x1="425.84766"
       y1="563.00146"
       x2="472.68103"
       y2="584.00146" />
    <linearGradient
       inkscape:collect="always"
       xlink:href="#linearGradient3643"
       id="linearGradient3968"
       gradientUnits="userSpaceOnUse"
       x1="308.5"
       y1="706.24976"
       x2="329.5"
       y2="667.05597" />
    <linearGradient
       inkscape:collect="always"
       xlink:href="#linearGradient3643"
       id="linearGradient3970"
       gradientUnits="userSpaceOnUse"
       x1="391.5"
       y1="628.36218"
       x2="391.5"
       y2="677.54242" />
    <linearGradient
       inkscape:collect="always"
       xlink:href="#linearGradient3643"
       id="linearGradient3994"
       gradientUnits="userSpaceOnUse"
       x1="195.15099"
       y1="555.32098"
       x2="314.20337"
       y2="555.32098" />
    <linearGradient
       inkscape:collect="always"
       xlink:href="#linearGradient3687"
       id="linearGradient3996"
       gradientUnits="userSpaceOnUse"
       x1="351.151"
       y1="459.26813"
       x2="314.20337"
       y2="590.32098" />
    <linearGradient
       inkscape:collect="always"
       xlink:href="#linearGradient3687"
       id="linearGradient3998"
       gradientUnits="userSpaceOnUse"
       gradientTransform="translate(2,0)"
       x1="433.25574"
       y1="555.32098"
       x2="361.20337"
       y2="555.32098" />
    <linearGradient
       inkscape:collect="always"
       xlink:href="#linearGradient3643"
       id="linearGradient4000"
       gradientUnits="userSpaceOnUse"
       x1="178.09102"
       y1="563.12579"
       x2="215.5"
       y2="563.12579" />
    <linearGradient
       inkscape:collect="always"
       xlink:href="#linearGradient3643"
       id="linearGradient4002"
       gradientUnits="userSpaceOnUse"
       x1="425.84766"
       y1="563.00146"
       x2="472.68103"
       y2="584.00146" />
    <linearGradient
       inkscape:collect="always"
       xlink:href="#linearGradient3643"
       id="linearGradient4004"
       gradientUnits="userSpaceOnUse"
       x1="308.5"
       y1="706.24976"
       x2="329.5"
       y2="667.05597" />
    <linearGradient
       inkscape:collect="always"
       xlink:href="#linearGradient3643"
       id="linearGradient4006"
       gradientUnits="userSpaceOnUse"
       x1="391.5"
       y1="628.36218"
       x2="391.5"
       y2="677.54242" />
    <linearGradient
       inkscape:collect="always"
       xlink:href="#linearGradient3643"
       id="linearGradient4109"
       gradientUnits="userSpaceOnUse"
       x1="391.5"
       y1="628.36218"
       x2="391.5"
       y2="677.54242"
       gradientTransform="matrix(0.75922189,0,0,1,-46.643906,-196)" />
    <linearGradient
       inkscape:collect="always"
       xlink:href="#linearGradient3643"
       id="linearGradient4112"
       gradientUnits="userSpaceOnUse"
       x1="308.5"
       y1="706.24976"
       x2="329.5"
       y2="667.05597"
       gradientTransform="matrix(0.75922189,0,0,1,-46.643906,-196)" />
    <linearGradient
       inkscape:collect="always"
       xlink:href="#linearGradient3643"
       id="linearGradient4115"
       gradientUnits="userSpaceOnUse"
       x1="425.84766"
       y1="563.00146"
       x2="472.68103"
       y2="584.00146"
       gradientTransform="matrix(0.75922189,0,0,1,-46.643906,-196)" />
    <linearGradient
       inkscape:collect="always"
       xlink:href="#linearGradient3643"
       id="linearGradient4118"
       gradientUnits="userSpaceOnUse"
       x1="178.09102"
       y1="563.12579"
       x2="215.5"
       y2="563.12579"
       gradientTransform="matrix(0.75922189,0,0,1,-46.643906,-196)" />
    <linearGradient
       inkscape:collect="always"
       xlink:href="#linearGradient3687"
       id="linearGradient4121"
       gradientUnits="userSpaceOnUse"
       gradientTransform="matrix(0.75922189,0,0,1,-45.125462,-196)"
       x1="433.25574"
       y1="555.32098"
       x2="361.20337"
       y2="555.32098" />
    <linearGradient
       inkscape:collect="always"
       xlink:href="#linearGradient3687"
       id="linearGradient4124"
       gradientUnits="userSpaceOnUse"
       x1="351.151"
       y1="459.26813"
       x2="314.20337"
       y2="590.32098"
       gradientTransform="matrix(0.75922189,0,0,1,-46.643906,-196)" />
    <linearGradient
       inkscape:collect="always"
       xlink:href="#linearGradient3643"
       id="linearGradient4127"
       gradientUnits="userSpaceOnUse"
       x1="195.15099"
       y1="555.32098"
       x2="314.20337"
       y2="555.32098"
       gradientTransform="matrix(0.75922189,0,0,1,-46.643906,-196)" />
    <linearGradient
       inkscape:collect="always"
       xlink:href="#linearGradient3643"
       id="linearGradient4133"
       gradientUnits="userSpaceOnUse"
       x1="391.5"
       y1="628.36218"
       x2="391.5"
       y2="677.54242"
       gradientTransform="matrix(0.75922189,0,0,1,-137.75062,-2)" />
    <linearGradient
       inkscape:collect="always"
       xlink:href="#linearGradient3643"
       id="linearGradient4136"
       gradientUnits="userSpaceOnUse"
       x1="308.5"
       y1="706.24976"
       x2="329.5"
       y2="667.05597"
       gradientTransform="matrix(0.75922189,0,0,1,-137.75062,-2)" />
    <linearGradient
       inkscape:collect="always"
       xlink:href="#linearGradient3643"
       id="linearGradient4139"
       gradientUnits="userSpaceOnUse"
       x1="425.84766"
       y1="563.00146"
       x2="472.68103"
       y2="584.00146"
       gradientTransform="matrix(0.75922189,0,0,1,-137.75062,-2)" />
    <linearGradient
       inkscape:collect="always"
       xlink:href="#linearGradient3643"
       id="linearGradient4142"
       gradientUnits="userSpaceOnUse"
       x1="178.09102"
       y1="563.12579"
       x2="215.5"
       y2="563.12579"
       gradientTransform="matrix(0.75922189,0,0,1,-137.75062,-2)" />
    <linearGradient
       inkscape:collect="always"
       xlink:href="#linearGradient3687"
       id="linearGradient4145"
       gradientUnits="userSpaceOnUse"
       gradientTransform="matrix(0.75922189,0,0,1,-136.23218,-2)"
       x1="433.25574"
       y1="555.32098"
       x2="361.20337"
       y2="555.32098" />
    <linearGradient
       inkscape:collect="always"
       xlink:href="#linearGradient3687"
       id="linearGradient4148"
       gradientUnits="userSpaceOnUse"
       x1="351.151"
       y1="459.26813"
       x2="314.20337"
       y2="590.32098"
       gradientTransform="matrix(0.75922189,0,0,1,-137.75062,-2)" />
    <linearGradient
       inkscape:collect="always"
       xlink:href="#linearGradient3643"
       id="linearGradient4151"
       gradientUnits="userSpaceOnUse"
       x1="195.15099"
       y1="555.32098"
       x2="314.20337"
       y2="555.32098"
       gradientTransform="matrix(0.75922189,0,0,1,-137.75062,-2)" />
  </defs>
  <sodipodi:namedview
     id="base"
     pagecolor="#b8b8b8"
     bordercolor="#666666"
     borderopacity="1.0"
     inkscape:pageopacity="1"
     inkscape:pageshadow="2"
     inkscape:zoom="0.42127126"
     inkscape:cx="380.34198"
     inkscape:cy="324.01926"
     inkscape:document-units="px"
     inkscape:current-layer="flowRoot3695"
     showgrid="false"
     inkscape:window-width="1024"
     inkscape:window-height="525"
     inkscape:window-x="0"
     inkscape:window-y="24"
     inkscape:window-maximized="1" />
  <metadata
     id="metadata7">
    <rdf:RDF>
      <cc:Work
         rdf:about="">
        <dc:format>image/svg+xml</dc:format>
        <dc:type
           rdf:resource="http://purl.org/dc/dcmitype/StillImage" />
        <dc:title></dc:title>
      </cc:Work>
    </rdf:RDF>
  </metadata>
  <g
     inkscape:label="Layer 1"
     inkscape:groupmode="layer"
     id="layer1"
     transform="translate(66.518207,-257.72403)">
    <g
       style="font-size:64px;font-style:normal;font-variant:normal;font-weight:normal;font-stretch:normal;fill:#000000;fill-opacity:1;stroke:none;font-family:Arial;-inkscape-font-specification:Arial"
       id="flowRoot3695"
       transform="matrix(1.317138,0,0,1,-70.56321,0)">
      <path
         id="path4101"
         d="m 115.37855,259.75 c -3.50754,0.84579 -13.48672,22.00897 -17.011318,64.625 -3.985048,48.18341 -3.289178,104.01019 0.616874,144.375 -0.20833,0.89314 -0.37903,1.6234 -0.616874,2.625 88.034418,61.29693 139.507588,33.82956 184.490928,0 -0.31234,-1.38294 -0.58889,-2.65418 -0.87785,-3.9375 1.44184,2.9075 2.49419,3.75757 2.7759,0.9375 4.04379,-40.47921 4.39857,-113.44559 -3.79611,-166 -0.85078,-5.4563 -2.08513,-11.02679 -3.48767,-16.25 -2.45233,-13.20718 -5.55322,-22.43971 -9.13439,-24.4375 -1.34679,-2.09929 -2.30863,-2.45081 -2.53865,-0.375 -0.11776,-0.0201 -0.23719,-0.0268 -0.35588,-0.0312 -0.13445,-0.005 -0.26772,-0.0153 -0.40334,0 -0.13562,0.0153 -0.26656,0.0578 -0.40334,0.0937 -32.9666,8.67543 -51.17829,13.21287 -67.47584,14.0625 -1.81084,0.0944 -3.60484,0.12106 -5.38573,0.125 -18.29623,-0.22304 -36.48098,-5.16486 -73.66825,-14.1875 -0.42792,-0.10382 -0.84513,-0.0775 -1.25746,0.0625 -0.0982,-0.0238 -0.1625,-0.0386 -0.26099,-0.0625 -0.61679,-0.14965 -1.21895,-0.0384 -1.80315,0.3125 -0.11684,0.0702 -0.24038,0.12949 -0.35588,0.21875 -0.46202,0.35705 -0.91217,0.8816 -1.35237,1.53125 -0.22009,0.32482 -0.42608,0.66831 -0.64059,1.0625 -0.64353,1.18256 -1.25892,2.67615 -1.8506,4.4375 -0.19723,0.58712 -0.40185,1.19737 -0.59315,1.84375 1.87786,-6.49641 4.07838,-10.0574 6.59574,-9.40625 -0.12273,-1.22858 -0.56046,-1.78163 -1.21001,-1.625 z m 150.77673,1.53125 c 0.12517,-0.0116 0.25601,-0.009 0.37961,0 -0.12795,0.0155 -0.25064,0.0598 -0.37961,0.0937 -0.008,-0.002 -0.0162,0.002 -0.0237,0 -0.0542,-0.016 -0.11172,-0.0186 -0.16608,-0.0312 0.0637,-0.0113 0.12646,-0.0566 0.18981,-0.0625 z M 108.1185,425.09375 c 0.73851,1.86193 1.53924,3.29957 2.42002,4.21875 0.11882,0.12401 0.23442,0.23823 0.35588,0.34375 0.24293,0.21105 0.50569,0.39605 0.75922,0.53125 0.12677,0.0676 0.25018,0.13933 0.37961,0.1875 -1.48151,-0.22716 -2.78519,-2.1122 -3.91473,-5.28125 z m 162.52093,6.625 c 0.13544,0.61155 0.30143,1.25182 0.47451,1.96875 -0.29018,-0.59389 -0.59177,-1.19971 -0.90157,-1.8125 0.14758,-0.0614 0.27894,-0.0946 0.42706,-0.15625 z"
         style="fill:#ffffff;fill-opacity:1;stroke:none" />
      <path
         sodipodi:nodetypes="cssss"
         id="path3938"
         d="m 112.03347,432.36218 c -16.567696,-6.16538 -11.23467,-172.83108 4.55533,-169 74.37455,18.04527 72.69605,19.82956 148.04827,0 17.50745,-4.60723 25.63185,161.52627 5.31455,170 -75.08179,31.31435 -80.99579,27.62532 -157.91815,-1 z"
         style="fill:url(#linearGradient4127);fill-opacity:1;stroke:none" />
      <path
         style="fill:url(#linearGradient4124);fill-opacity:1;stroke:none"
         d="m 112.03347,432.36218 c -16.567696,-6.16538 -11.23467,-172.83108 4.55533,-169 74.37455,18.04527 72.69605,19.82956 148.04827,0 17.50745,-4.60723 25.63185,161.52627 5.31455,170 -75.08179,31.31435 -80.99579,27.62532 -157.91815,-1 z"
         id="path3940"
         sodipodi:nodetypes="cssss" />
      <path
         style="fill:url(#linearGradient4121);fill-opacity:1;stroke:none"
         d="m 113.55191,432.36218 c -16.567692,-6.16538 -11.23467,-172.83108 4.55533,-169 74.37455,18.04527 72.69605,19.82956 148.04827,0 17.50745,-4.60723 25.63185,161.52627 5.31456,170 -75.0818,31.31435 -80.99579,27.62532 -157.91816,-1 z"
         id="path3942"
         sodipodi:nodetypes="cssss" />
      <path
         style="fill:url(#linearGradient4118);fill-opacity:1;stroke:none"
         d="m 112.03347,432.36218 c -15.043269,-2.30656 -11.66767,-173.19627 4.55533,-169 -0.78549,-7.86294 -14.04403,12.49211 -18.221325,63 -4.037724,48.82024 -3.284553,105.52079 0.759222,146 9.369143,-21.81254 10.770273,-29.30656 12.906773,-40 z"
         id="path3944"
         sodipodi:nodetypes="ccscc" />
      <path
         sodipodi:nodetypes="ccssc"
         id="path3946"
         d="m 270.3421,432.36218 c 15.04327,-2.30656 11.66767,-173.19627 -4.55533,-169 0.78549,-7.86294 11.52601,17.53765 15.18443,41 8.19468,52.55441 7.83989,125.52079 3.79611,166 -1.0177,10.18746 -12.28872,-27.30656 -14.42521,-38 z"
         style="fill:url(#linearGradient4115);fill-opacity:1;stroke:none" />
      <path
         style="fill:url(#linearGradient4112);fill-opacity:1;stroke:none"
         d="m 112.03347,432.36218 c -10.49392,23.83462 -8.957,21.16892 -13.665995,41 88.034415,61.29693 139.507575,33.82956 184.490915,0 -3.75076,-16.60723 -5.49625,-25.47373 -12.90677,-40 -75.08179,31.31435 -80.99579,27.62532 -157.91815,-1 z"
         id="path3948"
         sodipodi:nodetypes="ccccc" />
      <path
         sodipodi:nodetypes="ccccc"
         id="path3950"
         d="m 112.03347,432.36218 c -10.49392,23.83462 -8.957,21.16892 -13.665995,41 88.034415,61.29693 139.507575,33.82956 184.490915,0 -3.75076,-16.60723 -5.49625,-25.47373 -12.90677,-40 -75.08179,31.31435 -80.99579,27.62532 -157.91815,-1 z"
         style="fill:url(#linearGradient4109);fill-opacity:1;stroke:none" />
      <path
         sodipodi:nodetypes="cs"
         id="path3952"
         d="m 135.56933,388.36218 c 42.51642,7 117.67939,-4 117.67939,-4"
         style="fill:none;stroke:none" />
      <text
         sodipodi:linespacing="125%"
         id="text3954"
         style="font-size:62.73600388px;font-style:normal;font-variant:normal;font-weight:normal;font-stretch:normal;text-align:start;line-height:125%;writing-mode:lr-tb;text-anchor:start;fill:#000000;fill-opacity:1;stroke:none;font-family:Andale Mono;-inkscape-font-specification:Andale Mono"
         xml:space="preserve"
         transform="translate(-100.21704,-202)"><textPath
           id="textPath3956"
           xlink:href="#path3732"> O    </textPath></text>
      <path
         style="fill:#ffffff;fill-opacity:1;stroke:none"
         d="m 306.702,259.75 c -3.50754,0.84579 -13.48672,22.00897 -17.01131,64.625 -3.98504,48.18341 -3.28917,104.01019 0.61687,144.375 -0.20833,0.89314 -0.37903,1.6234 -0.61687,2.625 88.03441,61.29693 139.50758,33.82956 184.49092,0 -0.31234,-1.38294 -0.58889,-2.65418 -0.87785,-3.9375 1.44184,2.9075 2.49419,3.75757 2.7759,0.9375 4.04379,-40.47921 4.39857,-113.44559 -3.79611,-166 -0.85078,-5.4563 -2.08513,-11.02679 -3.48767,-16.25 -2.45233,-13.20718 -5.55322,-22.43971 -9.13439,-24.4375 -1.34679,-2.09929 -2.30863,-2.45081 -2.53865,-0.375 -0.11776,-0.0201 -0.23719,-0.0268 -0.35588,-0.0312 -0.13445,-0.005 -0.26772,-0.0153 -0.40334,0 -0.13562,0.0153 -0.26656,0.0578 -0.40334,0.0937 -32.9666,8.67543 -51.17829,13.21287 -67.47584,14.0625 -1.81084,0.0944 -3.60484,0.12106 -5.38573,0.125 -18.29623,-0.22304 -36.48098,-5.16486 -73.66825,-14.1875 -0.42792,-0.10382 -0.84513,-0.0775 -1.25746,0.0625 -0.0982,-0.0238 -0.1625,-0.0386 -0.26099,-0.0625 -0.61679,-0.14965 -1.21895,-0.0384 -1.80315,0.3125 -0.11684,0.0702 -0.24038,0.12949 -0.35588,0.21875 -0.46202,0.35705 -0.91217,0.8816 -1.35237,1.53125 -0.22009,0.32482 -0.42608,0.66831 -0.64059,1.0625 -0.64353,1.18256 -1.25892,2.67615 -1.8506,4.4375 -0.19723,0.58712 -0.40185,1.19737 -0.59315,1.84375 1.87786,-6.49641 4.07838,-10.0574 6.59574,-9.40625 -0.12273,-1.22858 -0.56046,-1.78163 -1.21001,-1.625 z m 150.77673,1.53125 c 0.12517,-0.0116 0.25601,-0.009 0.37961,0 -0.12795,0.0155 -0.25064,0.0598 -0.37961,0.0937 -0.008,-0.002 -0.0162,0.002 -0.0237,0 -0.0542,-0.016 -0.11172,-0.0186 -0.16608,-0.0312 0.0637,-0.0113 0.12646,-0.0566 0.18981,-0.0625 z m -158.03678,163.8125 c 0.73851,1.86193 1.53924,3.29957 2.42002,4.21875 0.11882,0.12401 0.23442,0.23823 0.35588,0.34375 0.24293,0.21105 0.50569,0.39605 0.75922,0.53125 0.12677,0.0676 0.25018,0.13933 0.37961,0.1875 -1.48151,-0.22716 -2.78519,-2.1122 -3.91473,-5.28125 z m 162.52093,6.625 c 0.13544,0.61155 0.30143,1.25182 0.47451,1.96875 -0.29018,-0.59389 -0.59177,-1.19971 -0.90157,-1.8125 0.14758,-0.0614 0.27894,-0.0946 0.42706,-0.15625 z"
         id="path4103" />
      <g
         transform="translate(91.106901,-196)"
         id="g3972">
        <path
           transform="matrix(0.75922189,0,0,1,53.573134,0)"
           sodipodi:nodetypes="cssss"
           id="path3974"
           d="m 209,628.36218 c -21.82194,-6.16538 -14.79761,-172.83108 6,-169 97.96154,18.04527 95.75073,19.82956 195,0 23.05973,-4.60723 33.76068,161.52627 7,170 -98.89308,31.31435 -106.68263,27.62532 -208,-1 z"
           style="fill:url(#linearGradient3994);fill-opacity:1;stroke:none" />
        <path
           transform="matrix(0.75922189,0,0,1,53.573134,0)"
           style="fill:url(#linearGradient3996);fill-opacity:1;stroke:none"
           d="m 209,628.36218 c -21.82194,-6.16538 -14.79761,-172.83108 6,-169 97.96154,18.04527 95.75073,19.82956 195,0 23.05973,-4.60723 33.76068,161.52627 7,170 -98.89308,31.31435 -106.68263,27.62532 -208,-1 z"
           id="path3976"
           sodipodi:nodetypes="cssss" />
        <path
           transform="matrix(0.75922189,0,0,1,53.573134,0)"
           style="fill:url(#linearGradient3998);fill-opacity:1;stroke:none"
           d="m 211,628.36218 c -21.82194,-6.16538 -14.79761,-172.83108 6,-169 97.96154,18.04527 95.75073,19.82956 195,0 23.05973,-4.60723 33.76068,161.52627 7,170 -98.89308,31.31435 -106.68263,27.62532 -208,-1 z"
           id="path3978"
           sodipodi:nodetypes="cssss" />
        <path
           transform="matrix(0.75922189,0,0,1,53.573134,0)"
           style="fill:url(#linearGradient4000);fill-opacity:1;stroke:none"
           d="m 209,628.36218 c -19.81406,-2.30656 -15.36793,-173.19627 6,-169 -1.0346,-7.86294 -18.49792,12.49211 -24,63 -5.31824,48.82024 -4.32621,105.52079 1,146 12.34045,-21.81254 14.18594,-29.30656 17,-40 z"
           id="path3980"
           sodipodi:nodetypes="ccscc" />
        <path
           transform="matrix(0.75922189,0,0,1,53.573134,0)"
           sodipodi:nodetypes="ccssc"
           id="path3982"
           d="m 417.51431,628.36218 c 19.81406,-2.30656 15.36793,-173.19627 -6,-169 1.0346,-7.86294 15.18135,17.53765 20,41 10.79352,52.55441 10.32621,125.52079 5,166 -1.34045,10.18746 -16.18594,-27.30656 -19,-38 z"
           style="fill:url(#linearGradient4002);fill-opacity:1;stroke:none" />
        <path
           transform="matrix(0.75922189,0,0,1,53.573134,0)"
           style="fill:url(#linearGradient4004);fill-opacity:1;stroke:none"
           d="m 209,628.36218 c -13.82194,23.83462 -11.79761,21.16892 -18,41 115.95347,61.29693 183.75073,33.82956 243,0 -4.94027,-16.60723 -7.23932,-25.47373 -17,-40 -98.89308,31.31435 -106.68263,27.62532 -208,-1 z"
           id="path3984"
           sodipodi:nodetypes="ccccc" />
        <path
           transform="matrix(0.75922189,0,0,1,53.573134,0)"
           sodipodi:nodetypes="ccccc"
           id="path3986"
           d="m 209,628.36218 c -13.82194,23.83462 -11.79761,21.16892 -18,41 115.95347,61.29693 183.75073,33.82956 243,0 -4.94027,-16.60723 -7.23932,-25.47373 -17,-40 -98.89308,31.31435 -106.68263,27.62532 -208,-1 z"
           style="fill:url(#linearGradient4006);fill-opacity:1;stroke:none" />
        <path
           sodipodi:nodetypes="cs"
           id="path3988"
           d="m 235.78637,584.36218 c 42.51642,7 117.67939,-4 117.67939,-4"
           style="fill:none;stroke:none" />
        <text
           sodipodi:linespacing="125%"
           id="text3990"
           style="font-size:62.73600388px;font-style:normal;font-variant:normal;font-weight:normal;font-stretch:normal;text-align:start;line-height:125%;writing-mode:lr-tb;text-anchor:start;fill:#000000;fill-opacity:1;stroke:none;font-family:Andale Mono;-inkscape-font-specification:Andale Mono"
           xml:space="preserve"
           transform="translate(18.221327,-6)"><textPath
             id="textPath3992"
             xlink:href="#path3732">DO   </textPath></text>
      </g>
      <path
         style="fill:#ffffff;fill-opacity:1;stroke:none"
         d="m 408.43747,457.75 c -3.50754,0.84579 -13.48672,22.00897 -17.01131,64.625 -3.98504,48.18341 -3.28917,104.01019 0.61687,144.375 -0.20833,0.89314 -0.37903,1.6234 -0.61687,2.625 88.03441,61.29693 139.50758,33.82956 184.49092,0 -0.31234,-1.38294 -0.58889,-2.65418 -0.87785,-3.9375 1.44184,2.9075 2.49419,3.75757 2.7759,0.9375 4.04379,-40.47921 4.39857,-113.44559 -3.79611,-166 -0.85078,-5.4563 -2.08513,-11.02679 -3.48767,-16.25 -2.45233,-13.20718 -5.55322,-22.43971 -9.13439,-24.4375 -1.34679,-2.09929 -2.30863,-2.45081 -2.53865,-0.375 -0.11776,-0.0201 -0.23719,-0.0268 -0.35588,-0.0312 -0.13445,-0.005 -0.26772,-0.0153 -0.40334,0 -0.13562,0.0153 -0.26656,0.0578 -0.40334,0.0937 -32.9666,8.67543 -51.17829,13.21287 -67.47584,14.0625 -1.81084,0.0944 -3.60484,0.12106 -5.38573,0.125 -18.29623,-0.22304 -36.48098,-5.16486 -73.66825,-14.1875 -0.42792,-0.10382 -0.84513,-0.0775 -1.25746,0.0625 -0.0982,-0.0238 -0.1625,-0.0386 -0.26099,-0.0625 -0.61679,-0.14965 -1.21895,-0.0384 -1.80315,0.3125 -0.11684,0.0702 -0.24038,0.12949 -0.35588,0.21875 -0.46202,0.35705 -0.91217,0.8816 -1.35237,1.53125 -0.22009,0.32482 -0.42608,0.66831 -0.64059,1.0625 -0.64353,1.18256 -1.25892,2.67615 -1.8506,4.4375 -0.19723,0.58712 -0.40185,1.19737 -0.59315,1.84375 1.87786,-6.49641 4.07838,-10.0574 6.59574,-9.40625 -0.12273,-1.22858 -0.56046,-1.78163 -1.21001,-1.625 z m 150.77673,1.53125 c 0.12517,-0.0116 0.25601,-0.009 0.37961,0 -0.12795,0.0155 -0.25064,0.0598 -0.37961,0.0937 -0.008,-0.002 -0.0162,0.002 -0.0237,0 -0.0542,-0.016 -0.11172,-0.0186 -0.16608,-0.0312 0.0637,-0.0113 0.12646,-0.0566 0.18981,-0.0625 z m -158.03678,163.8125 c 0.73851,1.86193 1.53924,3.29957 2.42002,4.21875 0.11882,0.12401 0.23442,0.23823 0.35588,0.34375 0.24293,0.21105 0.50569,0.39605 0.75922,0.53125 0.12677,0.0676 0.25018,0.13933 0.37961,0.1875 -1.48151,-0.22716 -2.78519,-2.1122 -3.91473,-5.28125 z m 162.52093,6.625 c 0.13544,0.61155 0.30143,1.25182 0.47451,1.96875 -0.29018,-0.59389 -0.59177,-1.19971 -0.90157,-1.8125 0.14758,-0.0614 0.27894,-0.0946 0.42706,-0.15625 z"
         id="path4095" />
      <path
         id="path4097"
         d="m 215.59559,457.75 c -3.50754,0.84579 -13.48672,22.00897 -17.01131,64.625 -3.98504,48.18341 -3.28917,104.01019 0.61687,144.375 -0.20833,0.89314 -0.37903,1.6234 -0.61687,2.625 88.03441,61.29693 139.50758,33.82956 184.49092,0 -0.31234,-1.38294 -0.58889,-2.65418 -0.87785,-3.9375 1.44184,2.9075 2.49419,3.75757 2.7759,0.9375 4.04379,-40.47921 4.39857,-113.44559 -3.79611,-166 -0.85078,-5.4563 -2.08513,-11.02679 -3.48767,-16.25 -2.45233,-13.20718 -5.55322,-22.43971 -9.13439,-24.4375 -1.34679,-2.09929 -2.30863,-2.45081 -2.53865,-0.375 -0.11776,-0.0201 -0.23719,-0.0268 -0.35588,-0.0312 -0.13445,-0.005 -0.26772,-0.0153 -0.40334,0 -0.13562,0.0153 -0.26656,0.0578 -0.40334,0.0937 -32.9666,8.67543 -51.17829,13.21287 -67.47584,14.0625 -1.81084,0.0944 -3.60484,0.12106 -5.38573,0.125 -18.29623,-0.22304 -36.48098,-5.16486 -73.66825,-14.1875 -0.42792,-0.10382 -0.84513,-0.0775 -1.25746,0.0625 -0.0982,-0.0238 -0.1625,-0.0386 -0.26099,-0.0625 -0.61679,-0.14965 -1.21895,-0.0384 -1.80315,0.3125 -0.11684,0.0702 -0.24038,0.12949 -0.35588,0.21875 -0.46202,0.35705 -0.91217,0.8816 -1.35237,1.53125 -0.22009,0.32482 -0.42608,0.66831 -0.64059,1.0625 -0.64353,1.18256 -1.25892,2.67615 -1.8506,4.4375 -0.19723,0.58712 -0.40185,1.19737 -0.59315,1.84375 1.87786,-6.49641 4.07838,-10.0574 6.59574,-9.40625 -0.12273,-1.22858 -0.56046,-1.78163 -1.21001,-1.625 z m 150.77673,1.53125 c 0.12517,-0.0116 0.25601,-0.009 0.37961,0 -0.12795,0.0155 -0.25064,0.0598 -0.37961,0.0937 -0.008,-0.002 -0.0162,0.002 -0.0237,0 -0.0542,-0.016 -0.11172,-0.0186 -0.16608,-0.0312 0.0637,-0.0113 0.12646,-0.0566 0.18981,-0.0625 z m -158.03678,163.8125 c 0.73851,1.86193 1.53924,3.29957 2.42002,4.21875 0.11882,0.12401 0.23442,0.23823 0.35588,0.34375 0.24293,0.21105 0.50569,0.39605 0.75922,0.53125 0.12677,0.0676 0.25018,0.13933 0.37961,0.1875 -1.48151,-0.22716 -2.78519,-2.1122 -3.91473,-5.28125 z m 162.52093,6.625 c 0.13544,0.61155 0.30143,1.25182 0.47451,1.96875 -0.29018,-0.59389 -0.59177,-1.19971 -0.90157,-1.8125 0.14758,-0.0614 0.27894,-0.0946 0.42706,-0.15625 z"
         style="fill:#ffffff;fill-opacity:1;stroke:none" />
      <g
         id="g3780">
        <path
           transform="matrix(0.75922189,0,0,1,53.573134,0)"
           sodipodi:nodetypes="cssss"
           id="path2816"
           d="m 209,628.36218 c -21.82194,-6.16538 -14.79761,-172.83108 6,-169 97.96154,18.04527 95.75073,19.82956 195,0 23.05973,-4.60723 33.76068,161.52627 7,170 -98.89308,31.31435 -106.68263,27.62532 -208,-1 z"
           style="fill:url(#linearGradient3649);fill-opacity:1;stroke:none" />
        <path
           transform="matrix(0.75922189,0,0,1,53.573134,0)"
           style="fill:url(#linearGradient3685);fill-opacity:1;stroke:none"
           d="m 209,628.36218 c -21.82194,-6.16538 -14.79761,-172.83108 6,-169 97.96154,18.04527 95.75073,19.82956 195,0 23.05973,-4.60723 33.76068,161.52627 7,170 -98.89308,31.31435 -106.68263,27.62532 -208,-1 z"
           id="path3683"
           sodipodi:nodetypes="cssss" />
        <path
           transform="matrix(0.75922189,0,0,1,53.573134,0)"
           style="fill:url(#linearGradient3653);fill-opacity:1;stroke:none"
           d="m 211,628.36218 c -21.82194,-6.16538 -14.79761,-172.83108 6,-169 97.96154,18.04527 95.75073,19.82956 195,0 23.05973,-4.60723 33.76068,161.52627 7,170 -98.89308,31.31435 -106.68263,27.62532 -208,-1 z"
           id="path3651"
           sodipodi:nodetypes="cssss" />
        <path
           transform="matrix(0.75922189,0,0,1,53.573134,0)"
           style="fill:url(#linearGradient3661);fill-opacity:1;stroke:none"
           d="m 209,628.36218 c -19.81406,-2.30656 -15.36793,-173.19627 6,-169 -1.0346,-7.86294 -18.49792,12.49211 -24,63 -5.31824,48.82024 -4.32621,105.52079 1,146 12.34045,-21.81254 14.18594,-29.30656 17,-40 z"
           id="path2844"
           sodipodi:nodetypes="ccscc" />
        <path
           transform="matrix(0.75922189,0,0,1,53.573134,0)"
           sodipodi:nodetypes="ccssc"
           id="path2867"
           d="m 417.51431,628.36218 c 19.81406,-2.30656 15.36793,-173.19627 -6,-169 1.0346,-7.86294 15.18135,17.53765 20,41 10.79352,52.55441 10.32621,125.52079 5,166 -1.34045,10.18746 -16.18594,-27.30656 -19,-38 z"
           style="fill:url(#linearGradient3677);fill-opacity:1;stroke:none" />
        <path
           transform="matrix(0.75922189,0,0,1,53.573134,0)"
           style="fill:url(#linearGradient3669);fill-opacity:1;stroke:none"
           d="m 209,628.36218 c -13.82194,23.83462 -11.79761,21.16892 -18,41 115.95347,61.29693 183.75073,33.82956 243,0 -4.94027,-16.60723 -7.23932,-25.47373 -17,-40 -98.89308,31.31435 -106.68263,27.62532 -208,-1 z"
           id="path2869"
           sodipodi:nodetypes="ccccc" />
        <path
           transform="matrix(0.75922189,0,0,1,53.573134,0)"
           sodipodi:nodetypes="ccccc"
           id="path3679"
           d="m 209,628.36218 c -13.82194,23.83462 -11.79761,21.16892 -18,41 115.95347,61.29693 183.75073,33.82956 243,0 -4.94027,-16.60723 -7.23932,-25.47373 -17,-40 -98.89308,31.31435 -106.68263,27.62532 -208,-1 z"
           style="fill:url(#linearGradient3681);fill-opacity:1;stroke:none" />
        <path
           sodipodi:nodetypes="cs"
           id="path3732"
           d="m 235.78637,584.36218 c 42.51642,7 117.67939,-4 117.67939,-4"
           style="fill:none;stroke:none" />
        <text
           sodipodi:linespacing="125%"
           id="text3734"
           style="font-size:62.73600388px;font-style:normal;font-variant:normal;font-weight:normal;font-stretch:normal;text-align:start;line-height:125%;writing-mode:lr-tb;text-anchor:start;fill:#000000;fill-opacity:1;stroke:none;font-family:Andale Mono;-inkscape-font-specification:Andale Mono"
           xml:space="preserve"
           transform="translate(0,-8)"><textPath
             id="textPath3740"
             xlink:href="#path3732">TUR   </textPath></text>
      </g>
      <path
         style="fill:#ffffff;fill-opacity:1;stroke:none"
         d="m 22.753506,457.75 c -3.507552,0.84579 -13.4867558,22.00897 -17.0113574,64.625 -3.9850474,48.18341 -3.2891776,104.01019 0.616874,144.375 -0.20833,0.89314 -0.37903,1.6234 -0.616874,2.625 88.0346414,61.29693 139.5078314,33.82956 184.4911714,0 -0.31234,-1.38294 -0.58889,-2.65418 -0.87785,-3.9375 1.44184,2.9075 2.49419,3.75757 2.7759,0.9375 4.04379,-40.47921 4.39857,-113.44559 -3.79611,-166 -0.85078,-5.4563 -2.08513,-11.02679 -3.48767,-16.25 -2.45233,-13.20718 -5.55322,-22.43971 -9.13439,-24.4375 -1.34679,-2.09929 -2.30863,-2.45081 -2.53865,-0.375 -0.11776,-0.0201 -0.23719,-0.0268 -0.35588,-0.0312 -0.13445,-0.005 -0.26772,-0.0153 -0.40334,0 -0.13562,0.0153 -0.26656,0.0578 -0.40334,0.0937 -32.9666,8.67543 -51.17829,13.21287 -67.47584,14.0625 -1.81084,0.0944 -3.60484,0.12106 -5.385734,0.125 -18.296278,-0.22304 -36.481076,-5.16486 -73.668446,-14.1875 -0.42792,-0.10382 -0.84513,-0.0775 -1.25746,0.0625 -0.0982,-0.0238 -0.162504,-0.0386 -0.260994,-0.0625 -0.61679,-0.14965 -1.21895,-0.0384 -1.803154,0.3125 -0.11684,0.0702 -0.24038,0.12949 -0.35588,0.21875 -0.46202,0.35705 -0.912174,0.8816 -1.352374,1.53125 -0.22009,0.32482 -0.42608,0.66831 -0.64059,1.0625 -0.643534,1.18256 -1.258924,2.67615 -1.850608,4.4375 -0.19723,0.58712 -0.40185,1.19737 -0.59315,1.84375 1.877864,-6.49641 4.078392,-10.0574 6.595756,-9.40625 -0.12273,-1.22858 -0.56046,-1.78163 -1.21001,-1.625 z m 150.776934,1.53125 c 0.12517,-0.0116 0.25601,-0.009 0.37961,0 -0.12795,0.0155 -0.25064,0.0598 -0.37961,0.0937 -0.008,-0.002 -0.0162,0.002 -0.0237,0 -0.0542,-0.016 -0.11172,-0.0186 -0.16608,-0.0312 0.0637,-0.0113 0.12646,-0.0566 0.18981,-0.0625 z M 15.493436,623.09375 c 0.73851,1.86193 1.539244,3.29957 2.420024,4.21875 0.118824,0.12401 0.234424,0.23823 0.355884,0.34375 0.24293,0.21105 0.50569,0.39605 0.75922,0.53125 0.12677,0.0676 0.25018,0.13933 0.37961,0.1875 -1.481514,-0.22716 -2.785194,-2.1122 -3.914738,-5.28125 z m 162.521154,6.625 c 0.13544,0.61155 0.30143,1.25182 0.47451,1.96875 -0.29018,-0.59389 -0.59177,-1.19971 -0.90157,-1.8125 0.14758,-0.0614 0.27894,-0.0946 0.42706,-0.15625 z"
         id="path4099" />
      <path
         sodipodi:nodetypes="cssss"
         id="path3794"
         d="m 20.926755,626.36218 c -16.5676945,-6.16538 -11.2346694,-172.83108 4.555331,-169 74.374546,18.04527 72.696051,19.82956 148.048264,0 17.50746,-4.60723 25.63185,161.52627 5.31456,170 -75.08179,31.31435 -80.99579,27.62532 -157.918155,-1 z"
         style="fill:url(#linearGradient4151);fill-opacity:1;stroke:none" />
      <path
         style="fill:url(#linearGradient4148);fill-opacity:1;stroke:none"
         d="m 20.926755,626.36218 c -16.5676945,-6.16538 -11.2346694,-172.83108 4.555331,-169 74.374546,18.04527 72.696051,19.82956 148.048264,0 17.50746,-4.60723 25.63185,161.52627 5.31456,170 -75.08179,31.31435 -80.99579,27.62532 -157.918155,-1 z"
         id="path3796"
         sodipodi:nodetypes="cssss" />
      <path
         style="fill:url(#linearGradient4145);fill-opacity:1;stroke:none"
         d="m 22.445199,626.36218 c -16.5676947,-6.16538 -11.23467,-172.83108 4.555331,-169 74.37455,18.04527 72.69605,19.82956 148.04827,0 17.50745,-4.60723 25.63185,161.52627 5.31455,170 -75.08179,31.31435 -80.995786,27.62532 -157.918151,-1 z"
         id="path3798"
         sodipodi:nodetypes="cssss" />
      <path
         style="fill:url(#linearGradient4142);fill-opacity:1;stroke:none"
         d="m 20.926755,626.36218 c -15.0432681,-2.30656 -11.6676688,-173.19627 4.555331,-169 -0.785491,-7.86294 -14.044025,12.49211 -18.221325,63 -4.0377242,48.82024 -3.2845533,105.52079 0.7592219,146 9.3691401,-21.81254 10.7702761,-29.30656 12.9067721,-40 z"
         id="path3800"
         sodipodi:nodetypes="ccscc" />
      <path
         sodipodi:nodetypes="ccssc"
         id="path3802"
         d="m 179.23538,626.36218 c 15.04327,-2.30656 11.66767,-173.19627 -4.55533,-169 0.78549,-7.86294 11.52602,17.53765 15.18444,41 8.19468,52.55441 7.83988,125.52079 3.79611,166 -1.0177,10.18746 -12.28872,-27.30656 -14.42522,-38 z"
         style="fill:url(#linearGradient4139);fill-opacity:1;stroke:none" />
      <path
         style="fill:url(#linearGradient4136);fill-opacity:1;stroke:none"
         d="m 20.926755,626.36218 c -10.493919,23.83462 -8.957004,21.16892 -13.665994,41 88.034413,61.29693 139.507579,33.82956 184.490919,0 -3.75076,-16.60723 -5.49625,-25.47373 -12.90677,-40 -75.08179,31.31435 -80.99579,27.62532 -157.918155,-1 z"
         id="path3804"
         sodipodi:nodetypes="ccccc" />
      <path
         sodipodi:nodetypes="ccccc"
         id="path3806"
         d="m 20.926755,626.36218 c -10.493919,23.83462 -8.957004,21.16892 -13.665994,41 88.034413,61.29693 139.507579,33.82956 184.490919,0 -3.75076,-16.60723 -5.49625,-25.47373 -12.90677,-40 -75.08179,31.31435 -80.99579,27.62532 -157.918155,-1 z"
         style="fill:url(#linearGradient4133);fill-opacity:1;stroke:none" />
      <path
         sodipodi:nodetypes="cs"
         id="path3808"
         d="m 44.46262,582.36218 c 53.552693,3.36593 113.54078,0.5426 113.54078,0.5426"
         style="fill:none;stroke:none" />
      <text
         sodipodi:linespacing="125%"
         id="text3810"
         style="font-size:62.73600388px;font-style:normal;font-variant:normal;font-weight:normal;font-stretch:normal;text-align:start;line-height:125%;writing-mode:lr-tb;text-anchor:start;fill:#000000;fill-opacity:1;stroke:none;font-family:Andale Mono;-inkscape-font-specification:Andale Mono"
         xml:space="preserve"><textPath
           xlink:href="#path3808"
           id="textPath4153">MON   </textPath></text>
      <g
         transform="translate(191.32396,0)"
         id="g3828">
        <path
           transform="matrix(0.75922189,0,0,1,53.573134,0)"
           sodipodi:nodetypes="cssss"
           id="path3830"
           d="m 209,628.36218 c -21.82194,-6.16538 -14.79761,-172.83108 6,-169 97.96154,18.04527 95.75073,19.82956 195,0 23.05973,-4.60723 33.76068,161.52627 7,170 -98.89308,31.31435 -106.68263,27.62532 -208,-1 z"
           style="fill:url(#linearGradient3850);fill-opacity:1;stroke:none" />
        <path
           transform="matrix(0.75922189,0,0,1,53.573134,0)"
           style="fill:url(#linearGradient3852);fill-opacity:1;stroke:none"
           d="m 209,628.36218 c -21.82194,-6.16538 -14.79761,-172.83108 6,-169 97.96154,18.04527 95.75073,19.82956 195,0 23.05973,-4.60723 33.76068,161.52627 7,170 -98.89308,31.31435 -106.68263,27.62532 -208,-1 z"
           id="path3832"
           sodipodi:nodetypes="cssss" />
        <path
           transform="matrix(0.75922189,0,0,1,53.573134,0)"
           style="fill:url(#linearGradient3854);fill-opacity:1;stroke:none"
           d="m 211,628.36218 c -21.82194,-6.16538 -14.79761,-172.83108 6,-169 97.96154,18.04527 95.75073,19.82956 195,0 23.05973,-4.60723 33.76068,161.52627 7,170 -98.89308,31.31435 -106.68263,27.62532 -208,-1 z"
           id="path3834"
           sodipodi:nodetypes="cssss" />
        <path
           transform="matrix(0.75922189,0,0,1,53.573134,0)"
           style="fill:url(#linearGradient3856);fill-opacity:1;stroke:none"
           d="m 209,628.36218 c -19.81406,-2.30656 -15.36793,-173.19627 6,-169 -1.0346,-7.86294 -18.49792,12.49211 -24,63 -5.31824,48.82024 -4.32621,105.52079 1,146 12.34045,-21.81254 14.18594,-29.30656 17,-40 z"
           id="path3836"
           sodipodi:nodetypes="ccscc" />
        <path
           transform="matrix(0.75922189,0,0,1,53.573134,0)"
           sodipodi:nodetypes="ccssc"
           id="path3838"
           d="m 417.51431,628.36218 c 19.81406,-2.30656 15.36793,-173.19627 -6,-169 1.0346,-7.86294 15.18135,17.53765 20,41 10.79352,52.55441 10.32621,125.52079 5,166 -1.34045,10.18746 -16.18594,-27.30656 -19,-38 z"
           style="fill:url(#linearGradient3858);fill-opacity:1;stroke:none" />
        <path
           transform="matrix(0.75922189,0,0,1,53.573134,0)"
           style="fill:url(#linearGradient3860);fill-opacity:1;stroke:none"
           d="m 209,628.36218 c -13.82194,23.83462 -11.79761,21.16892 -18,41 115.95347,61.29693 183.75073,33.82956 243,0 -4.94027,-16.60723 -7.23932,-25.47373 -17,-40 -98.89308,31.31435 -106.68263,27.62532 -208,-1 z"
           id="path3840"
           sodipodi:nodetypes="ccccc" />
        <path
           transform="matrix(0.75922189,0,0,1,53.573134,0)"
           sodipodi:nodetypes="ccccc"
           id="path3842"
           d="m 209,628.36218 c -13.82194,23.83462 -11.79761,21.16892 -18,41 115.95347,61.29693 183.75073,33.82956 243,0 -4.94027,-16.60723 -7.23932,-25.47373 -17,-40 -98.89308,31.31435 -106.68263,27.62532 -208,-1 z"
           style="fill:url(#linearGradient3862);fill-opacity:1;stroke:none" />
        <path
           sodipodi:nodetypes="cs"
           id="path3844"
           d="m 235.78637,584.36218 c 42.51642,7 117.67939,-4 117.67939,-4"
           style="fill:none;stroke:none" />
        <text
           sodipodi:linespacing="125%"
           id="text3846"
           style="font-size:62.73600388px;font-style:normal;font-variant:normal;font-weight:normal;font-stretch:normal;text-align:start;line-height:125%;writing-mode:lr-tb;text-anchor:start;fill:#000000;fill-opacity:1;stroke:none;font-family:Andale Mono;-inkscape-font-specification:Andale Mono"
           xml:space="preserve"
           transform="translate(0,-10)"><textPath
             id="textPath3848"
             xlink:href="#path3732">DON   </textPath></text>
      </g>
      <path
         style="fill:#ffffff;fill-opacity:1;stroke:none"
         d="M 81.40625,657.75 C 76.786329,658.59579 63.642375,679.75897 59,722.375 c -5.248867,48.18341 -4.332303,104.01019 0.8125,144.375 -0.274393,0.89314 -0.499237,1.6234 -0.8125,2.625 115.95347,61.29693 183.75073,33.82956 243,0 -0.41139,-1.38294 -0.77565,-2.65418 -1.15625,-3.9375 1.89911,2.9075 3.28519,3.75757 3.65625,0.9375 5.32622,-40.47921 5.79352,-113.44559 -5,-166 -1.1206,-5.4563 -2.74641,-11.02679 -4.59375,-16.25 -3.23006,-13.20718 -7.31436,-22.43971 -12.03125,-24.4375 -1.77391,-2.09929 -3.04079,-2.45081 -3.34375,-0.375 -0.15511,-0.0201 -0.31242,-0.0268 -0.46875,-0.0312 -0.17709,-0.005 -0.35262,-0.0153 -0.53125,0 -0.17863,0.0153 -0.3511,0.0578 -0.53125,0.0937 -43.42156,8.67543 -67.40888,13.21287 -88.875,14.0625 -2.38512,0.0944 -4.74807,0.12106 -7.09375,0.125 C 157.9326,673.33946 133.98077,668.39764 85,659.375 c -0.563628,-0.10382 -1.113153,-0.0775 -1.65625,0.0625 -0.129365,-0.0238 -0.214035,-0.0386 -0.34375,-0.0625 -0.812407,-0.14965 -1.605525,-0.0384 -2.375,0.3125 -0.153895,0.0702 -0.316615,0.12949 -0.46875,0.21875 -0.608539,0.35705 -1.201452,0.8816 -1.78125,1.53125 -0.289899,0.32482 -0.561209,0.66831 -0.84375,1.0625 -0.847624,1.18256 -1.658166,2.67615 -2.4375,4.4375 -0.259778,0.58712 -0.52929,1.19737 -0.78125,1.84375 2.473392,-6.49641 5.371787,-10.0574 8.6875,-9.40625 -0.161656,-1.22858 -0.738209,-1.78163 -1.59375,-1.625 z M 280,659.28125 c 0.16487,-0.0116 0.33721,-0.009 0.5,0 -0.16853,0.0155 -0.33012,0.0598 -0.5,0.0937 -0.01,-0.002 -0.0213,0.002 -0.0312,0 -0.0713,-0.016 -0.14715,-0.0186 -0.21875,-0.0312 0.084,-0.0113 0.16656,-0.0566 0.25,-0.0625 z M 71.84375,823.09375 c 0.972726,1.86193 2.027403,3.29957 3.1875,4.21875 0.156514,0.12401 0.308765,0.23823 0.46875,0.34375 0.31997,0.21105 0.66606,0.39605 1,0.53125 0.16697,0.0676 0.329516,0.13933 0.5,0.1875 -1.951355,-0.22716 -3.668483,-2.1122 -5.15625,-5.28125 z m 214.0625,6.625 c 0.17839,0.61155 0.39702,1.25182 0.625,1.96875 -0.38221,-0.59389 -0.77945,-1.19971 -1.1875,-1.8125 0.19438,-0.0614 0.36741,-0.0946 0.5625,-0.15625 z"
         transform="matrix(0.75922189,0,0,1,53.573134,0)"
         id="path4034" />
      <g
         transform="translate(-100.21704,200)"
         id="g3900">
        <path
           transform="matrix(0.75922189,0,0,1,53.573134,0)"
           sodipodi:nodetypes="cssss"
           id="path3902"
           d="m 209,628.36218 c -21.82194,-6.16538 -14.79761,-172.83108 6,-169 97.96154,18.04527 95.75073,19.82956 195,0 23.05973,-4.60723 33.76068,161.52627 7,170 -98.89308,31.31435 -106.68263,27.62532 -208,-1 z"
           style="fill:url(#linearGradient3922);fill-opacity:1;stroke:none" />
        <path
           transform="matrix(0.75922189,0,0,1,53.573134,0)"
           style="fill:url(#linearGradient3924);fill-opacity:1;stroke:none"
           d="m 209,628.36218 c -21.82194,-6.16538 -14.79761,-172.83108 6,-169 97.96154,18.04527 95.75073,19.82956 195,0 23.05973,-4.60723 33.76068,161.52627 7,170 -98.89308,31.31435 -106.68263,27.62532 -208,-1 z"
           id="path3904"
           sodipodi:nodetypes="cssss" />
        <path
           transform="matrix(0.75922189,0,0,1,53.573134,0)"
           style="fill:url(#linearGradient3926);fill-opacity:1;stroke:none"
           d="m 211,628.36218 c -21.82194,-6.16538 -14.79761,-172.83108 6,-169 97.96154,18.04527 95.75073,19.82956 195,0 23.05973,-4.60723 33.76068,161.52627 7,170 -98.89308,31.31435 -106.68263,27.62532 -208,-1 z"
           id="path3906"
           sodipodi:nodetypes="cssss" />
        <path
           transform="matrix(0.75922189,0,0,1,53.573134,0)"
           style="fill:url(#linearGradient3928);fill-opacity:1;stroke:none"
           d="m 209,628.36218 c -19.81406,-2.30656 -15.36793,-173.19627 6,-169 -1.0346,-7.86294 -18.49792,12.49211 -24,63 -5.31824,48.82024 -4.32621,105.52079 1,146 12.34045,-21.81254 14.18594,-29.30656 17,-40 z"
           id="path3908"
           sodipodi:nodetypes="ccscc" />
        <path
           transform="matrix(0.75922189,0,0,1,53.573134,0)"
           sodipodi:nodetypes="ccssc"
           id="path3910"
           d="m 417.51431,628.36218 c 19.81406,-2.30656 15.36793,-173.19627 -6,-169 1.0346,-7.86294 15.18135,17.53765 20,41 10.79352,52.55441 10.32621,125.52079 5,166 -1.34045,10.18746 -16.18594,-27.30656 -19,-38 z"
           style="fill:url(#linearGradient3930);fill-opacity:1;stroke:none" />
        <path
           transform="matrix(0.75922189,0,0,1,53.573134,0)"
           style="fill:url(#linearGradient3932);fill-opacity:1;stroke:none"
           d="m 209,628.36218 c -13.82194,23.83462 -11.79761,21.16892 -18,41 115.95347,61.29693 183.75073,33.82956 243,0 -4.94027,-16.60723 -7.23932,-25.47373 -17,-40 -98.89308,31.31435 -106.68263,27.62532 -208,-1 z"
           id="path3912"
           sodipodi:nodetypes="ccccc" />
        <path
           transform="matrix(0.75922189,0,0,1,53.573134,0)"
           sodipodi:nodetypes="ccccc"
           id="path3914"
           d="m 209,628.36218 c -13.82194,23.83462 -11.79761,21.16892 -18,41 115.95347,61.29693 183.75073,33.82956 243,0 -4.94027,-16.60723 -7.23932,-25.47373 -17,-40 -98.89308,31.31435 -106.68263,27.62532 -208,-1 z"
           style="fill:url(#linearGradient3934);fill-opacity:1;stroke:none" />
        <path
           sodipodi:nodetypes="cs"
           id="path3916"
           d="m 235.78637,584.36218 c 42.51642,7 117.67939,-4 117.67939,-4"
           style="fill:none;stroke:none" />
        <text
           sodipodi:linespacing="125%"
           id="text3918"
           style="font-size:62.73600388px;font-style:normal;font-variant:normal;font-weight:normal;font-stretch:normal;text-align:start;line-height:125%;writing-mode:lr-tb;text-anchor:start;fill:#000000;fill-opacity:1;stroke:none;font-family:Andale Mono;-inkscape-font-specification:Andale Mono"
           xml:space="preserve"
           transform="translate(0,-2)"><textPath
             id="textPath3920"
             xlink:href="#path3732">HIC   </textPath></text>
      </g>
      <path
         id="path4093"
         d="m 305.18355,657.75 c -3.50754,0.84579 -13.48672,22.00897 -17.01131,64.625 -3.98504,48.18341 -3.28917,104.01019 0.61687,144.375 -0.20833,0.89314 -0.37903,1.6234 -0.61687,2.625 88.03441,61.29693 139.50758,33.82956 184.49092,0 -0.31234,-1.38294 -0.58889,-2.65418 -0.87785,-3.9375 1.44184,2.9075 2.49419,3.75757 2.7759,0.9375 4.04379,-40.47921 4.39857,-113.44559 -3.79611,-166 -0.85078,-5.4563 -2.08513,-11.02679 -3.48767,-16.25 -2.45233,-13.20718 -5.55322,-22.43971 -9.13439,-24.4375 -1.34679,-2.09929 -2.30863,-2.45081 -2.53865,-0.375 -0.11776,-0.0201 -0.23719,-0.0268 -0.35588,-0.0312 -0.13445,-0.005 -0.26772,-0.0153 -0.40334,0 -0.13562,0.0153 -0.26656,0.0578 -0.40334,0.0937 -32.9666,8.67543 -51.17829,13.21287 -67.47584,14.0625 -1.81084,0.0944 -3.60484,0.12106 -5.38573,0.125 -18.29623,-0.22304 -36.48098,-5.16486 -73.66825,-14.1875 -0.42792,-0.10382 -0.84513,-0.0775 -1.25746,0.0625 -0.0982,-0.0238 -0.1625,-0.0386 -0.26099,-0.0625 -0.61679,-0.14965 -1.21895,-0.0384 -1.80315,0.3125 -0.11684,0.0702 -0.24038,0.12949 -0.35588,0.21875 -0.46202,0.35705 -0.91217,0.8816 -1.35237,1.53125 -0.22009,0.32482 -0.42608,0.66831 -0.64059,1.0625 -0.64353,1.18256 -1.25892,2.67615 -1.8506,4.4375 -0.19723,0.58712 -0.40185,1.19737 -0.59315,1.84375 1.87786,-6.49641 4.07838,-10.0574 6.59574,-9.40625 -0.12273,-1.22858 -0.56046,-1.78163 -1.21001,-1.625 z m 150.77673,1.53125 c 0.12517,-0.0116 0.25601,-0.009 0.37961,0 -0.12795,0.0155 -0.25064,0.0598 -0.37961,0.0937 -0.008,-0.002 -0.0162,0.002 -0.0237,0 -0.0542,-0.016 -0.11172,-0.0186 -0.16608,-0.0312 0.0637,-0.0113 0.12646,-0.0566 0.18981,-0.0625 z M 297.9235,823.09375 c 0.73851,1.86193 1.53924,3.29957 2.42002,4.21875 0.11882,0.12401 0.23442,0.23823 0.35588,0.34375 0.24293,0.21105 0.50569,0.39605 0.75922,0.53125 0.12677,0.0676 0.25018,0.13933 0.37961,0.1875 -1.48151,-0.22716 -2.78519,-2.1122 -3.91473,-5.28125 z m 162.52093,6.625 c 0.13544,0.61155 0.30143,1.25182 0.47451,1.96875 -0.29018,-0.59389 -0.59177,-1.19971 -0.90157,-1.8125 0.14758,-0.0614 0.27894,-0.0946 0.42706,-0.15625 z"
         style="fill:#ffffff;fill-opacity:1;stroke:none" />
      <g
         id="g3864"
         transform="translate(89.588452,200)">
        <path
           style="fill:url(#linearGradient3886);fill-opacity:1;stroke:none"
           d="m 209,628.36218 c -21.82194,-6.16538 -14.79761,-172.83108 6,-169 97.96154,18.04527 95.75073,19.82956 195,0 23.05973,-4.60723 33.76068,161.52627 7,170 -98.89308,31.31435 -106.68263,27.62532 -208,-1 z"
           id="path3866"
           sodipodi:nodetypes="cssss"
           transform="matrix(0.75922189,0,0,1,53.573134,0)" />
        <path
           sodipodi:nodetypes="cssss"
           id="path3868"
           d="m 209,628.36218 c -21.82194,-6.16538 -14.79761,-172.83108 6,-169 97.96154,18.04527 95.75073,19.82956 195,0 23.05973,-4.60723 33.76068,161.52627 7,170 -98.89308,31.31435 -106.68263,27.62532 -208,-1 z"
           style="fill:url(#linearGradient3888);fill-opacity:1;stroke:none"
           transform="matrix(0.75922189,0,0,1,53.573134,0)" />
        <path
           sodipodi:nodetypes="cssss"
           id="path3870"
           d="m 211,628.36218 c -21.82194,-6.16538 -14.79761,-172.83108 6,-169 97.96154,18.04527 95.75073,19.82956 195,0 23.05973,-4.60723 33.76068,161.52627 7,170 -98.89308,31.31435 -106.68263,27.62532 -208,-1 z"
           style="fill:url(#linearGradient3890);fill-opacity:1;stroke:none"
           transform="matrix(0.75922189,0,0,1,53.573134,0)" />
        <path
           sodipodi:nodetypes="ccscc"
           id="path3872"
           d="m 209,628.36218 c -19.81406,-2.30656 -15.36793,-173.19627 6,-169 -1.0346,-7.86294 -18.49792,12.49211 -24,63 -5.31824,48.82024 -4.32621,105.52079 1,146 12.34045,-21.81254 14.18594,-29.30656 17,-40 z"
           style="fill:url(#linearGradient3892);fill-opacity:1;stroke:none"
           transform="matrix(0.75922189,0,0,1,53.573134,0)" />
        <path
           style="fill:url(#linearGradient3894);fill-opacity:1;stroke:none"
           d="m 417.51431,628.36218 c 19.81406,-2.30656 15.36793,-173.19627 -6,-169 1.0346,-7.86294 15.18135,17.53765 20,41 10.79352,52.55441 10.32621,125.52079 5,166 -1.34045,10.18746 -16.18594,-27.30656 -19,-38 z"
           id="path3874"
           sodipodi:nodetypes="ccssc"
           transform="matrix(0.75922189,0,0,1,53.573134,0)" />
        <path
           sodipodi:nodetypes="ccccc"
           id="path3876"
           d="m 209,628.36218 c -13.82194,23.83462 -11.79761,21.16892 -18,41 115.95347,61.29693 183.75073,33.82956 243,0 -4.94027,-16.60723 -7.23932,-25.47373 -17,-40 -98.89308,31.31435 -106.68263,27.62532 -208,-1 z"
           style="fill:url(#linearGradient3896);fill-opacity:1;stroke:none"
           transform="matrix(0.75922189,0,0,1,53.573134,0)" />
        <path
           style="fill:url(#linearGradient3898);fill-opacity:1;stroke:none"
           d="m 209,628.36218 c -13.82194,23.83462 -11.79761,21.16892 -18,41 115.95347,61.29693 183.75073,33.82956 243,0 -4.94027,-16.60723 -7.23932,-25.47373 -17,-40 -98.89308,31.31435 -106.68263,27.62532 -208,-1 z"
           id="path3878"
           sodipodi:nodetypes="ccccc"
           transform="matrix(0.75922189,0,0,1,53.573134,0)" />
        <path
           style="fill:none;stroke:none"
           d="m 235.78637,584.36218 c 42.51642,7 117.67939,-4 117.67939,-4"
           id="path3880"
           sodipodi:nodetypes="cs" />
        <text
           xml:space="preserve"
           style="font-size:62.73600388px;font-style:normal;font-variant:normal;font-weight:normal;font-stretch:normal;text-align:start;line-height:125%;writing-mode:lr-tb;text-anchor:start;fill:#000000;fill-opacity:1;stroke:none;font-family:Andale Mono;-inkscape-font-specification:Andale Mono"
           id="text3882"
           sodipodi:linespacing="125%"
           transform="translate(0,-6)"><textPath
             xlink:href="#path3732"
             id="textPath3884">JOC   </textPath></text>
      </g>
    </g>
  </g>
</svg>
